<svg xmlns="http://www.w3.org/2000/svg" viewBox="0 0 24 24">
  <path
    d="M19.9 11.9s3.2-4.4 3.5-5.9c.1-.5-.1-.8-.7-.8H20c-.6 0-.9.3-1 .7 0 0-1.5 3.1-3.3 5.1-.6.6-.9.8-1.2.8-.3 0-.4-.2-.4-.8V5.9c0-.7-.1-.9-.7-.9H9c-.3 0-.5.2-.5.5 0 .7 1 .8 1 2.6v3.7c0 .8 0 1-.4 1-.9 0-3.2-3.2-4.4-6.9-.3-.7-.5-.9-1.2-.9H.7c-.4 0-.7.3-.7.7 0 .7.9 4.1 4.2 8.6 2.3 3 5.2 4.7 7.9 4.7 1.6 0 2-.3 2-1v-2.3c0-.6.2-.8.6-.8.4 0 1 .1 2.6 1.6 1.8 1.8 2 2.5 3 2.5h3.1c.3 0 .6-.1.6-.7 0-.7-.9-1.9-2.3-3.4-.6-.8-1.5-1.6-1.8-1.9-.4-.4-.3-.7 0-1.1z"/>
</svg>
