<svg xmlns="http://www.w3.org/2000/svg" viewBox="0 0 50 50">
  <path d="M31 37H15c-.6 0-1-.4-1-1s.4-1 1-1h16c.6 0 1 .4 1 1s-.4 1-1 1zm-8-3c-5 0-9-4-9-9v-.2V22c0-1.1.9-2 2-2h17c1.7 0 3 1.3 3 3s-1.3 3-3 3h-1-.1c-.5 4.5-4.3 8-8.9 8zm-7-9.2v.2c0 3.9 3.1 7 7 7s7-3.1 7-7v-.2V22H16V24.8zm16-.8h1c.6 0 1-.4 1-1s-.4-1-1-1h-1v2zm-4-5c-.6 0-1-.4-1-1v-4c0-.6.4-1 1-1s1 .4 1 1v4c0 .6-.4 1-1 1zm-5 0c-.6 0-1-.4-1-1v-4c0-.6.4-1 1-1s1 .4 1 1v4c0 .6-.4 1-1 1zm-5 0c-.6 0-1-.4-1-1v-4c0-.6.4-1 1-1s1 .4 1 1v4c0 .6-.4 1-1 1z"/>
</svg>
