<svg xmlns="http://www.w3.org/2000/svg" viewBox="0 0 50 50">
  <path d="M37 15H18.1c-3.4 0-6.1 2.7-6.1 6.1V31c0 .6.4 1 1 1h2.4c.4 1.7 2 3 3.9 3s3.4-1.3 3.9-3H33v2c0 .6.4 1 1 1s1-.4 1-1v-2h2c.6 0 1-.4 1-1V16c0-.6-.4-1-1-1zM19.3 33c-1.1 0-2-.9-2-2s.9-2 2-2 2 .9 2 2-.9 2-2 2zm9.2-3l-.1-7.4c0-.2.2-.4.4-.4h2.8c.2 0 .4.2.4.4v3.3h-.8c-.6 0-1 .4-1 1s.4 1 1 1h.8V30h-3.5zm7.5 0h-2v-7.4c0-1.3-1.1-2.4-2.4-2.4h-2.8c-1.3 0-2.4 1.1-2.4 2.4l.1 7.4h-3.3c-.4-1.7-2-3-3.9-3s-3.4 1.3-3.9 3H14v-8.9c0-2.3 1.8-4.1 4.1-4.1H36v13zm-20.3-9.3v2c0 1 .9 1.9 1.9 1.9h3.5c1 0 1.9-.9 1.9-1.9v-2c0-1-.9-1.9-1.9-1.9h-3.5c-1 0-1.9.9-1.9 1.9zm2 .1H21v1.8h-3.3v-1.8z"/>
</svg>
