<svg xmlns="http://www.w3.org/2000/svg" viewBox="0 0 50 50">
  <path d="M16.5 22.1c-.2 0-.4-.1-.6-.2-.1-.1-2.9-2.3-2.9-5.2 0-2.1 1.5-3.7 3.5-3.7s3.5 1.6 3.5 3.7c0 2.7-2.7 5.1-2.9 5.2-.1.1-.4.2-.6.2zm0-7.1c-1 0-1.5.9-1.5 1.7 0 1.2.9 2.3 1.5 3 .7-.7 1.5-1.9 1.5-3 0-.8-.5-1.7-1.5-1.7zM28 33c0-.6-.4-1-1-1h-9c-1.7 0-3-1.3-3-3s1.3-3 3-3h14c2.8 0 5-2.2 5-5s-2.2-5-5-5h-9c-.6 0-1 .4-1 1s.4 1 1 1h9c1.7 0 3 1.3 3 3s-1.3 3-3 3H18c-2.8 0-5 2.2-5 5s2.2 5 5 5h9c.6 0 1-.4 1-1zm6.4 0l2.3-2.3c.4-.4.4-1 0-1.4s-1-.4-1.4 0L33 31.6l-2.3-2.3c-.4-.4-1-.4-1.4 0s-.4 1 0 1.4l2.3 2.3-2.3 2.3c-.4.4-.4 1 0 1.4.2.2.5.3.7.3s.5-.1.7-.3l2.3-2.3 2.3 2.3c.2.2.5.3.7.3s.5-.1.7-.3c.4-.4.4-1 0-1.4L34.4 33z"/>
</svg>
