<svg xmlns="http://www.w3.org/2000/svg" viewBox="0 0 50 50">
  <path d="M25 35c-7.2 0-13-4.5-13-10s5.8-10 13-10 13 4.5 13 10-5.8 10-13 10zm0-18c-6.1 0-11 3.6-11 8s4.9 8 11 8 11-3.6 11-8-4.9-8-11-8zm.2 6.7l1-.8c.6-.5 1.6-.5 2.3 0l1 .8c.4.3 1.1.3 1.4-.2.3-.4.3-1.1-.2-1.4l-1-.8c-1.4-1.1-3.4-1.1-4.8 0l-1 .8c-.5.5-1.2.5-1.8 0l-1.1-.9c-1.2-.9-2.9-.9-4.6-.1-.5.2-.7.8-.4 1.3s.8.7 1.3.4c.9-.5 1.9-.5 2.4-.2l1 .9c.6.6 1.4.9 2.2.9.9.1 1.7-.2 2.3-.7zm2.9 5.1l1-.8c.6-.5 1.6-.5 2.3 0l1 .8c.4.3 1.1.3 1.4-.2.3-.4.3-1.1-.2-1.4l-1-.8c-1.4-1.1-3.4-1.1-4.8 0l-1 .8c-.5.5-1.3.5-1.8 0l-1-.9c-1.2-.9-2.9-.9-4.6-.1-.5.2-.7.8-.4 1.3.2.5.8.7 1.3.4.9-.5 1.9-.5 2.4-.2l1 .9c.6.6 1.4.9 2.2.9.8.1 1.6-.2 2.2-.7z"/>
</svg>
