<svg xmlns="http://www.w3.org/2000/svg" viewBox="0 0 50 50">
  <path d="M18 32c.9 0 1.5-.6 1.5-1.5S18.9 29 18 29s-1.5.6-1.5 1.5.6 1.5 1.5 1.5zm0-2c.3 0 .5.2.5.5s-.2.5-.5.5-.5-.2-.5-.5.2-.5.5-.5zm13 2c.9 0 1.5-.6 1.5-1.5S31.9 29 31 29s-1.5.6-1.5 1.5.6 1.5 1.5 1.5zm0-2c.3 0 .5.2.5.5s-.2.5-.5.5-.5-.2-.5-.5.2-.5.5-.5zm5.5-7h-2-.1L33 18.5c-.2-.9-1.2-1.5-2-1.5h-8.6c-.6 0-1 .4-1 1s.4 1 1 1h8.7l1.9 6H14.2c-.9 0-1.7.8-1.7 1.8v6.4c0 1 .8 1.8 1.7 1.8h.3v1c0 .6.4 1 1 1h4c.6 0 1-.4 1-1v-1h8v1c0 .6.4 1 1 1h4c.6 0 1-.4 1-1v-1h.2c.9 0 1.7-.8 1.7-1.8v-6.4c0-.9-.6-1.6-1.4-1.8h1.5c.6 0 1-.4 1-1s-.4-1-1-1zm-22 4h19.9v6H14.5v-6zm-1-3c.6 0 1-.4 1-1v-3H17c2 0 3.5-1.5 3.5-3.5S19 13 17 13h-3.5c-.6 0-1 .4-1 1v9c0 .6.4 1 1 1zm5-7.5c0 .8-.7 1.5-1.5 1.5h-2.5v-3H17c.8 0 1.5.7 1.5 1.5z"/>
</svg>
