<svg xmlns="http://www.w3.org/2000/svg" viewBox="0 0 50 50">
  <path d="M16.1 37c-.9 0-1.6-.3-2.2-.9-.6-.6-1-1.5-.9-2.4 0-1 .6-2 1.5-2.8l6-5.4c-1.4-.5-3.7-1.4-5.1-2.9-2.5-2.5-3.1-7.9-1.5-9.4.4-.4 1-.4 1.4 0l9.7 9.3L35.6 31c.9.8 1.5 1.8 1.5 2.9 0 .9-.3 1.7-.9 2.2-.6.6-1.5.9-2.4.9-1-.1-2-.6-2.6-1.5l-6.4-6.4-5.8 6.5c-.6.8-1.6 1.4-2.7 1.5 0-.1-.1-.1-.2-.1zm6.1-10.4l-6.5 5.8c-.5.4-.8.9-.8 1.4 0 .3.1.6.3.9.4.3.8.3 1 .3.5 0 .9-.3 1.3-.7l5.9-6.5-1.2-1.2zm0-2.6c.2 0 .3.1.5.3l9.9 9.9.1.1c.3.4.8.7 1.2.7.3 0 .6-.1.9-.3.2-.2.3-.4.3-.7 0-.5-.3-1-.7-1.4l-10.8-8.5-8.6-8.2c-.1 1.5.3 4 1.8 5.5C18.4 23 22 24 22.2 24zm7.8 1c-.5 0-.9-.3-1-.8-.1-.5.2-1.1.8-1.2.7-.2 1.6-.5 2.3-1.4 1.6-1.7 3-4.1 3-4.1.3-.5.9-.7 1.4-.4.5.3.7.9.4 1.4-.1.1-1.5 2.8-3.3 4.5-.8 1-1.9 1.6-3.4 2H30zm-4-3.3s-.1 0 0 0c-.6-.1-1.1-.5-1-1.1.2-1.5.8-2.9 2-4.2 1.8-1.8 4.5-3.2 4.6-3.2.5-.2 1.1 0 1.3.4.2.5 0 1.1-.4 1.3 0 0-2.5 1.3-4 2.8-.8.9-1.3 1.9-1.4 3-.2.6-.6 1-1.1 1zm3.7-.4c-.3 0-.5-.1-.7-.3-.4-.4-.4-1 0-1.4l5.3-5.3c.4-.4 1-.4 1.4 0s.4 1 0 1.4L30.4 21c-.2.2-.4.3-.7.3z"/>
</svg>
