<svg xmlns="http://www.w3.org/2000/svg" viewBox="0 0 50 50">
  <path d="M39.2 37.4H22.7c-1 0-1.8-.8-1.8-1.8v-8.9l-.3.3c-.4.4-1 .4-1.4.1-.4-.4-.4-1-.1-1.4l11-12c.4-.4 1.1-.4 1.5 0l11 12c.4.4.3 1-.1 1.4s-1 .3-1.4-.1l-.1-.2v8.8c0 1-.8 1.8-1.8 1.8zm-16.3-2H39V24.6l-8.1-8.8-8 8.7v10.9zm-4.8-1.8h-7.7c-.9 0-1.6-.7-1.6-1.6v-7.3c-.4.4-1 .4-1.4 0-.4-.4-.4-1-.1-1.4L16.8 13c.2-.2.5-.3.7-.3.3 0 .5.1.7.3l4.4 4.8c.4.4.3 1-.1 1.4-.4.4-1 .3-1.4-.1l-3.7-4-6.7 7.3v9.1H18c.6 0 1 .4 1 1s-.3 1.1-.9 1.1zm16-.5H28c-.6 0-1-.4-1-1V26c0-.6.4-1 1-1h6.1c.6 0 1 .4 1 1v6.1c0 .6-.4 1-1 1zm-5.1-2h4.1V27H29v4.1z"/>
</svg>
