<svg xmlns="http://www.w3.org/2000/svg" viewBox="0 0 50 50">
  <path d="M36 37H14c-.6 0-1-.4-1-1s.4-1 1-1h1v-3h-1c-.6 0-1-.4-1-1s.4-1 1-1h4c.6 0 1 .4 1 1s-.4 1-1 1h-1v3h10v-1h-7.3c-.1 0-.2-.1-.3-.2l-.3-.3c-.1-.1-.1-.3-.1-.4v-.4c0-.1.1-.2.1-.3L23 27h-1c-.1 0-.2 0-.3-.1-.1 0-.2-.1-.3-.2l-.3-.3c-.1-.1-.1-.2-.1-.3v-.4c0-.1.1-.2.1-.3l3.2-4.4h-.6c-.1 0-.2-.1-.3-.2l-.3-.3c-.1-.1-.1-.3-.1-.4v-.4c0-.1.1-.2.1-.3l4-6c0-.1.1-.1.1-.2.1-.1.2-.2.3-.2h.5c.1 0 .3 0 .4.1.1 0 .2.1.3.2.1.1.1.1.1.2l4 6c.1.1.1.2.1.3v.4c0 .1-.1.3-.1.4l-.3.3c-.1.1-.2.1-.3.2H31.3l3.4 4.4c.1.1.1.2.1.3.2 0 .2.1.2.2s0 .3-.1.4c-.1.1-.1.2-.3.3-.1.1-.2.1-.3.2-.1.1-.2.1-.3.1h-1.8l4.6 5.3.1.1c0 .1.1.1.1.2v.4c0 .1 0 .3-.1.4-.1.1-.1.2-.2.3l-.1.1c-.1 0-.1.1-.2.1h-.2H29v1h7c.6 0 1 .4 1 1s-.4 1.1-1 1.1zm-8-5h5.8l-4.6-5.3-.1-.1c0-.1-.1-.1-.1-.2v-.2-.2c0-.1 0-.3.1-.4.1-.1.1-.2.2-.3l.1-.1c.1 0 .1-.1.2-.1h2.3l-3.1-4c-.5-.1-.8-.5-.8-1 0-.6.4-1 1-1h1.1L28 15.8 25.9 19H26.2c.3-.1.6 0 .8.2.4.3.5 1 .2 1.4L24 25h1.3c.1 0 .2.1.3.2l.3.3c.1.1.1.3.1.4v.4c0 .1-.1.2-.1.3l-4 5.4H28z"/>
</svg>
