<svg xmlns="http://www.w3.org/2000/svg" viewBox="0 0 50 50">
  <path d="M17.9 14.6c1.4 0 2.5-1.1 2.5-2.5s-1.1-2.5-2.5-2.5-2.5 1.1-2.5 2.5 1.1 2.5 2.5 2.5zM13 41.4c-.4 0-.8-.3-1-.7-.1-.5.2-1.1.7-1.2L33.2 34c1.2-.3 2.1-1 2.7-2.1l.2-.4c.3-.5.9-.6 1.4-.3.5.3.6.9.3 1.4l-.2.3c-.8 1.5-2.1 2.6-3.9 3l-20.5 5.5H13zm10.5-6.1c-.6 0-1-.4-1-1v-5.9L18.9 26c-.2-.2-.4-.4-.4-.7L17 16.8c-.1-.5.3-1.1.8-1.2.5-.1 1.1.3 1.2.8v.3h5.7c.6 0 1 .4 1 1s-.4 1-1 1h-5.3l1 5.8 3.7 2.5c.3.2.5.5.5.8v6.4c-.1.7-.5 1.1-1.1 1.1zM19 30.5c-.2 0-.4-.1-.6-.2L13.8 27c-.4-.3-.6-.9-.2-1.4.3-.4.9-.6 1.4-.2l4.6 3.3c.4.3.6.9.2 1.4-.2.3-.5.4-.8.4zm2.5-6.3c-.3 0-.5-.1-.7-.3-.4-.4-.4-1 0-1.4l2.6-2.6c.4-.4 1-.4 1.4 0 .4.4.4 1 0 1.4l-2.6 2.6c-.2.2-.4.3-.7.3zm6-6.1c-.3 0-.5-.1-.7-.3-.4-.4-.4-1 0-1.4l3.6-3.6c.4-.4 1-.4 1.4 0 .4.4.4 1 0 1.4l-3.6 3.6c-.2.2-.4.3-.7.3z"/>
</svg>
