<svg xmlns="http://www.w3.org/2000/svg" viewBox="0 0 50 50">
  <path d="M35.3 38.3c-.6 0-1-.4-1-1V35h-.7c-.6 0-1-.4-1-1s.4-1 1-1h.7V17.9h-.1c-.6 0-1-.4-1-1v-4.2c0-.6.4-1 1-1h2.2c.6 0 1 .4 1 1v4.2c0 .6-.4 1-1 1h-.1V33h.7c.6 0 1 .4 1 1s-.4 1-1 1h-.7v2.3c0 .6-.4 1-1 1zm-.1-22.4h.2v-2.2h-.2v2.2zm-5.5 22.4c-.6 0-1-.4-1-1V35H28c-.6 0-1-.4-1-1s.4-1 1-1h.7V17.9h-.1c-.6 0-1-.4-1-1v-4.2c0-.6.4-1 1-1h2.2c.6 0 1 .4 1 1v4.2c0 .6-.4 1-1 1h-.1V33h.7c.6 0 1 .4 1 1s-.4 1-1 1h-.7v2.3c0 .6-.4 1-1 1zm-.1-22.4h.2v-2.2h-.2v2.2zm-3.8 22.4h-5.4c-.6 0-1-.4-1-1v-22c0-2 1.7-3.7 3.7-3.7s3.7 1.7 3.7 3.7v22c0 .6-.4 1-1 1zm-4.4-2h3.4v-4.4h-3.4v4.4zm0-6.4h3.4v-2.3h-3.4v2.3zm0-4.3h3.4V15.3c0-1-.7-1.7-1.7-1.7s-1.7.7-1.7 1.7v10.3zm-3.1 12.7h-5.4c-.6 0-1-.4-1-1v-22c0-2 1.7-3.7 3.7-3.7s3.7 1.7 3.7 3.7v22c0 .6-.4 1-1 1zm-4.4-2h3.4v-4.4h-3.4v4.4zm0-6.4h3.4v-2.3h-3.4v2.3zm0-4.3h3.4V15.3c0-1-.7-1.7-1.7-1.7s-1.7.7-1.7 1.7v10.3z"/>
</svg>
