<svg xmlns="http://www.w3.org/2000/svg" viewBox="0 0 50 50">
  <path d="M35.5 33.5H28c-.6 0-1-.4-1-1s.4-1 1-1h5.6l-1-1.5h-5.8c-.7-.2-1.5-.4-2.2-.5v.4c0 2-1.7 3.7-3.7 3.7h-7.1c-2 0-3.7-1.7-3.7-3.7 0-1.5.8-2.7 2.1-3.3l-.1-.1c-2.1-2.3-2.5-4.3-1.1-5.8.3-.3.7-.4 1.1-.3 2.2.9 4.5 1.4 6.5 1.9.8-.4 1.5-.8 2.3-1.2.5-.2.9-.4 1.4-.7.2-.1.4-.1.6-.1 1.7.3 3.3.4 4.9.3L25 18.4c-.4-.3-.5-1-.2-1.4.3-.4 1-.5 1.4-.2L29 19v-1.4c0-.4.2-.8.6-.9.4-.2.8-.1 1.1.2 1.4 1.4 2.8 2.8 4.7 4.2.2.2.6.4.9.6 1.6 1.1 3.6 2.4 3.7 4.1 0 2.4-2.9 3.5-5.2 4l1.1 1.5c.2-.1.3-.2.5-.3l1.2-.8c.5-.3 1.1-.2 1.4.3.3.5.2 1.1-.3 1.4l-1.2.8c-.5.4-1.1.6-1.7.7-.1.1-.2.1-.3.1zm-21.8-5.4c-1 0-1.7.7-1.7 1.7s.7 1.7 1.7 1.7h7.1c1 0 1.7-.7 1.7-1.7 0-.3-.1-.6-.3-.9l-3.4-.8h-5.1zM27 28h5.5c.3-.1.6-.1.8 0 1.8-.1 4.6-1 4.6-2.1 0-.7-1.8-1.9-2.8-2.5-.4-.3-.7-.5-1-.7C33 21.8 32 20.9 31 20V21.2c0 .5-.3.9-.8 1-2.5.5-4.9.5-7.4.1-.4.2-.7.4-1.1.5-.9.4-1.7.8-2.6 1.3-.2.1-.5.1-.7.1-1.8-.4-4.1-.9-6.3-1.7-.1.4.1 1.2 1.2 2.3 4.3.9 8.8 2 13.7 3.2z"/>
</svg>
