<svg xmlns="http://www.w3.org/2000/svg" viewBox="0 0 50 50">
  <path d="M40.8 36.5H9c-.6 0-1-.4-1-1s.4-1 1-1h31.8c.6 0 1 .4 1 1s-.4 1-1 1zm.2-3c-.3 0-.6-.1-.8-.4l-1.9-2.6v1.9c0 .6-.4 1-1 1H22.7c-.6 0-1-.4-1-1v-1.9l-1.9 2.6c-.3.4-1 .5-1.4.2-.4-.3-.5-1-.2-1.4l10.6-14.4-1.8-2.4c-.3-.4-.2-1.1.2-1.4.4-.3 1.1-.2 1.4.2l1.4 1.9 1.4-1.9c.3-.4 1-.5 1.4-.2.4.3.5 1 .2 1.4l-1.8 2.4 10.6 14.4c.3.4.2 1.1-.2 1.4-.2.1-.4.2-.6.2zm-10-2.1h5.3v-3.3-.3L31 20.6v10.8zm-7.3 0H29V20.6l-5.3 7.3v3.5zm-14.3-.5c-.2 0-.4-.1-.6-.2-.4-.3-.5-1-.2-1.4l7-9.6-1.1-1.5c-.3-.4-.2-1.1.2-1.4.4-.3 1.1-.2 1.4.2l.7.9.7-.9c.3-.4 1-.5 1.4-.2.4.3.5 1 .2 1.4L18 19.7l3.7 5c.3.4.2 1.1-.2 1.4-.4.3-1.1.2-1.4-.2l-2.3-3.1v6c.6 0 1 .4 1 1s-.4 1-1 1h-5.9c-.6 0-1-.4-1-1v-.3l-.7.9c-.2.4-.5.5-.8.5zm3.5-2.1h2.9v-6l-2.9 4v2zm13.9 2c-.6 0-1-.4-1-1v-1c0-.6.4-1 1-1s1 .4 1 1v1c0 .6-.4 1-1 1z"/>
</svg>
