<svg xmlns="http://www.w3.org/2000/svg" viewBox="0 0 50 50">
  <path d="M40.7 25.3l-11-12c-.4-.4-1.1-.4-1.5 0l-11 12c-.4.4-.3 1 .1 1.4s1 .3 1.4-.1l.3-.3v8.9c0 1 .8 1.8 1.8 1.8h16.5c1 0 1.8-.8 1.8-1.8v-8.8l.2.2c.2.2.5.3.7.3.2 0 .5-.1.7-.3.4-.2.4-.9 0-1.3zm-3.6 9.8H21V24.2l8-8.7 8.1 8.8v10.8zM25 25.7v6.1c0 .6.4 1 1 1h6.1c.6 0 1-.4 1-1v-6.1c0-.6-.4-1-1-1H26c-.6 0-1 .4-1 1zm2 1h4.1v4.1H27v-4.1zm-13.2-1c.4-.4.7-1 .7-1.6 0-1.2-1-2.2-2.2-2.2-1.2 0-2.2 1-2.2 2.2 0 .7.3 1.3.8 1.7-1.1.5-1.8 1.6-1.8 2.9L9 31.1c0 .3.1.5.3.7.2.2.4.3.7.3h.3l.5 3.7c.1.5.5.9 1 .9h1.1c.5 0 .9-.4 1-.9l.5-3.7h.3c.6 0 1-.4 1-1v-2.4c0-1.3-.8-2.5-1.9-3zm-1.5-1.8c.1 0 .2.1.2.2 0 .2-.4.2-.4 0 0-.1.1-.2.2-.2zm1.4 6.2h-.5c-.2 0-.3.1-.4.2-.1.1-.2.2-.2.3 0 .1-.1.2-.1.3l-.2 1.2-.1-1.1c0-.1 0-.2-.1-.3-.1-.1-.1-.3-.3-.3-.1-.1-.2-.2-.4-.2H11l.1-1.4c0-.8.5-1.3 1.3-1.3s1.3.5 1.3 1.3v1.3z"/>
</svg>
