<svg xmlns="http://www.w3.org/2000/svg" viewBox="0 0 50 50">
  <path d="M22.9 20.4v10.4c0 .6-.4 1-1 1s-1-.4-1-1V20.4c0-.6.4-1 1-1s1 .4 1 1zm4.9-2c-.6 0-1 .4-1 1v2.7c0 .6.4 1 1 1s1-.4 1-1v-2.7c0-.6-.4-1-1-1zm12.4-2.6c0 .6-.4 1-1 1h-6v19.5c0 .1 0 .2-.1.3.3-.1.5-.2.7-.3l2.4-1.5c.5-.3 1.1-.2 1.4.3.3.5.2 1.1-.3 1.4L34.9 38c-.7.4-1.5.7-2.4.7-1 0-1.9-.3-2.5-.9l-1-.8c-.6-.5-1.6-.5-2.3 0l-1 .8c-1.2 1.1-3.1 1.1-4.4 0l-1-.9c-.3-.3-1.3-.3-2.3.2l-2.7 1.5c-.5.3-1.1.1-1.4-.4-.3-.5-.1-1.1.4-1.4l2.4-1.3V16.8h-6c-.6 0-1-.4-1-1s.4-1 1-1h6v-1.1c0-.3.1-.6.4-.8 2.5-1.9 5.2-2.1 7.8-.4 2.6-1.6 5.3-1.5 7.8.4.3.2.4.5.4.8v1.1h6c.7 0 1.1.4 1.1 1zm-9.9 19.7l.9.7v-22c-1.9-1.2-3.7-1.2-5.6.3-.4.3-.8.3-1.2 0-1.9-1.4-3.7-1.5-5.6-.3v20.6c1.1-.2 2.1 0 2.9.6l1.1.9c.5.5 1.2.5 1.8 0l1-.8c.4-.3.8-.5 1.2-.6v-5.6c0-.6.4-1 1-1s1 .4 1 1v5.5c.5.1 1.1.4 1.5.7z"/>
</svg>
