<svg xmlns="http://www.w3.org/2000/svg" viewBox="0 0 74 74">
  <path d="M72 59.3h-1.4L50.9 27.9c-.3-.4-.8-.7-1.3-.7s-1 .3-1.3.7l-3.2 5.2-11.3-18.2c-.3-.4-.8-.7-1.3-.7s-1 .3-1.3.7L3.4 59.3H2c-.8 0-1.5.7-1.5 1.5s.7 1.5 1.5 1.5h70c.8 0 1.5-.7 1.5-1.5s-.7-1.5-1.5-1.5zM32.5 18.5l6.8 10.8-2.3 2.3-3.5-3.5c-.6-.6-1.6-.6-2.1 0L28 31.6l-2.3-2.3 6.8-10.8zM7 59.3L24.1 32l2.8 2.8c.6.6 1.6.6 2.1 0l3.5-3.5 3.5 3.5c.3.3.7.4 1.1.4s.8-.2 1.1-.4L41 32l17 27.3H7zm54.5 0L46.9 35.9l2.7-4.4L67 59.3h-5.5zM47.2 19.4h10.2c3.3 0 6-2.7 6-6s-2.7-6-6-6c-1.9 0-3.6.9-4.8 2.3-.3-.1-.6-.1-.9-.1-1.7 0-3.3.9-4.1 2.3h-.4c-2.1 0-3.8 1.7-3.8 3.8s1.7 3.7 3.8 3.7zm0-4.5c.1 0 .3 0 .4.1.4.3.9.3 1.4.1.5-.2.8-.6.9-1.1.3-1.1 1.5-1.8 2.7-1.2.4.2.8.2 1.2.1.4-.1.7-.4.9-.8.5-1.1 1.6-1.8 2.7-1.8 1.7 0 3 1.4 3 3s-1.4 3-3 3H47.2c-.4 0-.8-.3-.8-.8s.3-.6.8-.6zM66 63.6H8c-.8 0-1.5.7-1.5 1.5s.7 1.5 1.5 1.5h58c.8 0 1.5-.7 1.5-1.5s-.7-1.5-1.5-1.5z"/>
</svg>
