<svg xmlns="http://www.w3.org/2000/svg" viewBox="0 0 74 74">
  <path d="M48.3 59.2H12.1c-.8 0-1.5.7-1.5 1.5s.7 1.5 1.5 1.5h36.3c.8 0 1.5-.7 1.5-1.5s-.7-1.5-1.6-1.5zm0-4.5H12.1c-.8 0-1.5.7-1.5 1.5s.7 1.5 1.5 1.5h36.3c.8 0 1.5-.7 1.5-1.5s-.7-1.5-1.6-1.5zm20.8-27.9c0-.8-.7-1.5-1.5-1.5h-5.3V5c-.1-1.7-1.1-3.2-2.5-4-.3-.4-.7-.6-1.2-.6H10.9c-3.3 0-6 2.7-6 6V72c0 .6.3 1.1.9 1.4.5.2 1.2.2 1.6-.2L9 71.7l1.7 1.4c.6.5 1.4.5 1.9 0l1.7-1.4 1.7 1.4c.6.5 1.4.5 1.9 0l1.7-1.4 1.7 1.4c.6.5 1.4.5 1.9 0l1.7-1.4 1.7 1.4c.6.5 1.4.5 1.9 0l1.7-1.4 1.7 1.4c.6.5 1.4.5 1.9 0l1.7-1.4 1.7 1.4c.6.5 1.4.5 1.9 0l1.7-1.4 1.7 1.4c.6.5 1.4.5 1.9 0l1.7-1.4 1.7 1.4c.6.5 1.4.5 2 0l1.7-1.4 1.7 1.4c.3.2.6.4 1 .4.2 0 .4 0 .6-.1.5-.2.9-.8.9-1.4V49.8h8.7c2.6 0 4.7-2 4.9-4.6V26.8h-.2zM52.5 68.7l-.2-.1c-.6-.5-1.4-.5-2 0L48.7 70 47 68.6c-.6-.5-1.4-.5-1.9 0L43.4 70l-1.7-1.4c-.6-.5-1.4-.5-1.9 0L38.2 70l-1.7-1.4c-.6-.5-1.4-.5-1.9 0L32.9 70l-1.7-1.4c-.6-.5-1.4-.5-1.9 0L27.6 70l-1.7-1.4c-.6-.5-1.4-.5-1.9 0L22.3 70l-1.7-1.4c-.6-.5-1.4-.5-1.9 0L17 70l-1.7-1.4c-.6-.5-1.4-.5-1.9 0L11.7 70 10 68.6c-.6-.5-1.4-.5-1.9 0l-.2.2V10.3h30.2c.8 0 1.5-.7 1.5-1.5s-.6-1.5-1.5-1.5H7.9v-.8c0-1.7 1.4-3 3-3h42c-.2.5-.3 1-.4 1.6v63.6zm3-63.3c0-1 .9-1.9 1.9-1.9s1.9.8 1.9 1.9v39.8c0 .6.1 1.1.4 1.6h-4.2V5.4zm8.7 41.4c-1 0-1.9-.8-1.9-1.9V28.3h3.8v16.6c0 1-.8 1.9-1.9 1.9zM50.6 31.1l-2.9-.7c-1-8-7.3-14.3-15.3-15.3l-.7-2.9c-.2-.7-.8-1.1-1.5-1.1s-1.3.5-1.5 1.1l-.7 2.9c-8 1-14.3 7.3-15.3 15.3l-2.9.7c-.7.2-1.1.8-1.1 1.5s.5 1.3 1.1 1.5l2.9.7C13.7 42.7 20 49 28 50l.7 2.9c.2.7.8 1.1 1.5 1.1s1.3-.5 1.5-1.1l.7-2.9c8-1 14.3-7.3 15.3-15.3l2.9-.7c.7-.2 1.1-.8 1.1-1.5 0-.6-.5-1.2-1.1-1.4zm-6.1-1.6L39 28.1l2.7-4.5c1.4 1.7 2.3 3.7 2.8 5.9zm-7.7 9.7l-1.4-.8.1-.4.4-.1.9 1.3zm-12.4-1.4l.4.1.1.4-1.4.8.9-1.3zm9.5-2.6c-.5.1-.9.5-1.1 1.1l-2.6 10.3-2.6-10.3c-.1-.5-.5-.9-1.1-1.1l-10.3-2.7 10.3-2.6c.5-.1.9-.5 1.1-1.1l2.6-10.3 2.6 10.3c.1.5.5.9 1.1 1.1l10.3 2.6-10.3 2.7zM23.6 26l1.4.8-.1.4-.4.1-.9-1.3zM36 27.3l-.4-.1-.1-.4 1.4-.8-.9 1.3zm3.2-6.3l-4.5 2.7-1.4-5.5c2.1.5 4.2 1.5 5.9 2.8zm-13.4 2.8L21.2 21c1.7-1.3 3.8-2.3 6-2.8l-1.4 5.6zm-7.1-.2l2.7 4.5-5.5 1.4c.5-2.2 1.4-4.2 2.8-5.9zm-2.8 12l5.5 1.4-2.7 4.5c-1.4-1.7-2.3-3.7-2.8-5.9zm5.3 8.5l4.5-2.7 1.4 5.5c-2.1-.5-4.2-1.5-5.9-2.8zm13.4-2.7l4.5 2.7c-1.7 1.3-3.8 2.3-6 2.8l1.5-5.5zm7.1.1L39 37l5.5-1.4c-.5 2.2-1.4 4.2-2.8 5.9z"/>
</svg>
