<svg xmlns="http://www.w3.org/2000/svg" viewBox="0 0 74 74">
  <path d="M72 14H52.5c-.8 0-1.5.7-1.5 1.5s.7 1.5 1.5 1.5h18v49H8.8c-2.9 0-5.3-2.4-5.3-5.3s2.4-5.3 5.3-5.3 5.3 2.4 5.3 5.3c0 .8.7 1.5 1.5 1.5s1.5-.7 1.5-1.5V17h13.5c.8 0 1.5-.7 1.5-1.5s-.7-1.5-1.6-1.5H16.9c-.7-3.8-4.1-6.8-8.1-6.8-4.6 0-8.3 3.7-8.3 8.3v45.2c0 4.6 3.7 8.3 8.3 8.3H72c.8 0 1.5-.7 1.5-1.5v-52c0-.8-.7-1.5-1.5-1.5zM3.5 15.5c0-2.9 2.4-5.3 5.3-5.3s5.3 2.4 5.3 5.3v38.8c-1.4-1.2-3.3-1.9-5.3-1.9s-3.8.7-5.3 1.9V15.5zm28.2 27.8c1 1.6 2.5 3 4.1 3.9.2.1.5.2.7.2.5 0 1-.3 1.3-.8.4-.7.1-1.6-.6-2-1.2-.7-2.3-1.7-3.1-2.9-.4-.7-1.4-.9-2.1-.5-.6.5-.8 1.4-.3 2.1zm9.8 2.4h-.2c-.8 0-1.5.6-1.5 1.5 0 .8.6 1.5 1.5 1.5h5c.8 0 1.5-.7 1.5-1.5s-.7-1.5-1.5-1.5h-4.8zm9.8 0c-.8 0-1.5.7-1.5 1.5s.7 1.5 1.5 1.5h5c.8 0 1.5-.7 1.5-1.5s-.7-1.5-1.5-1.5h-5zm15 3c.8 0 1.5-.7 1.5-1.5s-.7-1.5-1.5-1.5h-5c-.8 0-1.5.7-1.5 1.5s.7 1.5 1.5 1.5h5zM29.9 31.5c-.8.3-1.1 1.2-.8 2 .5 1.1.7 2.3.7 3.5v.9c.1.8.7 1.4 1.5 1.4h.1c.8-.1 1.4-.8 1.4-1.6V37c0-1.6-.3-3.2-1-4.7-.3-.8-1.1-1.1-1.9-.8zm-3.4-1.3c.3.2.6.3.9.3.4 0 .9-.2 1.2-.6.5-.7.4-1.6-.3-2.1-1.5-1.2-3.3-2-5.2-2.3-.8-.1-1.6.4-1.7 1.2s.4 1.6 1.2 1.7c1.5.3 2.8.9 3.9 1.8zm-3 27.5h9c.6 0 1.1-.3 1.4-.9.2-.5.2-1.1-.2-1.6l-4.5-5.6c-.6-.7-1.8-.7-2.3 0l-4.5 5.6c-.4.5-.4 1.1-.2 1.6.1.6.7.9 1.3.9zm4.5-4.8l1.4 1.7h-2.8l1.4-1.7zM58.7 41c.3-.5.2-1.1-.2-1.6L54 33.8c-.6-.7-1.8-.7-2.3 0l-4.5 5.6c-.4.5-.4 1.1-.2 1.6s.8.9 1.4.9h9c.5 0 1-.3 1.3-.9zm-7.3-2.1l1.4-1.7 1.4 1.7h-2.8zm-9.9-9.4c.5 0 1-.3 1.3-.7 1.2-1.9 7-11.5 7-15.5 0-4.6-3.7-8.3-8.3-8.3s-8.3 3.7-8.3 8.3c0 4 5.8 13.6 7 15.5.3.4.8.7 1.3.7zm0-21.5c2.9 0 5.3 2.4 5.3 5.3 0 2-2.9 7.6-5.3 11.8-2.4-4.1-5.3-9.7-5.3-11.8 0-2.9 2.4-5.3 5.3-5.3zm3.8 5.3c0-2.1-1.7-3.8-3.8-3.8s-3.8 1.7-3.8 3.8 1.7 3.8 3.8 3.8 3.8-1.7 3.8-3.8zm-4.5 0c0-.4.3-.8.8-.8s.8.3.8.8-.5.7-.9.7-.7-.3-.7-.7zM6.5 22c-.8 0-1.5.6-1.5 1.5v11.3c0 .8.7 1.5 1.5 1.5S8 35.6 8 34.7V23.5c0-.9-.7-1.5-1.5-1.5zm-.3-3.4c-.1 0-.2 0-.3.1-.1 0-.2.1-.3.1-.1 0-.2.1-.2.2-.2.3-.4.7-.4 1.1v.3c0 .1.1.2.1.3 0 .1.1.2.1.3.1.1.1.2.2.2.3.3.7.4 1.1.4s.8-.2 1.1-.4c.1-.1.1-.2.2-.2 0-.1.1-.2.1-.3 0-.1.1-.2.1-.3v-.3c0-.4-.2-.8-.4-1.1-.4-.3-.9-.5-1.4-.4zM8.8 57C6.7 57 5 58.6 5 60.7s1.7 3.8 3.8 3.8 3.8-1.7 3.8-3.8S10.8 57 8.8 57zm0 4.5c-.4 0-.8-.3-.8-.8s.4-.7.8-.7.8.3.8.8-.4.7-.8.7z"/>
</svg>
