<svg xmlns="http://www.w3.org/2000/svg" viewBox="0 0 74 74">
  <path d="M65.1 5.5H8.9c-.8 0-1.5.7-1.5 1.5v60c0 .8.7 1.5 1.5 1.5H65c.8 0 1.5-.7 1.5-1.5V7c.1-.8-.6-1.5-1.4-1.5zm-1.5 60H10.4v-57h53.1l.1 57zM13.7 53h46.7c.8 0 1.5-.7 1.5-1.5V11.8c0-.8-.7-1.5-1.5-1.5H13.7c-.8 0-1.5.7-1.5 1.5v39.7c0 .8.6 1.5 1.5 1.5zm1.5-3v-5l13-13L39 42.8c.6.6 1.5.6 2.1 0l6.3-6.3L58.9 48v2H15.2zm43.6-36.7v30.4L48.4 33.2c-.6-.6-1.5-.6-2.1 0L40 39.5 29.2 28.7c-.6-.6-1.5-.6-2.1 0l-12 12V13.3h43.7zM13.7 57.6h27.2c.8 0 1.5-.7 1.5-1.5s-.7-1.5-1.5-1.5H13.7c-.8 0-1.5.7-1.5 1.5s.6 1.5 1.5 1.5zm0 4.7h15.9c.8 0 1.5-.7 1.5-1.5s-.7-1.5-1.5-1.5H13.7c-.8 0-1.5.7-1.5 1.5s.6 1.5 1.5 1.5zm12.5-26.6l-1 1c-.6.6-.6 1.5 0 2.1.3.3.7.4 1.1.4s.8-.1 1.1-.4l1-1c.6-.6.6-1.5 0-2.1-.7-.6-1.7-.6-2.2 0zm-3.6 3.5l-2 2c-.6.6-.6 1.5 0 2.1.3.3.7.4 1.1.4s.8-.1 1.1-.4l2-2c.6-.6.6-1.5 0-2.1s-1.6-.6-2.2 0zm17.2-10.7c2.5 0 4.5-2 4.5-4.5s-2-4.5-4.5-4.5-4.5 2-4.5 4.5 2 4.5 4.5 4.5zm0-6c.8 0 1.5.7 1.5 1.5s-.7 1.5-1.5 1.5-1.5-.7-1.5-1.5.7-1.5 1.5-1.5zm0-3.6c.8 0 1.5-.7 1.5-1.5V16c0-.8-.7-1.5-1.5-1.5s-1.5.7-1.5 1.5v1.4c0 .8.7 1.5 1.5 1.5zm-5.7 1.5c.3.3.7.4 1.1.4.4 0 .8-.1 1.1-.4.6-.6.6-1.5 0-2.1l-1-1c-.6-.6-1.5-.6-2.1 0s-.6 1.5 0 2.1l.9 1zm-2.3 5.1h1.4c.8 0 1.5-.7 1.5-1.5s-.7-1.5-1.5-1.5h-1.4c-.8 0-1.5.7-1.5 1.5s.7 1.5 1.5 1.5zm2.3 2.1l-1 1c-.6.6-.6 1.5 0 2.1.3.3.7.4 1.1.4.4 0 .8-.1 1.1-.4l1-1c.6-.6.6-1.5 0-2.1s-1.6-.6-2.2 0zm5.7 1.5c-.8 0-1.5.7-1.5 1.5V32c0 .8.7 1.5 1.5 1.5s1.5-.7 1.5-1.5v-1.4c0-.9-.7-1.5-1.5-1.5zm5.7-1.5c-.6-.6-1.5-.6-2.1 0s-.6 1.5 0 2.1l1 1c.3.3.7.4 1.1.4s.8-.1 1.1-.4c.6-.6.6-1.5 0-2.1l-1.1-1zm-.6-3.6c0 .8.7 1.5 1.5 1.5h1.4c.8 0 1.5-.7 1.5-1.5s-.7-1.5-1.5-1.5h-1.4c-.8 0-1.5.7-1.5 1.5zm-.4-3.2c.4 0 .8-.1 1.1-.4l1-1c.6-.6.6-1.5 0-2.1s-1.5-.6-2.1 0l-1 1c-.6.6-.6 1.5 0 2.1.2.3.6.4 1 .4z"/>
</svg>
