<svg xmlns="http://www.w3.org/2000/svg" viewBox="0 0 74 74">
  <path d="M72 28.6h-.8V14.1c0-2.7-2.2-4.9-4.9-4.9H5.4C2.7 9.2.5 11.4.5 14.1v45.7c0 2.7 2.2 4.9 4.9 4.9h60.8c2.7 0 4.9-2.2 4.9-4.9V45.4h.9c.8 0 1.5-.7 1.5-1.5V30.1c0-.8-.7-1.5-1.5-1.5zM55.9 42.4c-3 0-5.4-2.4-5.4-5.4s2.4-5.4 5.4-5.4h14.6v10.7H55.9v.1zm12.3 17.5c0 1.1-.9 1.9-1.9 1.9H5.4c-1.1 0-1.9-.9-1.9-1.9V14.1c0-1.1.9-1.9 1.9-1.9h60.8c1.1 0 1.9.9 1.9 1.9v14.5H55.9c-4.6 0-8.4 3.7-8.4 8.4s3.8 8.4 8.4 8.4h12.3v14.5zm-4.2.3h1.1c.8 0 1.5-.7 1.5-1.5s-.7-1.5-1.5-1.5H64c-.8 0-1.5.7-1.5 1.5s.6 1.5 1.5 1.5zM6.6 47.5c.8 0 1.5-.7 1.5-1.5v-5c0-.8-.7-1.5-1.5-1.5s-1.5.6-1.5 1.5v5c0 .8.7 1.5 1.5 1.5zm0-13c.8 0 1.5-.7 1.5-1.5v-5c0-.8-.7-1.5-1.5-1.5s-1.5.6-1.5 1.5v5c0 .8.7 1.5 1.5 1.5zm47.8-17.7h5c.8 0 1.5-.7 1.5-1.5s-.7-1.5-1.5-1.5h-5c-.8 0-1.5.7-1.5 1.5s.7 1.5 1.5 1.5zm-13 0h5c.8 0 1.5-.7 1.5-1.5s-.7-1.5-1.5-1.5h-5c-.8 0-1.5.7-1.5 1.5s.7 1.5 1.5 1.5zM8.1 57.3V54c0-.8-.7-1.5-1.5-1.5s-1.5.6-1.5 1.5v3.6c0 1.1.7 2.1 1.7 2.5.2.1.3.1.5.1.6 0 1.2-.4 1.4-1 .3-.7 0-1.5-.6-1.9zM6.9 13.9c-1.1.3-1.9 1.4-1.9 2.5V20c0 .8.7 1.5 1.5 1.5S8 20.8 8 20v-3.3c.6-.3 1-1.1.7-1.8-.1-.8-1-1.2-1.8-1zm13.4 43.3h-5c-.8 0-1.5.7-1.5 1.5s.7 1.5 1.5 1.5h5c.8 0 1.5-.7 1.5-1.5s-.6-1.5-1.5-1.5zm32.5 1.5c0 .8.7 1.5 1.5 1.5h5c.8 0 1.5-.7 1.5-1.5s-.7-1.5-1.5-1.5h-5c-.8 0-1.5.7-1.5 1.5zM33.4 13.8h-5c-.8 0-1.5.7-1.5 1.5s.7 1.5 1.5 1.5h5c.8 0 1.5-.7 1.5-1.5s-.7-1.5-1.5-1.5zm12.9 43.4h-5c-.8 0-1.5.7-1.5 1.5s.7 1.5 1.5 1.5h5c.8 0 1.5-.7 1.5-1.5s-.6-1.5-1.5-1.5zM20.4 13.8h-5c-.8 0-1.5.7-1.5 1.5s.7 1.5 1.5 1.5h5c.8 0 1.5-.7 1.5-1.5s-.7-1.5-1.5-1.5zm12.9 43.4h-5c-.8 0-1.5.7-1.5 1.5s.7 1.5 1.5 1.5h5c.8 0 1.5-.7 1.5-1.5s-.6-1.5-1.5-1.5zM64 16.8h1.1c.8 0 1.5-.7 1.5-1.5s-.7-1.5-1.5-1.5H64c-.8 0-1.5.7-1.5 1.5s.6 1.5 1.5 1.5zm-8.1 16.4c-2.1 0-3.8 1.7-3.8 3.8s1.7 3.8 3.8 3.8 3.8-1.7 3.8-3.8-1.7-3.8-3.8-3.8zm0 4.6c-.4 0-.8-.4-.8-.8s.4-.8.8-.8.8.4.8.8-.3.8-.8.8z"/>
</svg>
