<svg xmlns="http://www.w3.org/2000/svg" viewBox="0 0 74 74">
  <path d="M72 70.5h-5.6v-9.2h.6c1.9 0 3.4-1.5 3.4-3.4V55c1.2-.5 2-1.7 2-3.1V50c0-3-1.1-5.9-3-8.1V36c0-1.5-.9-2.7-2.2-3.2 1.3-.8 2.2-2.2 2.2-3.8v-5.6h.6c1.9 0 3.4-1.5 3.4-3.4s-1.5-3.4-3.4-3.4h-1c-1.6-3.7-5.2-6-9.3-6h-4.5c-4.8 0-9 3.4-10 8.2l-.6 3V29c0 1.6.9 3.1 2.2 3.8-1.3.5-2.2 1.7-2.2 3.2v5.9c-1.9 2.3-3 5.1-3 8.1v1.9c0 1.3.8 2.5 2 3.1v2.9c0 1.9 1.5 3.4 3.4 3.4h.6v9.2H24.9V50.9h5.4c.3 0 .5-.1.8-.2l7.7-4.5c.5-.3.7-.8.7-1.3s-.3-1-.7-1.3l-7.7-4.5c-.2-.1-.5-.2-.8-.2h-5.4v-6h13.2c.8 0 1.5-.7 1.5-1.5V8.8c0-.8-.7-1.5-1.5-1.5H24.9V5.4c0-1.3-.5-2.5-1.4-3.4C22.6 1 21.3.5 20 .5c-2.7 0-4.9 2.2-4.9 4.9v1.9H2C1.1 7.3.5 8 .5 8.8v22.6c0 .8.7 1.5 1.5 1.5h13.2v6H2c-.6 0-1.1.3-1.4.9-.2.5-.2 1.2.2 1.6l3 3.5-3 3.5c-.4.4-.5 1.1-.2 1.6s.8.9 1.4.9h13.2v19.6H2c-.8 0-1.5.7-1.5 1.5s.7 1.5 1.5 1.5h70c.8 0 1.5-.7 1.5-1.5s-.6-1.5-1.5-1.5zM47.7 42.7v9.8h-2.6c-.3 0-.6-.3-.6-.6V50c-.1-2.8 1.1-5.4 3.2-7.3zm-.3-17.8v-1.6h1.3v1.3c-.4 0-.9.1-1.3.3zm1.3 2.5v3.2c-.7-.2-1.3-.8-1.3-1.6s.6-1.5 1.3-1.6zm9.6-8.1h11.8c.3 0 .6.3.6.6s-.3.6-.6.6H57.3l.5-.9c0-.2.3-.3.5-.3zm-7.9 40h13.2v11.2h-5.2v-5.8l2.7-1.8-1.5-2.3-3.9 2.6v7.3h-5.2l-.1-11.2zm4-16.6c1.6.9 3.6.9 5.3 0v13.9h-5.3V42.7zm2.7-2.1c-1.1 0-2.1-.6-2.5-1.7l.5-1.6h4l.5 1.6c-.5 1-1.4 1.7-2.5 1.7zm5.6-8.7c0 1.4-1.2 2.6-2.6 2.6h-6c-1.4 0-2.6-1.2-2.6-2.6v-8.6h11.2v8.6zM52.3 37l-.3.7c-1.6.3-3.2.9-4.6 1.8V36c0-.3.3-.6.6-.6h1.8c.7.7 1.5 1.3 2.5 1.6zm-1.9 19.6V41c.4-.2.8-.3 1.3-.4v16h-1.3zm12 0v-16c.4.1.8.3 1.3.4v15.6h-1.3zM61.8 37c.9-.3 1.7-.9 2.4-1.7H66c.3 0 .6.3.6.6v3.5c-1.4-.9-2.9-1.5-4.6-1.8l-.2-.6zm-3.5-20.4c-1.3 0-2.4.7-3 1.9l-1.1 2.1h-6.5l.3-1.3c.7-3.4 3.7-5.9 7.3-5.9h4.5c2.5 0 4.7 1.2 6.1 3.2h-7.6zm8.1 26.1c2.1 1.8 3.3 4.4 3.3 7.3v1.9c0 .3-.3.6-.6.6h-2.6v-9.8h-.1zm1.3 12.6v2.6c0 .3-.3.6-.6.6h-.6v-3.3h1.2v.1zm-2.3-30.7v-1.3h1.3v1.6c-.4-.2-.8-.3-1.3-.3zm1.3 4.3c0 .8-.5 1.4-1.3 1.6v-3.2c.7.2 1.3.9 1.3 1.6zm-19 26.4v3.3h-.6c-.3 0-.6-.3-.6-.6v-2.6h1.2v-.1zM18.1 5.4c0-1 .8-1.9 1.9-1.9.5 0 1 .2 1.3.6.4.4.6.8.6 1.3v1.9h-3.8V5.4zM3.5 10.3h33.1v19.6H3.5V10.3zm14.6 22.6h3.8v6h-3.8v-6zM7 43.9l-1.7-2H30l5.2 3-5.2 3H5.2l1.8-2c.5-.6.5-1.4 0-2zm11.1 26.6V50.9h3.8v19.6h-3.8zm-3-55.6h9.2c.8 0 1.5-.7 1.5-1.5s-.7-1.5-1.5-1.5h-9.2c-.8 0-1.5.7-1.5 1.5s.7 1.5 1.5 1.5zm0 5.2h18c.8 0 1.5-.7 1.5-1.5s-.7-1.5-1.5-1.5h-18c-.8 0-1.5.7-1.5 1.5s.7 1.5 1.5 1.5zm0 4h18c.8 0 1.5-.7 1.5-1.5s-.7-1.5-1.5-1.5h-18c-.8 0-1.5.7-1.5 1.5 0 .9.7 1.5 1.5 1.5zm19.5 2.6c0-.8-.7-1.5-1.5-1.5h-18c-.8 0-1.5.7-1.5 1.5s.7 1.5 1.5 1.5h18c.8 0 1.5-.7 1.5-1.5zM8.2 23c.8 0 1.5-.7 1.5-1.5v-6.9c0-.8-.7-1.5-1.5-1.5s-1.5.7-1.5 1.5v6.9c0 .8.6 1.5 1.5 1.5zm0 .9c-.8 0-1.5.7-1.5 1.5s.7 1.5 1.5 1.5 1.5-.7 1.5-1.5c0-.9-.7-1.5-1.5-1.5zm48.9 9.4c1.8 0 3.3-1 4.1-2.6l.3-.5L59 29l-.3.5c-.3.6-1 1-1.7 1s-1.3-.4-1.7-1l-.2-.5-2.5 1.2.3.5c.8 1.6 2.4 2.6 4.2 2.6z"/>
</svg>
