<svg xmlns="http://www.w3.org/2000/svg" viewBox="0 0 74 74">
  <path d="M33.6 40H15.5c-.8 0-1.5.7-1.5 1.5v15.8c0 5.8 4.7 10.5 10.5 10.5S35 63.1 35 57.3V41.5c.1-.8-.6-1.5-1.4-1.5zm-1.5 3v3.8H28c-.6-1.3-1.9-2.3-3.4-2.3s-2.9.9-3.4 2.3H17V43h15.1zm-6.8 5.3c0 .4-.3.8-.8.8s-.8-.3-.8-.8.3-.8.8-.8.8.4.8.8zm-.7 16.6c-4.2 0-7.5-3.4-7.5-7.5v-7.5h4.1c.6 1.3 1.9 2.3 3.4 2.3s2.9-.9 3.4-2.3h4.1v7.5c0 4.1-3.4 7.5-7.5 7.5zM58.5 40H40.4c-.8 0-1.5.7-1.5 1.5v15.8c0 5.8 4.7 10.5 10.5 10.5S60 63.1 60 57.3V41.5c0-.8-.7-1.5-1.5-1.5zM57 43v3.8h-4.1c-.6-1.3-1.9-2.3-3.4-2.3s-2.9.9-3.4 2.3H42V43h15zm-6.8 5.3c0 .4-.3.8-.8.8s-.8-.3-.8-.8.3-.8.8-.8.8.4.8.8zm-.8 16.6c-4.2 0-7.5-3.4-7.5-7.5v-7.5H46c.6 1.3 1.9 2.3 3.4 2.3s2.9-.9 3.4-2.3H57v7.5c0 4.1-3.4 7.5-7.6 7.5zm20.8-35h-4.6v-9.4h1.2c1.3 0 2.5-.5 3.3-1.5.8-.9 1.3-2.2 1.1-3.4-.2-2.2-.9-4.3-2.1-6.2-1.7-2.7-4.7-4.4-8-4.4h-3.4v-.7c0-2.1-1.7-3.8-3.8-3.8h-4.5c-2.1 0-3.8 1.7-3.8 3.8V5H28.3v-.7c0-2.1-1.7-3.8-3.8-3.8H20c-2.1 0-3.8 1.7-3.8 3.8V5h-3.4c-1.6 0-3.2.4-4.6 1.2C7 6.9 5.8 8 4.9 9.4c-1.2 1.9-1.9 4-2.1 6.2-.1 1.2.3 2.5 1.1 3.4.8.9 2.1 1.5 3.3 1.5h1.2v9.4H3.8c-1.2 0-2.2 1-2.2 2.2v30.3c0 1.2 1 2.2 2.2 2.2h4.6c.2 5 4.3 9 9.4 9h38.4c5.1 0 9.2-4 9.4-9h4.6c1.2 0 2.2-1 2.2-2.2V32c0-1.2-1-2.1-2.2-2.1zm-4.6 10.9h3.8v12.8h-3.8V40.8zm3.8-7.9v4.9h-3.8v-4.9h3.8zM48.7 4.3c0-.4.3-.8.8-.8H54c.4 0 .8.3.8.8V5h-6l-.1-.7zm-29.4 0c0-.4.3-.8.8-.8h4.5c.4 0 .8.3.8.8V5h-6l-.1-.7zM6.1 17c-.3-.3-.4-.7-.4-1.1.2-1.7.7-3.4 1.7-4.9.6-.9 1.4-1.7 2.4-2.2.9-.5 2-.8 3.1-.8h48.2c2.2 0 4.3 1.1 5.5 3 .9 1.5 1.5 3.1 1.7 4.9 0 .4-.1.8-.4 1.1-.3.3-.7.5-1.1.5H56.6v-3c0-.8-.7-1.5-1.5-1.5h-6.8c-.8 0-1.5.7-1.5 1.5v3H27.2v-3c0-.8-.7-1.5-1.5-1.5h-6.8c-.8 0-1.5.7-1.5 1.5v3H7.2c-.4-.1-.8-.2-1.1-.5zm43.7-1.1h3.8v6.4c0 1-.8 1.9-1.9 1.9-1 0-1.9-.8-1.9-1.9v-6.4zm-29.4 0h3.8v6.4c0 1-.8 1.9-1.9 1.9s-1.9-.8-1.9-1.9v-6.4zM4.6 40.8h3.8v12.8H4.6V40.8zm3.8-7.9v4.9H4.6v-4.9h3.8zM4.6 56.6h3.8v4.9H4.6v-4.9zm58 7.5c0 3.5-2.9 6.4-6.4 6.4H17.8c-3.5 0-6.4-2.9-6.4-6.4V20.4h6v1.9c0 2.7 2.2 4.9 4.9 4.9s4.9-2.2 4.9-4.9v-1.9h19.6v1.9c0 2.7 2.2 4.9 4.9 4.9s4.9-2.2 4.9-4.9v-1.9h6v43.7zm3-2.6v-4.9h3.8v4.9h-3.8z"/>
</svg>
