<svg xmlns="http://www.w3.org/2000/svg" viewBox="0 0 74 74">
  <path d="M41 48.7h7.9c5.2 0 9.4-4.2 9.4-9.4s-4.2-9.4-9.4-9.4h-3.4C30.1 29.9 17.6 17.4 17.6 2c0-.8-.7-1.5-1.5-1.5s-1.5.7-1.5 1.5c0 17 13.8 30.9 30.9 30.9h3.4c3.5 0 6.4 2.9 6.4 6.4s-2.9 6.4-6.4 6.4H41c-14.5 0-26.3 11.8-26.3 26.3 0 .8.7 1.5 1.5 1.5s1.5-.7 1.5-1.5C17.6 59.1 28.1 48.7 41 48.7zm7.9-32.4h-3.4c-7.9 0-14.3-6.4-14.3-14.3 0-.8-.7-1.5-1.5-1.5s-1.5.7-1.5 1.5c0 9.5 7.8 17.3 17.3 17.3h3.4c11 0 20 9 20 20s-9 20-20 20H41c-7.1 0-12.8 5.7-12.8 12.8 0 .8.7 1.5 1.5 1.5s1.5-.7 1.5-1.5c0-5.4 4.4-9.8 9.8-9.8h7.9c12.7 0 23-10.3 23-23-.1-12.7-10.4-23-23-23zm-8.2 9c.5.3 1.2.8 2.5.8s2-.5 2.5-.8c.4-.2.5-.3.9-.3.8 0 1.5-.7 1.5-1.5s-.7-1.5-1.5-1.5c-1.3 0-2 .5-2.5.8-.4.2-.5.3-.9.3s-.5-.1-.9-.3c-.5-.3-1.2-.8-2.5-.8-.8 0-1.5.7-1.5 1.5S39 25 39.8 25c.4 0 .5 0 .9.3zm16.1 27.9c1.3 0 2-.5 2.5-.8.4-.2.5-.3.9-.3.8 0 1.5-.7 1.5-1.5S61 49 60.1 49c-1.3 0-2 .5-2.5.8-.4.2-.5.3-.9.3s-.5-.1-.9-.3c-.5-.3-1.2-.8-2.5-.8-.8 0-1.5.7-1.5 1.5s.7 1.5 1.5 1.5c.4 0 .5.1.9.3.5.4 1.3.9 2.6.9zm-4.6.4c-1.3 0-2 .5-2.5.8-.4.2-.5.3-.9.3s-.5-.1-.9-.3c-.5-.3-1.2-.8-2.5-.8-.8 0-1.5.7-1.5 1.5s.7 1.5 1.5 1.5c.4 0 .5.1.9.3.5.3 1.2.8 2.5.8s2-.5 2.5-.8c.4-.2.5-.3.9-.3.8 0 1.5-.7 1.5-1.5s-.6-1.5-1.5-1.5zm5.7-29.4c-1.3 0-2 .5-2.5.8-.4.2-.5.3-.9.3s-.5 0-.9-.3c-.5-.3-1.2-.8-2.5-.8-.8 0-1.5.7-1.5 1.5s.7 1.5 1.5 1.5c.4 0 .5.1.9.3.5.3 1.2.8 2.5.8s2-.5 2.5-.8c.4-.2.5-.3.9-.3.8 0 1.5-.7 1.5-1.5s-.7-1.5-1.5-1.5zM22.9 43c.8 0 1.5-.7 1.5-1.5v-1.9h3c.5 0 1-.3 1.3-.7s.3-1 .1-1.5l-4.5-9c-.3-.5-.8-.8-1.3-.8s-1.1.3-1.3.8l-4.5 9c-.2.5-.2 1 .1 1.5.3.4.8.7 1.3.7h3v1.9c-.2.8.5 1.5 1.3 1.5zm0-10.5l2.1 4.2h-4.2l2.1-4.2zM8.2 37.4c.8 0 1.5-.7 1.5-1.5V34h3c.5 0 1-.3 1.3-.7s.3-1 .1-1.5l-4.5-9c-.3-.5-.8-.8-1.4-.8s-1.1.3-1.3.8l-4.5 9c-.2.5-.2 1 .1 1.5s.7.7 1.2.7h3v1.9c0 .8.7 1.5 1.5 1.5zm0-10.6l2.1 4.2H6.1l2.1-4.2zM48 12.2c.7.5 1.6.4 2.1-.3l5.6-7.4 5.6 7.4c.3.4.7.6 1.2.6.3 0 .6-.1.9-.3.7-.5.8-1.4.3-2.1l-2.1-2.8 2.1-2.7 5.6 7.4c.3.4.7.6 1.2.6.3 0 .6-.1.9-.3.7-.5.8-1.4.3-2.1l-6.8-9c-.6-.8-1.8-.8-2.4 0l-2.8 3.7-2.8-3.6c-.6-.8-1.8-.8-2.4 0l-6.8 9c-.5.4-.4 1.4.3 1.9zM22.9 8c1.3 0 2.5-.6 3.4-1.7.5-.6.4-1.6-.2-2.1s-1.6-.4-2.1.2c-.6.8-1.6.8-2.2 0-.5-.6-1.5-.7-2.1-.2s-.7 1.5-.2 2.1c.9 1.1 2.1 1.7 3.4 1.7zm2.3 4.3c-.5-.6-1.5-.7-2.1-.2s-.7 1.5-.2 2.1c.9 1.1 2.1 1.7 3.4 1.7s2.5-.6 3.4-1.7c.5-.6.4-1.6-.2-2.1s-1.6-.4-2.1.2c-.6.8-1.6.8-2.2 0zm3.4 51.6c.5-.6.4-1.6-.2-2.1s-1.6-.4-2.1.2c-.6.8-1.6.8-2.2 0-.5-.6-1.5-.7-2.1-.2s-.7 1.5-.2 2.1c.9 1.1 2.1 1.7 3.4 1.7 1.2 0 2.5-.6 3.4-1.7zm2.2-7.5c-.6.8-1.6.8-2.2 0-.5-.6-1.5-.7-2.1-.2s-.7 1.5-.2 2.1c.9 1.1 2.1 1.7 3.4 1.7s2.5-.6 3.4-1.7c.5-.6.4-1.6-.2-2.1-.7-.6-1.6-.5-2.1.2zm-13.6-5.5c.5 0 1-.3 1.3-.7s.3-1 .1-1.5l-4.5-9c-.3-.5-.8-.8-1.3-.8s-1.1.3-1.3.8l-4.5 9c-.2.5-.2 1 .1 1.5.3.4.8.7 1.3.7h3v1.9c0 .8.7 1.5 1.5 1.5s1.5-.7 1.5-1.5v-1.9h2.8zm-4.5-7.2l2.1 4.2h-4.2l2.1-4.2z"/>
</svg>
