<svg xmlns="http://www.w3.org/2000/svg" viewBox="0 0 74 74">
  <path d="M67.5 45.5l-2.9-23.2c-.1-.8-.7-1.3-1.5-1.3h-3.3v-2.8h1.4c.8 0 1.5-.7 1.5-1.5V7c0-.8-.7-1.5-1.5-1.5H47.6c-.8 0-1.5.7-1.5 1.5v9.7c0 .8.7 1.5 1.5 1.5H49V21h-6.2c-.8 0-1.5.7-1.5 1.5v1.4h-.9v-1.4c0-.8-.7-1.5-1.5-1.5H35c-.8 0-1.5.7-1.5 1.5v1.4h-.9v-1.4c0-.8-.7-1.5-1.5-1.5H25v-2.8h1.4c.8 0 1.5-.7 1.5-1.5V7c0-.8-.7-1.5-1.5-1.5H12.8c-.8 0-1.5.7-1.5 1.5v9.7c0 .8.7 1.5 1.5 1.5h1.4V21h-3.3c-.8 0-1.4.6-1.5 1.3L6.5 45.5c-.1.4.1.9.4 1.2.2.3.6.5 1.1.5h3L8.4 60.9V67c0 .8.7 1.5 1.5 1.5h19.4c.8 0 1.5-.7 1.5-1.5v-6.1l-2.6-13.7h3c.8 0 1.5-.7 1.5-1.5v-5.3h.9v3.3c0 1.9 1.5 3.4 3.4 3.4s3.4-1.5 3.4-3.4v-3.3h.9v5.3c0 .8.7 1.5 1.5 1.5h3l-2.6 13.7V67c0 .8.7 1.5 1.5 1.5h19.4c.8 0 1.5-.7 1.5-1.5v-6.1L63 47.2h3c.4 0 .8-.2 1.1-.5.3-.3.5-.7.4-1.2zM49.1 15.2v-2.8h10.5v2.8H49.1zm10.6-6.7v.9H49.1v-.9h10.6zM52 18.2h4.7V21H52v-2.8zm-37.7-3v-2.8h10.5v2.8H14.3zm10.6-6.7v.9H14.3v-.9h10.6zm-7.7 9.7H22V21h-4.7l-.1-2.8zm10.6 47.3H11.4v-2.8h16.4v2.8zm-.3-5.8H11.7L14 47.2h11.1l2.4 12.5zm2.2-15.5h-20L12.2 24h17.4v20.2h.1zm7.7-.4c0 .2-.2.4-.4.4s-.4-.2-.4-.4v-3.3h.9l-.1 3.3zm-4.7-6.4V26.9h8.6v10.5h-8.6zm29.9 28.1H46.2v-2.8h16.4v2.8zm-.3-5.8H46.5l2.3-12.5h11.1l2.4 12.5zm-1.1-15.5H44.3V24h17.4l2.5 20.2h-3zM38.9 27.8H35c-.8 0-1.5.7-1.5 1.5v5.8c0 .8.7 1.5 1.5 1.5h3.9c.8 0 1.5-.7 1.5-1.5v-5.8c0-.9-.6-1.5-1.5-1.5zm-1.5 5.8h-.9v-2.8h.9v2.8z"/>
</svg>
