<svg xmlns="http://www.w3.org/2000/svg" viewBox="0 0 22 30">
  <path d="M20.4 16.7c-.6-.3-1.2-.3-1.7-.2-.3-.4-.8-.8-1.5-1-.7-.2-1.3-.1-1.8.1-.4-.5-.9-.9-1.7-1h-.8V8.5c0-1.8-1.2-3-3-3s-3 1.2-3 3V18l-.5-.5c-1.7-1.4-4.8-1.2-6.2.4-.4.4-.3 1 .1 1.4 0 0 2.3 2.2 3.8 4.7 1.6 2.7 3.1 4.2 3.2 4.3l.1.1.1.1c.3.1 2.5 1.1 5.9 1.1 3.5 0 5.8-1.1 5.9-1.1h.1c.1 0 .1-.1.2-.1l.1-.1c0-.1.1-.1.1-.2 0 0 0-.1.1-.1v-.1c.2-.7 1.8-7.3 1.9-8 .4-1.5-.2-2.7-1.4-3.2zM8.6 26.6c-.4-.4-1.5-1.7-2.8-3.8-1.1-1.7-2.4-3.3-3.3-4.2.9-.3 2-.2 2.6.3L7.2 21c.2.3.5.5.8.5.3 0 .5-.1.7-.3.3-.3.4-.7.3-1V8.5c0-.5.2-1 1-1 .7 0 1 .3 1 1v7.6c0 .5.5.9 1 .9.3 0 .5-.1.7-.3 0 0 .3-.3.7-.2.5.1.6.6.6.6.1.4.3.6.7.7.3.1.7 0 1-.2 0 0 .5-.4 1-.3.4.1.5.4.5.5 0 .3.3.6.6.8.3.1.7.1.9 0 0 0 .5-.3.9-.1.1.1.4.2.3.8-.1.5-1.1 4.5-1.8 7.4-.7.3-2.4.8-4.7.8-2.4 0-4.3-.6-4.8-.9zM14 7.5c0 .6.4 1 1 1h2c.6 0 1-.4 1-1s-.4-1-1-1h-2c-.5 0-1 .4-1 1zM13.5 5c.3 0 .5-.1.7-.3l1.5-1.6c.4-.4.4-1 0-1.4-.4-.4-1-.4-1.4 0l-1.5 1.6c-.4.4-.4 1 0 1.4.3.3.5.3.7.3zm-7.7-.3c.2.2.4.3.7.3.2 0 .5 0 .7-.2.4-.4.4-1 0-1.4L5.7 1.8c-.4-.4-1-.4-1.4 0-.4.4-.4 1 0 1.4l1.5 1.5zm4.2-.2c.6 0 1-.4 1-1v-2c0-.6-.4-1-1-1s-1 .4-1 1v2c0 .5.5 1 1 1zm-7 4h2c.6 0 1-.4 1-1s-.4-1-1-1H3c-.6 0-1 .4-1 1s.5 1 1 1z"/>
</svg>
