<svg xmlns="http://www.w3.org/2000/svg" viewBox="0 0 24 24">
  <path d="M24 13.8v-.3c0-.3 0-.5-.1-.7.1-.2.1-.5 0-.8l-3-6c-.1-.1-.7-1.2-2.1-1.5-1.1-.2-2.2.2-3.4 1.2-.4.4-.5 1-.1 1.4.4.4 1 .5 1.4.1.7-.6 1.3-.8 1.7-.8.4.2.7.6.7.6l1.8 3.6c-.6-.1-1.2-.1-1.9-.1-2.5 0-5.2.6-5.8 2.2-.3-.1-.7-.2-1.2-.2-.4 0-.8.1-1.2.2-.7-1.6-3.3-2.2-5.8-2.2-.7 0-1.4 0-1.9.1L4.9 7s.3-.4.7-.5c.5-.1 1.1.2 1.8.8.4.4 1.1.3 1.4-.1.4-.4.3-1.1-.1-1.4-1.2-1-2.3-1.4-3.4-1.2-1.4.2-2 1.3-2.1 1.5l-3 6c-.1.3-.1.5 0 .8-.2.1-.2.3-.2.6v.3c0 1.1-.1 3 1.3 4.4.9.9 2.1 1.3 3.7 1.3h1.2c2.7-.1 4.1-2.4 4.6-4.4l.1-.1c0-.1.3-.5 1.1-.5s1.1.4 1.1.5c0 .1.1.1.1.2.5 2 2 4.3 4.6 4.4H19c1.6 0 2.9-.4 3.7-1.3 1.4-1.4 1.3-3.3 1.3-4.5zM6 17.5H5c-1.1 0-1.9-.2-2.3-.7-.7-.7-.7-2.1-.7-2.9v-.4c0-.7 0-1 3-1 2.6 0 4 .7 4 1 0 .9-.7 4-3 4zm15.3-.7c-.5.5-1.2.7-2.3.7h-1c-2.3 0-3-3.1-3-4 0-.3 1.4-1 4-1 3 0 3 .3 3 1v.4c0 .8 0 2.2-.7 2.9z"/>
</svg>
