<svg xmlns="http://www.w3.org/2000/svg" viewBox="0 0 24 24">
  <path d="M12 0C5.4 0 0 5.4 0 12s5.4 12 12 12 12-5.4 12-12S18.6 0 12 0zM2 12c0-1 .2-2.1.5-3h2.8c-.2 1-.3 2-.3 3s.1 2 .3 3H2.5c-.3-.9-.5-2-.5-3zm5 0c0-1 .1-2 .3-3H11v6H7.3c-.2-1-.3-2-.3-3zm9-5h-3V2.4c1.3 1.4 2.3 2.9 3 4.6zm-5-4.5V7H8c.7-1.7 1.7-3.2 3-4.5zM11 17v4.6c-1.3-1.3-2.3-2.9-3-4.6h3zm2 4.6V17h3c-.7 1.7-1.7 3.2-3 4.6zm0-6.6V9h3.7c.2 1 .3 2 .3 3s-.1 2-.3 3H13zm5.7-6h2.8c.3.9.5 2 .5 3s-.2 2.1-.5 3h-2.8c.2-1 .3-2 .3-3s-.1-2-.3-3zm1.9-2h-2.5c-.5-1.5-1.2-2.9-2.2-4.2 2 .9 3.7 2.4 4.7 4.2zM8 2.8C7.1 4.1 6.4 5.5 5.8 7H3.4c1-1.8 2.7-3.3 4.6-4.2zM3.4 17h2.5c.5 1.5 1.2 2.9 2.2 4.2-2-.9-3.7-2.4-4.7-4.2zM16 21.2c.9-1.3 1.7-2.7 2.2-4.2h2.5c-1.1 1.8-2.8 3.3-4.7 4.2z"/>
</svg>
