<svg xmlns="http://www.w3.org/2000/svg" viewBox="0 0 26 26">
  <path d="M12.5 25h-9C2.1 25 1 23.9 1 22.5v-19C1 2.1 2.1 1 3.5 1h9.1C13.9 1 15 2.2 15 3.5v19c0 1.4-1.1 2.5-2.5 2.5zm-9-22c-.2 0-.5.3-.5.5v19c0 .2.3.5.5.5h9c.2 0 .5-.3.5-.5v-19c0-.3-.3-.5-.4-.5H3.5zM9 6H7c-.6 0-1-.4-1-1s.4-1 1-1h2c.6 0 1 .4 1 1s-.4 1-1 1zm0 15c0 .6-.4 1-1 1s-1-.4-1-1 .4-1 1-1 1 .4 1 1zm10.9-3.5c1.5-2.5 1.5-6.5 0-9-.3-.5-.9-.6-1.4-.4-.5.3-.6.9-.4 1.4 1.1 1.9 1.1 5.1 0 7-.3.5-.1 1.1.4 1.4.2.1.3.1.5.1.3 0 .7-.2.9-.5zm4 1.9c1.4-3.5 1.4-9.2 0-12.7-.2-.5-.8-.8-1.3-.6-.5.2-.8.8-.6 1.3 1.2 3.1 1.2 8.2 0 11.3-.2.5.1 1.1.6 1.3.1 0 .2.1.4.1.4-.1.8-.3.9-.7z"/>
</svg>
