<svg xmlns="http://www.w3.org/2000/svg" viewBox="0 0 24 24">
  <path d="M20 16c-1.2 0-2.3.6-3 1.4l-9.1-4.6c.1-.3.1-.5.1-.8 0-.3 0-.6-.1-.9L17 6.6c.7.8 1.8 1.4 3 1.4 2.2 0 4-1.8 4-4s-1.8-4-4-4-4 1.8-4 4c0 .3 0 .5.1.8L7 9.4C6.2 8.5 5.2 8 4 8c-2.2 0-4 1.8-4 4s1.8 4 4 4c1.2 0 2.3-.6 3-1.4l9.1 4.6c-.1.3-.1.5-.1.8 0 2.2 1.8 4 4 4s4-1.8 4-4-1.8-4-4-4zm0-14c1.1 0 2 .9 2 2s-.9 2-2 2-2-.9-2-2 .9-2 2-2zM4 14c-1.1 0-2-.9-2-2s.9-2 2-2 2 .9 2 2-.9 2-2 2zm16 8c-1.1 0-2-.9-2-2s.9-2 2-2 2 .9 2 2-.9 2-2 2z"/>
</svg>
