<svg xmlns="http://www.w3.org/2000/svg" viewBox="0 0 280 280">
  <path d="M140 0C62.8 0 0 62.8 0 140s62.8 140 140 140 140-62.8 140-140S217.2 0 140 0zm0 270c-71.7 0-130-58.3-130-130S68.3 10 140 10s130 58.3 130 130-58.3 130-130 130zm117.6-135h-3.8c-.5-11.9-2.9-23.3-6.7-33.9l3.5-1.4c2.6-1.1 3.8-4 2.7-6.5-1.1-2.6-4-3.8-6.5-2.7l-3.5 1.4c-4.9-10.5-11.5-20.2-19.2-28.7l2.7-2.7c2-2 2-5.1 0-7.1s-5.1-2-7.1 0l-2.7 2.7c-8.5-7.8-18.2-14.3-28.7-19.3l1.5-3.4c1.1-2.5-.1-5.5-2.6-6.6-2.5-1.1-5.5.1-6.6 2.6l-1.5 3.5c-10.7-3.9-22.1-6.2-33.9-6.7v-3.8c0-2.8-2.2-5-5-5s-5 2.2-5 5v3.8c-11.9.5-23.3 2.9-33.9 6.7l-1.4-3.5c-1.1-2.6-4-3.8-6.5-2.7-2.6 1.1-3.8 4-2.7 6.5l1.4 3.5c-10.8 5.1-20.5 11.6-29 19.3l-2.7-2.7c-2-2-5.1-2-7.1 0s-2 5.1 0 7.1l2.7 2.7c-7.8 8.5-14.3 18.2-19.3 28.7l-3.4-1.5c-2.5-1.1-5.5.1-6.6 2.6-1.1 2.5.1 5.5 2.6 6.6l3.5 1.5c-3.9 10.7-6.2 22.1-6.7 33.9h-3.8c-2.8 0-5 2.2-5 5s2.2 5 5 5h3.8c.5 11.9 2.9 23.3 6.7 33.9l-3.5 1.4c-2.6 1.1-3.8 4-2.7 6.5.8 1.9 2.7 3.1 4.6 3.1.6 0 1.3-.1 1.9-.4l3.5-1.4c4.9 10.5 11.5 20.2 19.2 28.7l-2.7 2.7c-2 2-2 5.1 0 7.1 1 1 2.3 1.5 3.5 1.5 1.3 0 2.6-.5 3.5-1.5l2.7-2.7c8.5 7.8 18.2 14.3 28.7 19.3l-1.5 3.4c-1.1 2.5.1 5.5 2.6 6.6.6.3 1.3.4 2 .4 1.9 0 3.8-1.1 4.6-3l1.5-3.5c10.7 3.9 22.1 6.2 33.9 6.7v3.8c0 2.8 2.2 5 5 5s5-2.2 5-5v-3.8c11.9-.5 23.3-2.9 33.9-6.7l1.4 3.5c.8 1.9 2.7 3.1 4.6 3.1.6 0 1.3-.1 1.9-.4 2.6-1.1 3.8-4 2.7-6.5l-1.4-3.5c10.5-4.9 20.2-11.5 28.7-19.2l2.7 2.7c1 1 2.3 1.5 3.5 1.5s2.6-.5 3.5-1.5c2-2 2-5.1 0-7.1l-2.7-2.7c7.8-8.5 14.3-18.2 19.3-28.7l3.4 1.5c.6.3 1.3.4 2 .4 1.9 0 3.8-1.1 4.6-3 1.1-2.5-.1-5.5-2.6-6.6l-3.5-1.5c3.9-10.7 6.2-22.1 6.7-33.9h3.8c2.8 0 5-2.2 5-5 .5-2.9-1.7-5.1-4.5-5.1zm-21.5 44.4c0 .1-.1.2-.1.3-.1.1-.1.2-.1.4-15.1 36-49.9 61.8-90.9 63.8v-3.6c0-2.8-2.2-5-5-5s-5 2.2-5 5v3.6c-12.1-.6-23.7-3.2-34.4-7.6-.1 0-.2-.1-.3-.1-.1-.1-.2-.1-.4-.1C64 220.8 38.2 186 36.2 145h3.6c2.8 0 5-2.2 5-5s-2.2-5-5-5h-3.6c.6-12.1 3.2-23.7 7.6-34.3.1-.1.1-.2.2-.3 0-.1.1-.2.1-.3C59.2 64 94 38.2 135 36.2v3.6c0 2.8 2.2 5 5 5s5-2.2 5-5v-3.6c12.1.6 23.7 3.2 34.4 7.6.1 0 .2.1.2.1.1 0 .2.1.4.1 36 15.1 61.8 49.9 63.8 90.9h-3.6c-2.8 0-5 2.2-5 5s2.2 5 5 5h3.6c-.6 12.2-3.3 23.8-7.7 34.5zm-109.8-96V57.3c0-2.2 1.4-4.1 3.6-4.8 2.1-.6 4.4.2 5.6 2l8.2 12.4v-9.6c0-2.8 2.2-5 5-5s5 2.2 5 5v26.1c0 2.2-1.4 4.1-3.6 4.8-.5.1-1 .2-1.4.2-1.6 0-3.2-.8-4.2-2.2l-8.2-12.4v9.6c0 2.8-2.2 5-5 5s-5-2.2-5-5zm-38 70.5c-.3 2-1.8 3.6-3.7 4-.4.1-.8.1-1.2.1-1.6 0-3-.7-4-2l-9.1-12-9 12.1c-1.2 1.6-3.2 2.3-5.2 1.9-1.9-.5-3.4-2.1-3.8-4L48 127.7c-.5-2.7 1.4-5.3 4.1-5.8 2.7-.5 5.3 1.4 5.8 4.1l2.5 14.6 6-8.1c.9-1.3 2.4-2 4-2s3.1.7 4 2l6.1 8.1 2.4-14.6c.4-2.7 3-4.6 5.7-4.1 2.7.4 4.6 3 4.1 5.7l-4.4 26.3zm126.4-22v3.1h3.7c2.8 0 5 2.2 5 5s-2.2 5-5 5h-3.7v3.1h12.4c2.8 0 5 2.2 5 5s-2.2 5-5 5h-17.4c-2.8 0-5-2.2-5-5v-26.2c0-2.8 2.2-5 5-5h17.4c2.8 0 5 2.2 5 5s-2.2 5-5 5h-12.4zm-78.4 71.3c0 .8.7 1.5 1.5 1.5h4.4c6.3 0 11.5 5.2 11.5 11.5s-5.2 11.5-11.5 11.5h-10.9c-2.8 0-5-2.2-5-5s2.2-5 5-5h10.9c.8 0 1.5-.7 1.5-1.5s-.7-1.5-1.5-1.5h-4.4c-6.3 0-11.5-5.2-11.5-11.5s5.2-11.5 11.5-11.5h10.9c2.8 0 5 2.2 5 5s-2.2 5-5 5h-10.9c-.8 0-1.5.7-1.5 1.5zm49.1-115.4l-60.7 35.1c-.1 0-.1.1-.2.1s-.1.1-.2.1c-.2.2-.5.4-.7.6-.2.2-.4.4-.6.7 0 .1-.1.1-.1.2s-.1.1-.1.2l-35.1 60.7c-1.1 2-.8 4.4.8 6 1 1 2.2 1.5 3.5 1.5.9 0 1.7-.2 2.5-.7l60.7-35.1c.1 0 .1-.1.2-.1s.1-.1.2-.1c.5-.3.9-.8 1.3-1.3 0-.1.1-.1.1-.2s.1-.1.1-.2l35.1-60.7c1.1-2 .8-4.4-.8-6-1.6-1.6-4-2-6-.8zm-57.1 47.5l16.4 16.4-38.9 22.5 22.5-38.9zm23.4 9.4l-16.4-16.4 38.9-22.5-22.5 38.9z"/>
</svg>
