<svg xmlns="http://www.w3.org/2000/svg" viewBox="0 0 24 24">
  <path d="M22.5 16.7l-2.2-1.2 2-.5c.5-.2.8-.7.7-1.2-.2-.5-.7-.8-1.2-.7l-3.9 1.1L14 12l3.8-2.1 3.9 1.1c.5.2 1.1-.2 1.2-.7.1-.5-.2-1.1-.7-1.2l-2-.5 2.2-1.2c.6-.4.7-1 .5-1.5-.3-.5-.9-.7-1.4-.4l-2 1.1.4-1.3c.2-.5-.2-1.1-.7-1.2s-1 .1-1.2.6L17.1 8 13 10.3V5.4l2.7-2.7c.4-.4.4-1 0-1.4s-1-.4-1.4 0L13 2.6V1c0-.6-.4-1-1-1s-1 .4-1 1v1.6L9.7 1.3c-.4-.4-1-.4-1.4 0s-.4 1 0 1.4L11 5.4v4.9L6.9 8 6 4.7c-.2-.5-.7-.8-1.3-.7-.5.2-.8.7-.6 1.3l.4 1.3-2-1.1c-.5-.2-1.1-.1-1.4.4-.2.5-.1 1.1.4 1.4l2.2 1.2-2 .5c-.5.2-.8.7-.7 1.3.1.5.7.8 1.2.7l3.9-1.1L10 12l-3.8 2.1L2.3 13c-.5-.1-1.1.2-1.2.7-.1.5.2 1.1.7 1.2l2 .5-2.2 1.2c-.6.4-.7 1-.5 1.5.3.5.9.7 1.4.4l2-1.1-.4 1.3c-.2.5.2 1.1.7 1.2h.3c.4 0 .8-.3 1-.7l.8-3.2 4.1-2.3v4.7L8.4 21c-.4.4-.4 1 0 1.4s1 .4 1.4 0l1.2-1.2V23c0 .6.4 1 1 1s1-.4 1-1v-1.8l1.2 1.2c.4.4 1 .4 1.4 0s.4-1 0-1.4L13 18.4v-4.7l4.1 2.3.9 3.3c.1.4.5.7 1 .7h.3c.5-.2.8-.7.7-1.2l-.4-1.3 2 1.1c.5.3 1.1.1 1.4-.4.1-.6 0-1.2-.5-1.5z"/>
</svg>
