<svg xmlns="http://www.w3.org/2000/svg" viewBox="0 0 56 64">
  <path d="M55 45.3l-6.2-3.6 3.5-.9c1.1-.3 1.7-1.4 1.4-2.4-.3-1.1-1.4-1.7-2.4-1.4l-7.4 2-5.5-3.2 6.5-1.8c.8-.2 1.4-.9 1.5-1.8.1-.9-.4-1.6-1.2-2l-5.8-2.4 4.5-2.6 7.4 2c.2 0 .3.1.5.1.9 0 1.7-.6 1.9-1.5.3-1.1-.3-2.2-1.4-2.4l-3.5-.9 6.2-3.6c1-.6 1.3-1.8.7-2.7-.6-1-1.8-1.3-2.7-.7l-6.2 3.6.9-3.5c.3-1.1-.3-2.2-1.4-2.4-1.1-.3-2.2.3-2.4 1.4l-2 7.4-4.5 2.6.8-6.2c.1-.8-.3-1.6-1-2-.7-.4-1.6-.3-2.2.1L30 20v-5.2l5.4-5.4c.8-.8.8-2 0-2.8-.8-.8-2-.8-2.8 0L30 9.2V2c0-1.1-.9-2-2-2s-2 .9-2 2v7.2l-2.6-2.6c-.8-.8-2-.8-2.8 0-.8.8-.8 2 0 2.8l5.4 5.4V20l-5-3.8c-.7-.5-1.6-.5-2.3-.1-.7.5-1 1.4-.8 2.2l1.8 6.5-5.5-3.2-2-7.4c-.3-1.1-1.4-1.7-2.4-1.4-1.1.3-1.7 1.4-1.4 2.4l.9 3.5L3 15.3c-1-.6-2.2-.2-2.7.7-.6 1-.2 2.2.7 2.7l6.2 3.6-3.5.9c-1.1.3-1.7 1.4-1.4 2.4.2.9 1 1.5 1.9 1.5.2 0 .3 0 .5-.1l7.4-2 5.5 3.2-6.5 1.8c-.8.2-1.4.9-1.5 1.8-.1.9.4 1.6 1.2 2l5.8 2.4-4.5 2.6-7.4-2c-1.1-.3-2.2.3-2.4 1.4-.3 1.1.3 2.2 1.4 2.4l3.5.9L1 45.3C0 45.9-.3 47.1.3 48c.4.6 1 1 1.7 1 .3 0 .7-.1 1-.3l6.2-3.6-.9 3.5c-.3 1.1.3 2.2 1.4 2.4.2 0 .3.1.5.1.9 0 1.7-.6 1.9-1.5l2-7.4 4.5-2.6-.8 6.2c-.1.8.3 1.6 1 2 .7.4 1.6.3 2.2-.1l5-3.8v5.2l-5.4 5.4c-.8.8-.8 2 0 2.8.8.8 2 .8 2.8 0l2.6-2.6V62c0 1.1.9 2 2 2s2-.9 2-2v-7.2l2.6 2.6c.4.4.9.6 1.4.6.5 0 1-.2 1.4-.6.8-.8.8-2 0-2.8L30 49.2V44l5 3.8c.4.3.8.4 1.2.4.4 0 .8-.1 1.1-.3.7-.5 1-1.4.8-2.2l-1.8-6.5 5.5 3.2 2 7.4c.2.9 1 1.5 1.9 1.5.2 0 .3 0 .5-.1 1.1-.3 1.7-1.4 1.4-2.4l-.9-3.5 6.2 3.6c.3.2.7.3 1 .3.7 0 1.4-.4 1.7-1 .7-1.2.3-2.4-.6-2.9zM38.2 31.6l-4.8 1.3L32 32l3.1-1.8 3.1 1.4zm-4.6-9.3l-.6 4.5-3 1.7V25l3.6-2.7zm-10.4.6L26 25v3.5l-1.5-.9-1.3-4.7zm-5.5 9.5l4.8-1.3 1.5.9-3.1 1.8-3.2-1.4zm4.7 9.3l.6-4.5 3.1-1.8V39l-3.7 2.7zm10.4-.6L30 39v-3.5l1.5.9 1.3 4.7z"/>
</svg>
