<svg xmlns="http://www.w3.org/2000/svg" viewBox="0 0 24 24">
  <path d="M12 17c-2.8 0-5-2.2-5-5s2.2-5 5-5 5 2.2 5 5-2.2 5-5 5zm0-8c-1.7 0-3 1.3-3 3s1.3 3 3 3 3-1.3 3-3-1.3-3-3-3zm1-4V1c0-.6-.4-1-1-1s-1 .4-1 1v4c0 .6.4 1 1 1s1-.4 1-1zm0 18v-4c0-.6-.4-1-1-1s-1 .4-1 1v4c0 .6.4 1 1 1s1-.4 1-1zm11-11c0-.6-.4-1-1-1h-4c-.6 0-1 .4-1 1s.4 1 1 1h4c.6 0 1-.4 1-1zM6 12c0-.6-.4-1-1-1H1c-.6 0-1 .4-1 1s.4 1 1 1h4c.6 0 1-.4 1-1zm14.7 8.2c.4-.4.4-1 0-1.4l-3-3c-.4-.4-1-.4-1.4 0s-.4 1 0 1.4l3 3c.2.2.5.3.7.3s.5-.1.7-.3zm-13-13c.4-.4.4-1 0-1.4l-3-3c-.4-.4-1-.4-1.4 0-.4.4-.4 1 0 1.4l3 3c.2.2.4.3.7.3s.5-.1.7-.3zm-3 13l3-3c.4-.4.4-1 0-1.4s-1-.4-1.4 0l-3 3c-.4.4-.4 1 0 1.4.2.2.5.3.7.3s.5-.1.7-.3zm13-13l3-3c.4-.4.4-1 0-1.4s-1-.4-1.4 0l-3 3c-.4.4-.4 1 0 1.4.2.2.5.3.7.3s.5-.1.7-.3z"/>
</svg>
