<svg xmlns="http://www.w3.org/2000/svg" viewBox="0 0 170 91">
  <path d="M123.4 17.3c.1 0 0 0 0 0 0-.1-.1-.1-.1-.1l.1.1s0-.1 0 0zM140.9 42.8c0 .1 0 .1 0 0 0 .1.1.1.1.1-.1 0 0 0-.1-.1zM130.3 47.6v0zM123.3 17.2zM107.2 57.8v.3l.1.2v-.1c.1 0 0-.1-.1-.4 0 .1 0 .1 0 0 .1.1.1.2.1.2-.1-.1-.1 0-.1-.2 0 .1 0 .1 0 0 0 .1 0 .1 0 0 0 .1 0 .1 0 0 0 0 0-.1 0 0zM123.3 17.2zM94 72.7c-.5-.6-1.1-1.1-1.8-1.4-.7-.4-1.5-.5-2.3-.5-.7 0-1.4.2-2.1.5-.7.4-1.3.8-1.8 1.4h-.1v-1.5l-.2-.2-4.6.3v.9c.3 0 .6.1.9.1.3.1.5.1.7.3.2.2.4.4.5.6.1.3.2.5.2.8v14.4c0 .3-.1.6-.2.8-.1.2-.3.4-.6.5-.2.1-.5.1-.7.1-.3 0-.5 0-.8.1v.9h7.6v-.9c-.3 0-.6 0-1-.1s-.7-.1-.9-.2c-.3-.1-.5-.3-.6-.5-.1-.2-.2-.5-.2-.8V84h.1c.3.3.8.5 1.3.6.5.2 1.2.3 2 .3s1.6-.2 2.4-.5c.8-.3 1.4-.8 2-1.5.6-.6 1-1.4 1.4-2.3.4-.9.5-1.9.5-2.9 0-1.1-.1-2.1-.4-2.9-.3-.7-.7-1.5-1.3-2.1zm-1.4 7.7c-.2.8-.4 1.4-.8 2-.3.5-.7.9-1.2 1.1-.5.3-1 .4-1.5.4s-.9-.1-1.2-.2c-.3-.1-.6-.3-.9-.5-.2-.2-.4-.4-.6-.7-.2-.3-.3-.5-.4-.8v-8c.4-.4.8-.8 1.2-1.1.5-.3 1-.4 1.7-.4s1.3.2 1.8.5.9.8 1.2 1.3c.3.5.5 1.1.7 1.8.1.7.2 1.4.2 2.1.1.9 0 1.8-.2 2.5zM76.9 78.9c-.7 1.3-1.4 2.3-2 3-.2.3-.6.4-1.2.6-.5.1-1.1.2-1.6.3-.5 0-1.1.1-1.9.1h-1.8c-1.1 0-2 0-2.6-.1-.6-.1-1.1-.3-1.5-.5-.4-.3-.6-.6-.7-1.1-.1-.5-.2-1.2-.2-2.1v-8.7h3.3c.9 0 1.6.1 2.1.3.5.2 1 .5 1.5 1 .3.3.5.9.7 1.6.2.7.4 1.4.4 2.1H73V63.9h-1.6c-.1.6-.2 1.2-.4 1.9s-.5 1.2-.8 1.6c-.4.5-.8.8-1.3 1-.5.2-1.3.3-2.3.3h-3.3V57.1h6.6c.6 0 1.1.1 1.5.1.8.1 1.7.8 2.6 1.9.9 1.2 1.5 2.3 1.8 3.3h1.6v-7H55v1.5c.4 0 .9.1 1.5.2s1.1.3 1.5.5c.5.2.8.5 1 .9.1.3.2.8.2 1.2v20.9c0 .5-.1.9-.3 1.3-.2.3-.5.6-.9.8-.2.1-.6.2-1.3.3-.7 0-1.3.1-1.7.1v1.5h24.2l.6-8.6h-1.5c-.2.6-.7 1.6-1.4 2.9zM153.6 83.4c-.3-.1-.4-.3-.6-.5-.1-.2-.2-.5-.2-.8v-8.8c0-.3.1-.6.2-.8.1-.2.3-.4.6-.4.2 0 .4-.1.5-.1.2 0 .4 0 .7-.1V71h-6.6v1c.2 0 .4 0 .6.1s.5.1.7.2c.3.1.4.3.6.5.1.2.2.5.2.9l-6.2 6.7v-7c0-.3.1-.6.2-.8.1-.2.3-.4.6-.4.2 0 .4-.1.5-.1.2 0 .4 0 .7-.1v-.9h-6.6v.9c.2 0 .4 0 .6.1s.5.1.7.2c.3.1.4.3.6.5s.2.5.2.8v8.8c0 .3-.1.6-.2.8-.1.2-.3.4-.6.4-.2 0-.4.1-.6.1-.2 0-.4 0-.6.1v.9h6.6v-.9c-.3 0-.5-.1-.7-.1-.2 0-.4-.1-.6-.2-.3-.1-.5-.3-.6-.5-.1-.2-.2-.5-.2-.8V82l6.2-6.7v7.1c0 .3-.1.6-.2.8-.1.2-.3.4-.6.4-.2 0-.4.1-.6.1-.2 0-.4 0-.6.1v.9h6.6v-.9c-.2 0-.5-.1-.7-.1-.2-.2-.5-.2-.6-.3zM45.4 72.3l-.7-.6-4.8 4.5-.4.4c-.1.2-.2.4-.2.6 0 .3.1.5.2.7.1.2.3.3.4.4l4.9 4.5.7-.5-3.5-5.1 3.4-4.9zM97.6 72c.2 0 .4 0 .7.1.2 0 .5.1.7.2.3.1.4.3.6.5.1.2.2.5.2.8v8.8c0 .3-.1.6-.2.8-.1.2-.3.4-.6.4-.2 0-.4.1-.6.1-.2 0-.4 0-.6.1v.9h6.8v-.9c-.3 0-.5-.1-.8-.1-.3 0-.5-.1-.7-.2-.3-.1-.5-.3-.6-.5-.1-.2-.2-.5-.2-.8v-10h2.3c.4 0 .7 0 .9.1s.5.2.8.5c.3.3.5.6.7.9.2.3.4.7.6 1.1.2.4.3.7.3.9h.8v-4.5H97.6v.8zM164.4 78c.1-.2.2-.4.2-.7 0-.3-.1-.5-.2-.7l-.4-.4-4.8-4.5-.7.6 3.5 5-3.5 5.1.7.5 4.9-4.5c0-.1.1-.2.3-.4z"/>
  <path d="M169.2 76.2l-4.8-4.5-.7.6 3.6 5-3.6 5.1.7.5 4.9-4.5c.1-.1.2-.2.3-.4.2-.2.2-.4.2-.7 0-.2-.1-.4-.2-.6-.2-.2-.3-.4-.4-.5zM121.3 83.3c-.3-.1-.4-.3-.6-.5-.1-.2-.2-.5-.2-.9v-3.3-3.5c0-.9-.1-1.7-.4-2.2-.3-.6-.6-1-1.1-1.4-.5-.3-1-.6-1.6-.7-.6-.1-1.3-.2-2-.2-.6 0-1.1.1-1.7.3s-1.1.4-1.5.6c-.5.3-.9.6-1.2 1-.3.4-.4.8-.4 1.2s.1.8.3 1.1c.2.3.5.5 1 .5s.9-.1 1.2-.4c.3-.3.4-.5.4-.9 0-.3 0-.6-.1-1s-.1-.6-.1-.8c.1-.2.4-.3.8-.4.4-.1.8-.2 1.2-.2.6 0 1.1.1 1.4.4.3.3.6.5.8.9.2.3.3.6.3.9.1.3.1.6.1.7V76c-.4.2-1.3.6-2.5 1-1.3.4-2.1.7-2.5.9-.3.1-.7.3-1 .5-.4.2-.7.5-.9.7-.3.3-.5.7-.7 1.1-.1.4-.2.9-.2 1.4 0 1 .3 1.8 1 2.4.6.6 1.5.9 2.5.9s1.8-.2 2.5-.5c.7-.4 1.3-.9 1.9-1.5h.1c.1.6.4 1.1.8 1.5.4.3 1 .5 1.7.5.4 0 .8 0 1.1-.1.3-.1.7-.2 1.1-.4v-.9h-.9c-.2-.1-.4-.1-.6-.2zm-3.3-1.5c-.3.4-.8.8-1.3 1.1-.5.3-1.1.5-1.7.5-.6 0-1.1-.2-1.5-.5s-.6-.9-.6-1.7c0-.6.1-1.1.4-1.5.3-.4.6-.8 1.1-1.1.5-.3 1-.6 1.6-.8.6-.2 1.3-.4 2.1-.7l-.1 4.7zM137.3 83.5c-.2 0-.5-.1-.7-.3-.3-.2-.5-.4-.7-.9-.1-.1-.2-.4-.4-.9s-.4-.9-.6-1.2c-.3-.7-.8-1.2-1.2-1.6-.5-.4-1.2-.8-2-.9v-.2c.4-.3.7-.6 1-1 .3-.4.6-1 .9-1.7.1-.4.3-.8.5-1.3s.3-.8.5-1c.4.5.7.8 1 1 .2.2.6.3 1 .3s.8-.1 1-.4c.3-.3.4-.6.4-1 0-.5-.2-.8-.5-1.1-.3-.3-.8-.5-1.5-.5-.5 0-.9.1-1.3.3-.4.2-.8.5-1.1.9-.2.3-.4.6-.6 1-.2.4-.4.9-.5 1.3-.1.4-.3.8-.5 1.3-.2.4-.4.8-.7 1.1-.2.2-.5.4-.8.5-.3.1-.6.2-.9.2h-.9v-4c0-.3.1-.6.2-.8.1-.2.3-.4.6-.4.2 0 .3-.1.5-.1s.4 0 .7-.1v-.9h-6.6v.9c.2 0 .4 0 .6.1.2 0 .5.1.7.2.3.1.4.3.6.5.1.2.2.5.2.8v8.8c0 .3-.1.6-.2.8-.1.2-.3.4-.6.4-.2 0-.4.1-.6.1s-.4 0-.7.1v.9h6.6v-.9c-.3 0-.5-.1-.7-.1s-.4-.1-.6-.2c-.3-.1-.5-.3-.6-.5-.1-.2-.2-.5-.2-.8v-3.8h.3c.8 0 1.5.2 2 .6s1 1 1.4 1.9c.4.7.6 1.3.8 1.8.2.5.4 1.2.6 1.9h4.6v-.9c-.2 0-.4 0-.6-.1 0 0-.2-.1-.4-.1zM49.9 71.7l-4.8 4.5c-.1.1-.2.3-.4.4-.2.2-.2.4-.2.7 0 .3.1.5.2.7.1.2.3.3.3.4l4.9 4.5.7-.5-3.6-5.1 3.6-5-.7-.6zM112.5 66.8c.1.3.3.5.3.9h.3v-1.6h-.3c-.2 0-.3 0-.4-.1-.1-.1-.1-.2-.1-.3v-2.9c0-.1 0-.2.1-.3 0-.1.1-.1.2-.1h.4V62h-4v.3c.1 0 .2 0 .3.1.1 0 .2 0 .3.1.1 0 .1.1.2.2 0 .1.1.2.1.3 0 .4-.1.9-.3 1.6-.2.6-.5 1.1-.8 1.5h-.5v1.6h.3l.3-.9c.2-.3.3-.4.5-.4h2.6c.2 0 .3.2.5.4zm-1-1c0 .1 0 .2-.1.2s-.1.1-.3.1h-1.9c.3-.4.6-1 .8-1.6.2-.6.3-1.3.3-2.1h1.2v3.4zM98.9 67.9c0 .1-.1.1-.2.1h-.5v.3h2.5V68h-.3c-.1 0-.2 0-.3-.1-.1 0-.2-.1-.2-.2s-.1-.2-.1-.3v-1.3c.1.1.2.1.4.2s.4.1.6.1c.3 0 .5 0 .8-.2.3-.1.5-.3.7-.5.2-.2.3-.4.5-.7.1-.3.2-.6.2-.9 0-.4 0-.7-.1-.9-.1-.3-.2-.5-.4-.7-.1-.2-.4-.4-.6-.5-.2-.1-.5-.2-.8-.2-.2 0-.4.1-.7.2-.2.1-.4.3-.6.5V62h-.1l-1.5.1v.3h.3c.1 0 .2 0 .2.1l.2.2c.1.1.1.1.1.3v4.7s0 .1-.1.2zm.9-5c.1-.1.3-.2.4-.3.1-.1.3-.1.6-.1.2 0 .4.1.6.2.2.1.3.3.4.4.1.2.2.4.2.6.1.2.1.5.1.7 0 .3 0 .6-.1.8-.1.3-.1.5-.3.6-.1.2-.2.3-.4.4-.2.1-.3.1-.5.1s-.3 0-.4-.1c-.1 0-.2-.1-.3-.2l-.2-.2c-.1-.1-.1-.2-.1-.3v-2.6zM150.7 62.5c0-.1.1-.1.2-.1h.4V62h-2.1v.3h.2c.1 0 .1 0 .2.1.1 0 .1.1.2.1 0 .1.1.1.1.3v2.9c0 .1 0 .2-.1.3 0 .1-.1.1-.2.1h-.4v.3h2.1v-.3h-.2c-.1 0-.1 0-.2-.1-.1 0-.1-.1-.2-.1 0-.1-.1-.1-.1-.3v-1.2h.1c.3 0 .5.1.7.2.2.1.3.3.5.6l.3.6c.1.2.1.4.2.6h1.5v-.3h-.4c-.1 0-.1 0-.2-.1-.1 0-.1-.1-.2-.3 0-.1-.1-.1-.1-.3-.1-.1-.1-.3-.2-.4-.1-.2-.3-.4-.4-.5s-.4-.2-.6-.3v-.1l.3-.3c.1-.1.2-.3.3-.6.1-.1.1-.3.2-.4 0-.2.1-.3.2-.3.1.2.2.3.3.3.1.1.2.1.3.1.1 0 .3-.1.3-.1.1-.1.1-.2.1-.3 0-.1-.1-.3-.2-.4-.1-.1-.3-.1-.5-.1s-.3 0-.4.1c-.1.1-.2.1-.4.3-.1.1-.1.2-.2.3s-.1.3-.2.4-.1.3-.2.4c-.1.1-.1.3-.2.4l-.2.2c-.1 0-.2.1-.3.1h-.3v-1.3c-.1-.2-.1-.3 0-.4zM123.9 65.9c0 .1-.1.1-.2.1h-.4v.3h2.1V66h-.2c-.1 0-.1 0-.2-.1-.1 0-.1-.1-.2-.1V62.6c0-.1 0-.2.1-.3 0-.1.1-.1.2-.1h.4V62h-2.2v.3h.2c.1 0 .1 0 .2.1.1 0 .1.1.2.1 0 .1.1.1.1.3v2.9c0 .1-.1.2-.1.2zM144.5 67.9c0 .1-.1.1-.2.1h-.5v.3h2.5V68h-.3c-.1 0-.2 0-.3-.1-.1 0-.1-.1-.2-.2s-.1-.2-.1-.3v-1.3c.1.1.3.1.4.2.2.1.4.1.6.1.3 0 .5 0 .8-.2.2-.1.5-.3.7-.5.2-.2.3-.4.5-.7.1-.3.2-.6.2-.9 0-.4 0-.7-.1-.9-.1-.3-.2-.5-.4-.7-.2-.2-.4-.4-.6-.5-.2-.1-.5-.2-.7-.2-.2 0-.5.1-.7.2-.2.1-.4.3-.6.5V62h-.1l-1.5.1v.3h.3c.1 0 .2 0 .2.1l.2.2c0 .1.1.2.1.3v4.7c-.2 0-.2.1-.2.2zm.9-5c.1-.1.3-.2.4-.3.2-.1.3-.1.6-.1.2 0 .4.1.6.2.2.1.3.3.4.4.1.2.2.4.2.6 0 .2.1.5.1.7 0 .3 0 .6-.1.8-.1.3-.1.5-.3.6-.1.2-.2.3-.4.4-.2.1-.3.1-.5.1-.1 0-.3 0-.4-.1-.1 0-.2-.1-.3-.2l-.2-.2c-.1-.1-.1-.2-.1-.3v-2.6zM126.1 62.3h.2c.1 0 .1 0 .2.1.1 0 .1.1.2.1 0 .1.1.1.1.3v2.9c0 .1 0 .2-.1.3 0 .1-.1.1-.2.1h-.4v.3h2.1v-.3h-.2s-.1 0-.2-.1c-.1 0-.1-.1-.2-.1 0-.1-.1-.2-.1-.3v-.1l2-2.2v2.3c0 .1 0 .2-.1.3 0 .1-.1.1-.2.1h-.4v.3h2.1V66h-.2c-.1 0-.1 0-.2-.1-.1 0-.1-.1-.2-.1 0-.1-.1-.1-.1-.3v-2.9c0-.1 0-.2.1-.3 0-.1.1-.1.2-.1h.4V62h-2.1v.3h.2c.1 0 .1 0 .2.1.1 0 .1.1.2.1s.1.2.1.3l-2 2.2v-2.3c0-.1 0-.2.1-.3 0-.1.1-.1.2-.1h.4V62h-2.1v.3zM138.3 66c-.1 0-.1-.1-.2-.1V62.7c0-.1 0-.2.1-.3 0-.1.1-.1.2-.1h.4V62h-4.9v.3h.2c.1 0 .1 0 .2.1.1 0 .1.1.2.1 0 .1.1.1.1.3v2.9c0 .1 0 .2-.1.3 0 .1-.1.1-.2.1h-.4v.3h2.1v-.3h-.2c-.1 0-.1 0-.2-.1-.1 0-.1-.1-.2-.1 0-.1-.1-.2-.1-.3v-3.2h1.9v3.3c0 .1 0 .2-.1.3 0 .1-.1.1-.2.1h-.4v.3h2.1v-.3h-.2c-.1 0 0 0-.1-.1zM128 60.2c0-.1 0-.3-.1-.3-.1-.1-.2-.1-.3-.1s-.2 0-.3.1c-.1.1-.1.2-.1.4 0 .1 0 .2.1.3 0 .1.1.2.2.3.1.1.3.2.5.3.2.1.4.1.7.1.3 0 .5 0 .7-.1.2-.1.3-.1.5-.3l.3-.3c0-.1.1-.2.1-.3 0-.1 0-.3-.1-.4-.1-.1-.2-.1-.3-.1s-.2 0-.3.1c-.1.1-.1.2-.1.3 0 .1 0 .2.1.3 0 .1.1.2.1.3-.1.1-.2.2-.3.2-.1 0-.3.1-.4.1-.2 0-.3 0-.4-.1-.1-.1-.2-.1-.3-.2 0-.1.1-.1.1-.2s-.4-.4-.4-.4zM141.1 63.9c-.4.1-.7.2-.8.3-.1 0-.2.1-.3.2-.1.1-.2.1-.3.2-.1.1-.2.2-.2.4-.1.1-.1.3-.1.5 0 .3.1.6.3.8.2.2.5.3.8.3s.6-.1.8-.2c.2-.1.4-.3.6-.5 0 .2.1.4.3.5.1.1.3.2.6.2.1 0 .3 0 .4-.1.1 0 .2-.1.4-.1v-.3h-.5c-.1 0-.1-.1-.2-.2 0-.1-.1-.2-.1-.3v-1.1-1.1c0-.3 0-.5-.1-.7-.1-.2-.2-.3-.4-.4-.1-.1-.3-.2-.5-.2s-.4-.1-.6-.1c-.2 0-.4 0-.6.1-.2.1-.4.1-.5.2-.2.1-.3.2-.4.3-.1.1-.1.3-.1.4 0 .1 0 .2.1.4.1.1.2.1.3.1.2 0 .3 0 .4-.1.1-.1.1-.2.1-.3v-.3-.3c.1 0 .1-.1.3-.1.1 0 .3-.1.4-.1.2 0 .4 0 .5.1l.3.3c.1.1.1.2.1.3V63.6c-.3.1-.6.2-1 .3zm.9.1v1.5l-.4.4c-.1.1-.3.1-.5.1s-.4-.1-.5-.2c-.1-.1-.2-.3-.2-.5s0-.4.1-.5c.1-.1.2-.3.4-.4.2-.1.3-.2.5-.3.1 0 .3 0 .6-.1zM94.4 62.5c0-.1.1-.1.2-.1h.4V62h-2.1v.3h.2c.1 0 .1 0 .2.1.1 0 .1.1.2.1 0 .1.1.1.1.3v2.9c0 .1 0 .2-.1.3 0 .1-.1.1-.2.1h-.4v.3H95v-.3h-.2s-.1 0-.2-.1c-.1 0-.1-.1-.2-.1 0-.1-.1-.2-.1-.3v-.1l2-2.2v2.3c0 .1 0 .2-.1.3 0 .1-.1.1-.2.1h-.4v.3h2.1V66h-.2c-.1 0-.1 0-.2-.1-.1 0-.1-.1-.2-.1V62.6c0-.1 0-.2.1-.3 0-.1.1-.1.2-.1h.4V62h-2.1v.3h.2c.1 0 .1 0 .2.1.1 0 .1.1.2.1s.1.2.1.3l-2 2.2v-2.3c-.1 0-.1-.1 0-.2zM86.4 62.5c0-.1.1-.1.2-.1h.4V62h-4.9v.3h.2c.1 0 .1 0 .2.1.1 0 .1.1.2.1 0 .1.1.1.1.3v2.9c0 .1 0 .2-.1.3 0 .1-.1.1-.2.1h-.4v.3h2.2v-.3h-.2c-.1 0-.1 0-.2-.1-.1 0-.1-.1-.2-.1 0-.1-.1-.2-.1-.3v-3.2h1.9v3.3c0 .1 0 .2-.1.3 0 .1-.1.1-.2.1h-.4v.3H87v-.3h-.2c-.1 0-.1 0-.2-.1-.1 0-.1-.1-.2-.1V62.7c-.1 0 0-.1 0-.2zM104.9 66.4c.3.1.5.2.8.2.3 0 .6-.1.9-.2.3-.1.5-.3.7-.5.2-.2.3-.5.4-.8.1-.3.1-.6.1-.9 0-.7-.2-1.3-.6-1.7-.4-.4-.9-.6-1.5-.6s-1.2.2-1.6.7c-.4.4-.6 1-.6 1.7 0 .4.1.7.2 1 .1.3.3.5.5.7.2.1.5.3.7.4zm-.3-2.9c0-.2.1-.4.2-.6.1-.2.2-.4.4-.5.2-.1.4-.2.6-.2.2 0 .4.1.6.2.2.1.3.3.4.4.1.2.1.4.2.6 0 .3.1.5.1.7 0 .6-.1 1.1-.3 1.5-.2.4-.5.5-.9.5-.2 0-.4-.1-.6-.2-.2-.1-.3-.3-.4-.5-.1-.2-.2-.4-.2-.6 0-.2-.1-.5-.1-.8-.1 0 0-.3 0-.5zM115.2 62.5c0-.1.1-.1.2-.1h.4V62h-2.1v.3h.2c.1 0 .1 0 .2.1.1 0 .1.1.2.1 0 .1.1.1.1.3v2.9c0 .1 0 .2-.1.3 0 .1-.1.1-.2.1h-.4v.3h2.1v-.3h-.2c-.1 0-.1 0-.2-.1-.1 0-.1-.1-.2-.1 0-.1-.1-.2-.1-.3v-1.4h2v1.4c0 .1 0 .2-.1.3 0 .1-.1.1-.2.1h-.4v.3h2.1V66h-.2c-.1 0-.1 0-.2-.1-.1 0-.1-.1-.2-.1 0-.1-.1-.1-.1-.3v-2.9c0-.1 0-.2.1-.3 0-.1.1-.1.2-.1h.4V62h-2.1v.3h.2c.1 0 .1 0 .2.1.1 0 .1.1.2.1 0 .1.1.1.1.3v1.1h-2v-1.1c0-.1 0-.2.1-.3zM88.1 67.9c0 .1-.1.1-.2.1h-.5v.3h2.5V68h-.3c-.1 0-.2 0-.3-.1-.1 0-.1-.1-.2-.2 0-.1-.1-.2-.1-.3v-1.3c.1.1.3.1.4.2.2.1.4.1.6.1.3 0 .5 0 .8-.2.2-.1.5-.3.7-.5.2-.2.3-.4.5-.7.1-.3.2-.6.2-.9 0-.4 0-.7-.1-.9-.1-.3-.2-.5-.4-.7-.2-.2-.4-.4-.6-.5-.2-.1-.5-.2-.7-.2-.2 0-.5.1-.7.2-.2.1-.4.3-.6.5V62H89l-1.5.1v.3h.3c.1 0 .2 0 .2.1l.2.2c.1.1.1.2.1.3v4.7c-.1 0-.1.1-.2.2zm.9-5c.1-.1.3-.2.4-.3.2-.1.3-.1.6-.1.2 0 .4.1.6.2.2.1.3.3.4.4.1.2.2.4.2.6 0 .2.1.5.1.7 0 .3 0 .6-.1.8-.1.3-.1.5-.3.6-.1.2-.2.3-.4.4-.2.1-.3.1-.5.1-.1 0-.3 0-.4-.1-.1 0-.2-.1-.3-.2l-.2-.2c-.1-.1-.1-.2-.1-.3v-2.6zM122.7 64.1c-.2-.1-.4-.2-.6-.2-.2 0-.5-.1-.8-.1h-.7v-1-.3c0-.1.1-.1.2-.1h.5V62h-2.2v.3h.2c.1 0 .1 0 .2.1.1 0 .1.1.2.1 0 .1.1.1.1.3v2.9c0 .1 0 .2-.1.3 0 .1-.1.1-.2.1h-.4v.3h2.3c.2 0 .4 0 .6-.1.2-.1.4-.1.5-.2.2-.1.3-.3.4-.4.1-.2.2-.4.2-.6 0-.2 0-.4-.1-.6 0-.2-.2-.3-.3-.4zm-.5 1.3c0 .1-.1.2-.1.4l-.3.3c-.1.1-.3.1-.5.1s-.4 0-.5-.1c-.1-.1-.1-.1-.1-.3v-1.6H121.3c.4 0 .6.1.8.3.2.2.3.4.3.6-.1.1-.1.2-.2.3zM41.2 64.5c0-.4.5-.5.1-.7-.6-.3-.1-.5-.5-.7l-.1-.1c-.1-.1-.2 0-.3 0-.1.3-.7 1.2-.2 1.3h.1c.1-.1.1.2.3-.2h.2c.1.2-.2.4.4.4zM28 69.1c-.3 0-.4.1-.7-.1 0-.1 0-.1-.1-.1v-.7c-.1-.2-.7.1-.8.1h-.1c-.3 0-.5-.1-.7 0 0 0-.8.6-.1.9h.1c.2.2.7.3.8 0l.1-.3c0-.2.3-.2.4-.2 0 .1.1.2.2.2.1.4.3.4.1.7-.4.1.5.2.5.2.4 0 .1.2.3.3.5.4-.6.5-.6.8 0 .2.1.2.1.2.4.3 1-.1 1.4-.1 0 0 .5-.1.6-.1 0-1.4-.2-.4-.7-1.2l-.4-.2v-.2l-.4-.2zM40.1 60.3c0 .1.2.3.3.3v.1c.1 0 .3.4.4-.2 0-.2.1-.5 0-.7-.2 0 0-.1-.3-.2-.6.2-.1.2-.4.5v.2zM7.7 6s0-.1 0 0c0-.1 0 0 0 0zM18.2 44.2c0-.3.4-.6.4-.9.1-.2.4-.3.4-.3.4-.4.9 0 1.1.1.1 0 .5.5.6.5 0 .1.2.3.2.4s.1.1.2.2H21.4c.6 0 .7-.1 1.3-.1.6-.1.4-.1.8-.3.3-.1.4-.4.5-.5.2-.2-.1-.7.2-.9 0-.1.2-.3.2-.3.2-.1.4-.2.7-.4.5-.1.4-.6 0-.6 0 0-.2-.3.1-.4.4-.1.1-.4.1-.6 0-.3-.3-.3-.3-1.1 0-.4.2-.7.2-.8V38v-.2-.3-.2-.4-.1c0-.1-.1-.3-.2-.4 0 0-.1-.1-.1-.2l-.1-.1s0-.1-.1 0c-.3 0-.9-.1-1.1.2h-.1l-.3.4c-.1.3-.3.5-.6.6-1.1 0 .1-.3-1.2-.3-.3 0-.6.8-.9.8-.1 0-.3.2-.3.3-.1 0-1 .2-1.1-.2-.2-.3-.4-.1-.4-.1-.2 0-.3.3-.3.5s-.1.9-.1 1v.1c-.1.1-.2.1-.2.2-.1.3-.5.4-.6.9v.1c-.2.4-.1 1-.1 1.4 0 .1-.4.9-.4.9h-.3c-.2-.4-.1-.2-.4-.1-.1.1-.1.1-.1.2 0 0-.2.1-.3.1-.3 0-.2.4-.1.6.2.3.2.8 0 1-.4.1-.4-.2-.6-.1-.1.4 0 .9 0 1.2 0 0-.1.3-.3.3h-.1c-.3.1.2 1-.1 1.1-.4.4-1.1-.3-.9.5 0 0 .4.4.5.4.4.3.4.4.7.8.3 0 .5-.3.6-.5 0-.1.1-.3.1-.4h.1c.2-.2.5-.2.8-.2.1-.1.9-.5 1-.5.1-.1.1 0 .1-.1.1 0 .1-.2.2-.2.3-.3-.2-.8-.2-1-.1-.1-.2-.5-.1-.6-.1-.1.6-.8.6-1.2zm2.5-4.6c.2-.2.4.1.7.3 0 .2.3-.1.2.6v.1c-.7.1-.7-.1-.8-.1-.5 0-.3-.7-.1-.9zM38.3 29.9c-.1-.1-1.1-1.2-1 0 .1.5 1.4.6 1.7.6v-.1l-.5-.3c-.1-.1-.1-.2-.2-.2zM45.9 15.7c.2-.1.1-.3.4-.6l.1-.1h.1l.3-.3.2-.4c.1-.6-.1-.1.3-.6.1-.2-.1-.5.4-.6.4-.2-.1-1.1-.4-1.1h-.1c0 .1-.3 0-.4 0-.3 0 .2.2.1.6-.1.4-.5.9-.9 1.1-.1 0-.3.2-.3.2 0 .1-.1.2-.1.3-.1 0-.4.6-.4.7-.1 0-.1.6 0 .8 0-.1.3.2.7 0zM44.2 11.5s0 .1 0 0c0 .1-.1.1 0 0 0 .1 0 .1 0 0zM44.2 20.5c0 .2-.3.4-.4.7 0 0-.7 1-.9 1.2l-.2.2c-.2.1-.6.8-.4 1.1.2 0 .5.5.9-.2.2-.3.5-.6.6-1 0 0 .2-.4.3-.4 0-.1 0-.2.1-.1.1-.1.1 0 .1-.1.1 0 .1-.1.2-.1 0 0 .1-.3.1-.4 0-.2.4-1 .5-1 0-.3.1-.6.1-1 0 0 .1-.5.1-.7v-.1c0-.1.1-.1.2-.2v-.6h-.1c-.4-.2-.8 0-1.3-.2H44c-.2 0-.1 0-.2.1-.1 0-.2.1-.3.2-.3.4-.3.9-1 .9-.1 0-.4.8 0 .8.6 0 .5.1 1.1-.3.1 0 .8-.1.9-.1.1.1.1.6-.1.8 0-.1-.2-.3-.2.5zM45.5 3.4c.2.1.4.5.5.5.1.3.6-.2.6.4 0 0 .1.3.1.4.1 0 .2.3.5.1 0 0 .4-.1.4 0 .1 0 .2 0 .3-.1.1-.1.1-.1 0-.1 0-.2.2-.7.1-1.1 0 0-.1 0-.1-.1-.5-.1-.2-.5-.4-.6l-.1-.1c0-.1 0 0-.2-.3-.1-.3-.4-.2-.4-.2h-.1c0 .1-.6 0-.7 0 .1.3-.3.1-.5.1v.1c-.5.3-.5.7 0 1z"/>
  <path d="M33.3 16.2c.4.3.4-.5.6-.6l.8-1c-.2-.2.3-.6.3-.7.1-.1.6-.8.7-.8.1-.2.3-.4.5-.5.1-.1.3-.2.3-.3l.1-.2c.1-.4.2-.3.4-.6.1 0 .3-.1.3-.1l.3-.3c0-.2.3-.5.3-.5 0-.3.2-.7.4-.8.1 0 .4-.4.4-.4.2-.2.7-.4.8-.4.3-.4.2 0 .5-.4 0 0 .1-.1.1-.2.2-.1.2-.4.2-.6 0-.1 0-.1.1-.2.2-.2.1-.1.3-.4.1-.2.6 0 .7.1.4.2.3.4.8.4v.5c0 1.2-.5.4-.3 1.7.5.3-.1.4.1.6l.1.1s-.2.8.3.7c.8 0 .4.6.3.6-.5 0-.4.7-.2.9.2 0 .2.1.4-.1.1 0 1-.6 1.1-.8 0 0 .1-.2.2-.3v-.1c0-.3.4-.1.4-.4h.2c.2.1.6.1.6 0 0-.2.1 0 .3-.2.1 0 0 0 .1-.1.9 0 .2.3 1 .2 0 0 0-.1.1-.1v-.2c0-.3.3-1.1.5-1.3.2-.2.1-.9 0-1.2l-.1-.1h-.2c-.1-.1.2-1.3 0-1.3-.8-.1-.4.7-.6 1-.2.4 0 1.6.3 1.8 0 .2.1 0 .1.3s-.5.1-.5.1c-.3-.2-.9-.2-.9-.1-.4 0-.3-.1-.4.4-.1.4-.9 0-1 .4 0 .2-.3.1-.4.1-.8 0-.6-.2-.7-.3-.2-.3-.1-1 0-1.1.1-.2.2-.3.3-.5.1-.1.2-.8 0-1-.1-.6-.2-.4-.3-.5-.2 0-.5-.5-.5-.5 0-.2 0-.4.2-.6 0-.1.2-.3.2-.3.1 0 .4-.3.4-.4.1-.1 0-.8.3-1.2.2-.2.1-.5 0-.8-.4 0-.7-.1-.7.3 0 .2-.1.5-.2.7 0 0-.2.7-.2.8 0 0-.1.1-.2.1h-.1c-.4 0-.2-.5-.4-.7h-.3s-.2.4-.2.6c0 .6-.6.7-.7 1-.1 0-.7.9-.8 1l-.4.4c-.1.2-.6.3-.7.7 0 0-.3.2-.3.3-.1.1-.2.1-.3.1-.1.1-.2.1-.2.2-.2 0 0 .4-.4.4-.1 0-.4.2-.5.2 0 0-.2.4-.2.6 0 0-.2.3-.2.4l-.1.1c0 .1-.1.1-.1.1l-.2.1-.3.2c0 .1-.1.3-.1.3-.1.1 0 .2 0 .3-.1 0-.2.1-.3.2 0 .2-.4.4-.5.6-.2.3-.2.3-.3.6l-.4.6c-.3.1-.4.6-.6.9-.2.2-.1.4-.5.8 0 0-.3.6.1.7z"/>
  <path d="M34.3 16.6c0 .2.2.4.3.5 0 .1 0 .1.1.2 0 .1.1.2.2.2l.9.1c0-.1 0-.1.1-.1 0 0 .1-.4.2-.4 0 0 .5-.5-.1-.5-.1 0-.3-.1-.4-.1 0-.2-.1-.2-.1-.6v-.1c0-.2-.3-.3-.4-.3-.6.2-.3.1-.5.6-.1.2-.3-.1-.3.5zM32.3 25.2h-.1c-.2 0-.3-.4-.4-.4-.4-.3-.1-.1-.4-.1 0 0-.3.2-.4.2-.1.3.2.4.3.8 0 .4.7.1.8.3.1.3.5.5.5.5 0 .3 0 .4-.1.7h-.2c-.6 0 0-.3-.8-.3v.2c0 .5.9.5.6.9-.1.3-.5-.3-.7-.3-.4 0-.8-.3-.9-.3l-.1-.1s-.3 0-.5.1c0 .7.2.3.2.5.3.1.1.4 0 .4-.1.3-.6 0-.6 0h-.1l-.2-.1s-.3-.8-.6-1.1c-.1-.1-.7-.4-.7-.4-.2 0-.1-.1-.3-.1-.1 0 0 0-.1-.1 0-.2-.6-.2-.8-.2H26c-.5 0-.5-.5-.7.2l.1.1c.3.3 0 1 .7.8.1 0 .3-.1.4 0h.1c.1.2.1.2.1.4.1 0 .2.2.5.2 0 0 .1.1.2.1.1.4.6.3.6.6 0 .1 0 .2.1.1.2 0 .6-.3.7-.1.4 0 .4.5.4.5v.4c-.1 0-.2.3-.9.3-.3 0-.3-.6-.5-.6 0 0-.7-.2-.8 0 0 .5 0 .2.3.4.2.1-.2.4-.3.4 0 .6.2.9-.4.9 0 0-.2-.2-.2-.3l-.1-.1c-.2.1-.4-.4-.4-.4-.1 0-.2 0-.3-.1-.2 0 .1.5-.3.8-.1.1 0 .3 0 .4.4.1.2.1.6.1.2 0 .4.4.2.6-.1.1-.9-.1-1.2-.1 0 .7 0 .3.4.6.2.1.4-.1.4.4.1.6 0 .5.2 1.1 0 .1 0 0 .1.1l.1.1c0 .2.4.1.6.2h.1v.1s.3.1.4.1v-.1.1h.1c.8 0 .6-.1.8-.2 0-.1-.3-.3-.4-.3-.1-.1-.2-.1-.3-.1-.1-.2-.3-.3-.5-.3-.4 0-.4-.4-.7-.4 0-.1-.1 0-.1-.1 0-.4.6-.5.9 0h.1c.2 0 .5-.1.5-.1.1-.1.1 0 .1-.1.3-.2.4 0 .4 0 .2 0 .3.2.6.2 0 .3 0 .3.1.6 0 .2.3.2.5.3l.1.2c0 .2.4.1.5.1l-.2-.3h-.1c-.1-.3-.1 0-.1-.7.7 0 .1.3 1.2.3.1.3.1.1.2.3.3.1.5.3.5.5.1.1.1.7.1.8 0 0-.1.2-.4.3-.4.1-.5.5-.7.8-.1 0-.6.1-.7.2h-.1c0 .1-.5.2-.6-.1 0 0-.1-.1-.1-.2-.2-.1.1-.1-.6-.1-.4 0-.8.5-1.2-.1 0-.2-.5-.8-.6-.9-.3-.1-.2-.3-.7-.3v.4c.6.3.3.6.7.9l.2.3c.1 0 .2.3.3.3 0 .1.1 0 .1.1.4.2.1.7.6.8.1 0 .1.8.1 1-.2.1-.1.7-.2.8-.2.1.1.4-.6.4-.2 0-.2.3-.3.4-.2 0-.3.2-.3.4 0 .4.5 0 .4.6-.2 0 0 .2-.7.2-.2 0-.3.4-.5.4-.4.1 0 .6.2.7.5.1.3.3.8.4v.1c-.4.2-.1.9-.4.9-.4.1-.4.2-.5.3 0 .1-.2.4-.2.4-.8.1-.4-.3-.9-.3 0 .2 0 .2.2.3.3.2.2.1.5.3.3.1.7 0 .7.1 0 .3.5.5.5.9 0 .6-.7.5-.9.4-.2-.1-.6-.1-.6-.4 0-.3-.1-.3-.1-.3-.1 0 0 0-.1-.1-.5-.1-.8-.2-1.3-.1-.2 0-.7.4-.8.5-.3.2-1.1-.4-1.1-.4-.1 0-.4-.1-.5 0 0 0-.1.5.1.5 0 .1.1.1.1.3h.2c.6.3.6-.1 1.3.3.4.3.4 0 .7.1.1-.1 0 0 0-.1.3-.2.2-.5.9 0 0 .1.5.1.6.1.3.1 1 0 1 .2.1 0 .7.2.7-.1 0 0 .1 0 .1-.1h.4c.5 0 .8-.2 1.1-.1 0 .1.2.2.3.2l.1.1c.1 0 .5.5.6.5.1.3.7.3.7.3.3.2-.1.5-.1.5-.5.1-.8-.2-1.2-.3-.5-.1-1-.3-1.6-.5h-.2c-.4-.1-.7-.1-1 .2 0 0-.1.4.2.4.4 0 .5.2.6.6.3.2.2.4.8.6.5.2.3.5.1.9h-.1c0 .3-1.4-.3-1.4-.3-.3-.1-.6 0-.7-.4h-.2c-.6 0-.1.8-.1.8.2.3 1.2.4 1.2.6.1 0 .1.5.1.6-.1.5-.1.6-.5.7h-.1v.1c0 .1.1.5.1.5.1.1.1.1.2.1 1 0 1.1-.2 1.7-.3.3 0 .5-.2.9-.3.6-.1 1.5 0 1.9-.8.2 0 .4-.4.8-.5.2 0 .3-.2.4-.4.2-.4.2-1 .3-1.1.1-.2.4-.6.4-.6h.1c.3-.3.4-.2.7-.3 0-.1 0-.1.1-.1 0-.4-.2-.6-.1-.7 0-.6-.1-.5.3-.8.4-.2.1-.5-.1-.6-.2-.1-.6-.2-.6-.4-.1-.1-.1-.7 0-.7 0 0 .1-.1.2-.1.2-.1.1-.4.1-.6-.1-.5-.1-.4-.1-.9 0-.2-.1-.6-.1-.6 0-.7-.3-.5-.4-1 0-.3-.1-.3-.1-.4-.1 0-.3-.3-.2-.5v-.1c.1 0 .1-.1.2-.1.3 0 .9.5 1 .7 0 0 .4.1.4.2.2.2.6.1.6.4.3.4.4-.2.4.7-.1.1-.4 0-.5-.1h-.3c0 .2.1.7.2.8.3.3.1.4.4.6.8-.1.2-.5.9-.5 0 0 .2.8.2.9 0 .1.1 0 .2 0 .8-.1.4.4 1 .4 0-.3 0-.3-.1-.5-.4-.7-.9-.3-.9-.7-.1-.3-.1-.3 0-.5s.5 0 .5-.1v.1c.1-.1.1-.1.1-.2 0 .1-.1.3-.1.3h.3c0-.3-.1-.2-.1-.3-.2-.1-.1-.6-.4-.7-.4-.2-.4-.7-.3-1.1.1-.3.6.2.8-.2-.1-.1 0-.1 0-.2h-.1l-.4-.3c-.1-.4-.9-.2-1-.4-.3-.5 0-.2-.6-.3 0 0-.1 0 .1-.1-.1-.1 0-.4 0-.5.1 0 .4 0 .4.1.1.2.3.1.4 0 .1 0 .2-.5 0-.5-.3-.3-.3.3-.3-.4.3-.2 1.1.2 1.1-.4-.1 0-.1-.1-.1-.2-.1 0-.1-.1-.1-.1 0-.6-.5-.5-.3-.9 0 0 .3-.2.4 0 0 0 .2.1.2.2.1 0 .3.4.3.4s.1 0 .1.1c0 .2.8.5.8.5l.3.4c0 .1.1.1.3.1h.1c0-.1-.2-.4-.3-.5-.1-.1-.4-.3-.6-.3 0-.1-.3-.2-.3-.4-.1 0-.3-.3-.3-.3-.3-.1-.4-.4-.5-.7 0-.2 0-.7-.2-.8-.2-.2-.4-1.2-.7-1.1l-.1-.1s-.2-.1-.2-.2c-.4-.4 0-.8.3-.7l.2.2c0 .1.1.1.1.1.2.1.4.7.7 0l-.2-.6c-.1-.6-.8-.3-.6-1.1.2-.3.1-.4.1-.7v-.1c-.2 0-.3-.2-.4-.4-.3-.6-.3-.1-.5-.6-.1-.4-.1-.2-.3-.4-.1-.1-.1-.1-.2-.1-.3 0-.9-.5-1-.6-.1-.5.2-.4.3-.5.3-.1.2-.3.1-.4h-.1c0-.1-.2-.1-.2-.2-.1 0-.2-.1-.3-.2-.1 0-.1 0-.2-.1 0 0-.4-.2-.4-.3-.3-.3 0-.9.2-1 .1-.2.9-.3.9-.4.2-.2.1-1 .1-1 0-.2-.1-.5-.3-.5-.2 0-.7-.3-.7-.3v-.2c.1-.6-.3-.5-.5-.5l-.3.2c.6.9.7 1.3.3 1.3zm-1.6 7.1c-.1.1-.4 0-.5 0-.3 0-.6-.6-.6-.8l-.2-.2c-.3-.3 0-.3-.1-.5h.2c.2.2.4.1.6.1.1 0 .2.1.2.1.2 0 .4.2.4.2v.4c.1.6 0 .5 0 .7zm5.2 4.6c.1 0 .3.1.3.3 0 .4-.3.3-.3.2-.1-.1-.5-.3-.5-.3 0-.6.5-.2.5-.2zm-5.8 9.8c-.5.1-.5 0-.8-.1-.3-.1-1.3-.3-1.4-.5-.3-.4-.1 0-.3-.3-.4-.4-.2-.8.2-.7.4.2.2.1.7.1.3.2.3.4.7-.1h.8c.1.1 0 .7 0 .9 0 .2.2.4.1.7zm-1-2.7c.1.2 0 .2-.2.2-1.1 0-.5-.5-.5-.5.1-.1 0 0 .3-.1.1 0 .1-.1.2-.1v.3c0 .1.1.2.2.2zm1.9 2.1c-.1.1-.1 0-.2 0 0-.1.5-1.1-.2-1.1-.9 0-.5 0-.8-.3-.1 0-.3 0-.4-.1 0-.2-.1-.5.2-.5.1-.4 0-.2.4-.3.2-.1.3.2.3.2.4.3.4.4.9.5v.8c.1.1.3.7-.2.8zm.1-2.8c-.7.1-.4-.4-.6-.5 0-.2-.1-.3-.1-.5-.1-.7-.4.4-.4.5 0 .3-.1.1-.1.2h-.3c-.1.1-.9.1-1 0h-.1c-.3-.2-.5-.2-.6-.2h-.1c-.3 0-.1-.5 0-.6.1-.3.6-.3.5-.5h.1c0-.1.2-.1.3-.2.1 0 .1.1.4.1l.3-.4c0-.3 1.4-.2 1.4-.1.3 0 .3.7.7.8.1.2.1 0 .1.5 0 .4-.4.9-.5.9zm1.3-4.7c-.6.2-.3.7-.1.8.3.1 0 .3 0 .4-.2.3-.6.1-.9.1l-.1-.1c0-.4 0-.2-.1-.4-.3 0-.3-.2-.4-.2-.2-.5-.1-.3 0-.8v-.1c.1 0 .4-.1.4-.1.2-.3 0-.1.4-.5.1-.1.4.1.5.1.3.1.8.6.3.8zm1-.5s.6.2.6.3c.1.3.4 1.1.8 1v.1h.1c0 .2 0 .8.1 1 .1.3.7.7.6 1h-.1c-.3.2-.5.1-.8 0-.6-.2-.1-.5-.8-.9-.2-.1-.3-.4-.5-.4 0-.1-.1-.1-.2-.1 0-.3 0-.5.4-.5.2 0 .1-.5 0-.5-.2-.1-.6.1-.6-.1-.1-1 .2-.6.4-.9zm-.4-7.9c0 .5.1.3.1.6-.3 0-.3-.1-.4-.1l-.3-.3c0-.2 0-.3.1-.4 0 0 .4 0 .5.2zM39.5 56.2s.1.3.3.4l.3.1c.1.1.2.5.2.7 0 .1.4.2.4.4.1 0-.1.4.1.5l.1.2c.3.2.1 1.2.7 1 .4-.1-.3-.9.3-.9h.2c.2 0 .2.7.2.8 0 0-.3 0-.4.1h-.1s-.1.4-.1.5c.1.1.4.2.5.3.1.3.4.5.7.5.3-.1.2-1.1.2-1.4 0-.8-.7-.8.1-.8.2 0 .3-1.1.1-1.2-.1-.3-.3-.1-.3-.6-.1-.7-.5-.2-.4-.8.1-.3.2-1 0-1.2-.3-.2-.3 0-.4-.3 0 0-.7-.6-.2-.7.3-.1.5.1.7.4.2.1.4.1.4.5 0 .1.5.2.5.6.1.6.4.5.6.9.4.6-.5.5-.5.6v.2c.4 0 .4.1.9.2.2 0 .6 0 .6-.2 0-.6-.1-.3-.1-.5-.1 0 0-.6-.3-.9 0-.1-.3-.3-.3-.5-.1 0-.2-.5-.4-.5-.2-.1-.3-.2-.3-.4-.1-.1-.5-.2-.7-.5-.1-.3 0-.3-.2-.6-.2-.4-.5-.5-.9-.8-.3-.2-.5-.2-.8-.1-.3.6.2.5.1.8-.4.1-.4.1-.9.1-.3 0 0-.5-.5-.6-.2 0-.2-.7-.2-.9-.1-.1-.3-.2-.4-.2l-.1-.3V51v-.5c.1 0 .1.1.5.1 0 .1.1 0 .1.1.5.1.1-.6-.2-.7 0 0-.4-.2-.4-.3-.2-.3-.2-.3-.6-.3 0 .2-.1.5-.4.4-.1-.1-.2-.2-.3-.4-.1-.2-.2-.2-.2-.3-.1-.1-1.1-.9-1.1-.9-.3-.1-.8-.4-1.1-.3h-.1c-.1.3-.4.6-.1.8.1.1.6.1.8.3h.1c0 .3.2.7.4.6.4 0 .2.4.4.7 0 .1.8.8.8.1 0-.2.5-.2.7.4.1.4.1.2-.3.4-.1.1 0 .4.2.5 0 0 .1.1.2.1 0 .1.2.6.2.6.2.1.1.6-.3.8l-.1.1c-.1.1-.1.3-.1.4.1.1.2 0 .3.1-.1.4 0 .2.3.3 0 0 .2-.2.2-.3.1-.2.2-.2.2-.2s.3 0 .3.1c.2.5.2.3.5.5.2.1.4.3.6.4.3.2.2 0 .4.3.1.2.5.4.5.5 0 0 0 .4.1.4 0 .2.1.3.2.5.2.3.2.4 0 .7 0 0-.3 0-.3-.1-.1-.1-.5 0-.7-.1-.1-.1-.5-.3-.4-.5 0-.8-.7-.3-1.1-.8-.1-.1 0-.1-.1-.2 0-.3-1.1-.4-1.2-.4-.1-.3-.4-.5-.7-.4 0 0-.5.5-.4.7 0 0-.1.6-.1.9 0 .4.4.5.6.3 0-.2.1-.5.2-.6.1-.1.1-.9.4-.4.2.3-.3.8.1 1 .1.1.3.1.4.1 0 0 .1-.2.1-.3 0-.1-.1-.2 0-.3.4.3.7.1.8.3zm2.3-1.8c-.1 0-.5.1-.5-.1 0-.1-.3-.3-.4-.3 0-.2 0-.2.2-.3.2-.1.1 0 .3 0 .1.2 0 .3.4.3v.4zM40.3 23.4c.1.1 1 .2 1.1.1.1-.5.1-.2 0-.6-.1 0 0 0-.1-.1-.2 0-.3-.1-.4-.1 0-.2-1.1-.3-1.3-.5-.1-.1-.7-.1-.9-.1-.4.1-.6.1-1.1.3h-.4c-.5.5-.5 0-.8.4-.1.2-.2.7-.1.7 0 .1.2.3.3.3 0 .1.1 0 .2.1.5.1.4.6.8.5.2 0 .2 0 .4-.1 0-.1.2 0 .3-.3l.1-.1c.2-.4.6-.3.8-.6.5-.3 1.1.1 1.1.1zM37.2 61.5c-.5-.1-.8-.7-.9-.6-.3.3 0 .7-.4.8 0 0-.1.1-.2.1h-.1c-.3.5.9 1.4 1 .8l.5-.5h.1l.1.1c0-.3.2-.6-.1-.7zM17.6 75.1z"/>
  <path d="M24.1 69.2c-.1-.2-.1-.3-.2-.6-.4-.7-.1-.2-.2-.9v-.1c0-.3-.1-1-.4-1.2l-.1-.1c-.2-.1-.3-.1-.3-.2-.1-.2-.1-.2-.1-.5 0-.1-.1 0 0-.1 0 0 0-.1-.1-.1-.1-.6-.2-.7-.3-1.1-.1 0-.3-.3-.3-.3-.5-.3-.3-.5-.5-.8-.1-.2-.7-1.1-.7-1.1-.1-.3-.2-.6-.2-1 0-1.2-.4-.8-.4-1.1-.4-.2-.4-.3-1 .1 0 .4-1 .3-1.1.4H18s0 .1-.1.1c-.2 0-.3.2-.4.2-.1.1-.4.4-.5.4 0 .1-.5 1-.7 1-.1 0-.2-.1-.3-.1-.5-.3-.2-.6-.5-1-.2-.2.3-.6.3-.7.1-.3.3-.2.3-.3.1-.6-.4-.3-.6-.3-.4 0-.4.1-.5.1-.4 0-.2.1-.3.1-.1.5 0 .5-.6.6-.1.2-.4.4-.5.4h-.1c-.3.1-.5.3-.5.3-.3 0-.6.3-.7.3 0 .1-.5.4-.6.4 0 0-.1.1-.2.1-.1.1 0 .1-.1.1l-.1.1s0 .2-.1.3h-.1c0 .3-1 .2-1 .2v-.1s-.2.1-.3.1c-.1 0 0 0 0-.1-.1 0-.3.1-.4.2 0 .1-.1.1-.2.2-.5 0-.6-.2-.9-.6.1 0 .5-.5.7-.5.3-.1.3-1 .1-1.2-.2-.2-.1-1 .2-1.3 0 0 .1-1.6-.3-1.8v-.2c0-.3-.4-.2-.5-.5-.3-.2-.8-.1-.9 0-.1.2-1.2.2-1.4.1-.1 0-.8-.3-.9-.3 0 0-1.2 0-1.5-.1h-.1c-.4-.3-1.1-.2-1.1.1-.2.1-.1.3-.5.3 0-.1-.1 0-.1-.1-.2-.1-.1-.6.1-.8.1-.2.2-.6.3-.6 0-.1.3-.2.3-.3.2-.2 0-1 .2-1H3c0-.3-.2-.5-.1-.5 0-.2 0-.7.4-.8v-.1c.3-.3.3-.6.3-.6.1-.2.4-.4.4-.5.2-.4 0-.2.1-.5H4c-.1-.2 0-.2 0-.5h.2c0 .2.5.1.5.1h.1v-.2c-.2 0 0-.1-.2-.2 0-.1-.1-.1-.1-.3.3 0 .5-.3.4-.5l.1-.1V49s.1-.1.4-.1c.3 0 .2-.3.5-.7H6c0-.1 0-.2.1-.3h.2c0 .1 0 .4-.1.5 0 .2-.2 0-.2.7 0 .1 0 .1-.1.1v.2c.6 0 .6.2.8-.4 0 0 0-.1.1-.1v-.1c.5-.1 0 .8.3.8l.1.1c.6.3.6-.3 1.1-.3.5 0 .4.4.1.6-.1 0-.1 0-.2.1-.2 0-.3.5-.3.6h-.1c0 .2-.1.4-.3.5-.1 0 0 .1-.2.1-.6.3-.3.3-.3.7h.1c.6 0 .1.5.1.9 0 0 .1.1.2.1s.2.1.6.2c0 0 .1.3.2.3.3.1.3.3.3.3.3.4.3.1.4.5.2.1.1 0 .1.2 0 .5-.3.6 0 1.1h.1c.1.1 1.1.9 1.1.9.2 0 .1.4.8.4.2 0 .6.2.7.3 0 .1.7.3.6-.1.1-.1.1-.1.3-.1.3-.1.4.1.6.1.3 0 .1.4.1.6h-.1c-.3 0-.1.5-.1.6 0 .1.3.5.3.5.5.1.5.3.4.6-.6.1-.4-.1-.6 0 0 .1-.1.1-.2.1 0 .1-.3 0-.3.1-.2.1 0 .4.1.4.3 0-.1-.2.6-.2 1 0 .6.3 1.2.2 0-.1 0-.1.1-.1.1-.1.3-.1.3-.3.1 0 .2-.1.3-.2.3-.3 1-.1 1.3 0 0 .1.1.2.1.2h.2c.5 0 .1-.7.3-1.1 0-.1.3-.3.4-.3h.1c0-.2.2 0 .1-.4-.1-.6-.3 0-.5-.7-.1-.5.1-.5.1-.6h.9c0 .2.2.4.4.3.5-.1-.4-.7.8-.7.4 0 1 .2 1 .6 0 .3.5.1.5.1.1 0 .3-.3.4-.4v-.1c.1-.5 0-1-.5-1.1 0-.1-.3-.2-.3-.2-.3 0-.4-.5-.1-.6l.1-.1c.5-.4 1.1-.1 1.1.3.2.2.3.2.6.3.4.4.5.2.8.2V55c.1 0 .1 0 .1-.1l.1-.1s0 .1.1 0c.3 0 0-1.2.3-1.5.3-.3 0-.3 0-.4h-.1c-.1-.2-.1 0-.1-.1l-.2-.1c-.3-.2 0-.8 0-.9.1.1.2 0 .4.3s.1.8.5.8c0 .1.5.6.5.7 0 .1.5.5.5.2 0-.2-.1-.5-.3-.5l-.1-.2c0-.2-.6-.7-.3-.9v-.1c.1 0 .7.1.7 0 0-.4 0-.8-.4-.8-1.1 0-.7.1-1-.4v-.1c-.2-.4 0-.2-.1-.5s-.3-.3-.4-.4c0 0-.1-.2-.1-.3 0-.2-.5-.7-.6-.8l-.1-.3c0-.3.1-.2.1-.3.2-.1.3.1.4.1 1-.1.3.3 1.3.2v-.1c.2-.5-.5-.4-.6-.7 0 0-.3-.1-.5-.1-.3 0-.4-.2-.4-.2-.1 0-.6-.1-.6-.1s0-.1-.2-.1c0 0-.9 0-1.2-.1V47c-.3-.4-.7 0-1.1 0-.1 0-.4.1-.4.1-.1.2 0 .8.1.9 0 .3.9 1.1.9 1.3 0 .4.2 1.1-.3 1.2 0 .2-.7 0-.7 0-.1-.1-.5-.2-.6-.2 0-.1 0-.2-.1-.1h-.1-.1c-.7-.2-.3.3-.8.2-.4 0-.2-.5-.5-.4 0 .1 0 .7.2.8 0 .1.1.1.1.1 0 .1-.1.2-.2.3-.2.3 0 .5-.1.7-.3.7.2 1-.4 1-.5 0-.1.3-.3.4-.1.3-.4 0-.6 0h-.1c-.3 0-.3-.3-.5-.3-.5-1 .1-.4.2-.6.2-.3.4-.1.3-.6v-.1c-.1-.4-.1-.2-.2-.8-.1-.4-.3-.1-.6-.3-.3-.3-.7 0-.7.1l-.2.4c0 .4-.2.2-.3.3l-.2.1c-.3.5.7 1.4 1.1 1.6.2.1.6.2.6.4 0 .6-.7 0-1 .4-.1 0-.6.1-.6.2l-.1.2c-.1.2-.1.6-.1.6-.1.2.1.2-.3.6 0 .1-.2.3-.2.3 0 .1-.1.1-.1.1-.1.3-.5.2-.8.1-.4 0-.4-.1-.5-.1l-.1-.1c-.3-.2 0-.7 0-.7.3 0 .2-.6.1-.7l-.3-.3c0-.3.1-.9 0-.9 0-.1-.1-.1-.1-.1l-.1-.5c-.3-.3-.8-.1-.8-.4 0 0 .1-.3.1-.7-.2 0-.3 0-.3.2-.1.5-.3.4-.3.6-.4 0-.4 0-.8-.1-.1-.1-.2-.2 0-.6v-.1c.1-.1-.1-.3-.2-.5 0 0 0-.4-.3-.6-.3-.2 0-.3-.1-.5.2 0 .3-.5.3-.5.1-.1.1 0 .1-.1.1 0 .1 0 .1.1 0 .5.3.4.6.4.2 0 .2-.5.1-.7-.1-.5-.1-.3-.1-.9 0-.1.1-.1.2-.2.4-.2.2-.3.2-.8-.1 0 0-.1-.1-.3-.1-.1-.4-.2-.4-.2-.1 0 0-.9-.1-1 0 0-.1 0-.1.1l-.3.2h-.1c0 .1 0 .1-.1.1-.5.3-.1.3-.1.6-.1.3 0 .5.2.8.6.5.5.4.5.5-.2.1.3.1-.3.3-.2 0-.2.6-.8.2-.3-.2-.6-.5-.4-.8.1-.5.1-.5.4-.8h.1c.3-.2.7-.4.5-.7v-.1h.1c0-.1 0-.2.1-.2.4 0 .6-.4.6-.7 0-.5 0-.3.2-.6.2-.4.1 0 .4-.4.2-.3.4-.5.8-.6v-.1c.2-.1.3-.4.4-.5.1-.1.3-.7.3-.7.3-.1.3-.2.8-.2v-.2c-.1-.4 0-.7-.4-.8-.6-.3.6-.5.7-.6.2-.1.1-.5 0-.7-.1 0-.2-.1-.3-.1-.1-.3.1-.6 0-.8-.1 0-.3 0-.3.1-.1 0-.3.1-.3.2-.3.4-1.4-.3-1.4.4 0 .2-.1.7-.1.7-.3 0-.9 0-.6-.5.1-.2.1-.5-.2-.6-.3-.2-.1.2-.5-.4-.1-.1-.6-.1-.6.1s-.6.1-.8.1v-.3c.1 0 0-.1 0-.2v-.1c-.1 0-.1-.1-.2-.1v-.1h-.1c0 .1-.5.3-.6.4-.2.1-.2.4-.3.5v.1c-.1 0-.1.5 0 .6.3.1.5.5.5.8 0 .5-.1.4-.2.8 0 .1-.1.7 0 .7 0 .2.1.3.1.7 0 .9 1.3.1 1 1-.3.1.1.2-.6.1h-.5-.1c-.3.5-.4.1-.5.7 0 .1-.2.5-.2.6v.4c.4 0 .8.4 1.1.1 0 0 .5-.1.5 0v.3c-.1.3-.5-.5-.5.8-.5-.2-.4.5-.2.8v.2s.1.1 0 .1-.3.1-.4 0c0-.2-.1 0-.1-.4 0-.3 0-.4-.1-.8-.1-.1-.1-.2-.2-.3-.7-.2-.4.5-.8.3-.2-.3.3-1.4-.2-1.7-.3-.2-.5 0-.7.2 0 .1-.2.2-.2.8 0 .3-.1.2.2.6-.1.2-.4.1-.3.7-.1.5-.1.3-.1.7 0 .2-.3-.3-.3.9 0 .3-.2.3-.2 1 0 .1.1 0 .2.6-.1.1-.2.1-.3.1-.1.4-.1.6-.4.8 0 0-.1.5-.1.6h-.1c-.2.3-.2 0-.2.5v.6l-.1.1c-.1.1 0 .1-.1.1-.2.5.1.6-.3.9 0 0-.1.2-.2.6 0 .1-.5.7-.6 1.1-.1.3-.4 1.1 0 1.2.2.1.2.9.1 1.2-.4.8-.1.8-.2 1.4 0 0-.1.2-.1.3-.1.2-.1.7 0 .9l.3.4H1v.7c.3.2.1.5.4.8.6.3.3.2.8.5.3.3.5 0 .7.4 0 .1 0 .4.2.5h.1s.5-.2.8-.3h1.2l.2.1.1.2h1c.2 0 .1-.4.4-.4 0 0 .3-.1.5-.1.8 0 .3-.1.9.2.1 0 .3 0 .3.1h.1c.1 0 .6.4 1 .4h.1c.1 0 1 .1 1.1 0v-.1c.1 0 .1-.3.1-.4.1 0 0-.5.1-.5.2-.1.8-.4.9-.1.1 0 .1.5.1.5.4.4 0 .6.8.7.3 0 .4.1.5.1h.1s.1 0 .2-.1h.1l.1-.1s.6-.1.8-.2c.1 0 .3-.1.4-.1.1 0 .2-.1.3 0h.4c.2 0 .6.1.7-.1.2-.5.8-1.1 1-1.6v-.1c.3-.3.5-.4.9-.7.2-.2 1.1 0 1.4.3.1.1.2-.2.4.2.1.2.2.1.3.6 0 .1 0 .1.1.1 0 .2.1 1.1.4 1.1v.1c.1 0 .2.3.3.3 0 .1.1 1.1.1 1.2v.1c-.1.4.3.7.3.8v.1c-.1.1-.1.8.1.9.4.1.2.8.5.9 0 0 .1.2.1.3.1.3.3.6.6.7h.1c.5.3.1-.1.5.4.2.2.2.3.5.2.1 0 .4 0 .5-.3 0-.3-.2-.1-.5-.4zM8.2 52.1c-.2.1-.1.4 0 .5-.1 0-.1 0-.1-.1-.1 0-.2-.1-.2-.2 0-.5-.1-.5.2-.8.1-.1.3.1.3.2 0 0-.1.3-.2.4zm13.3.8h.2c0 .2-.1.2-.1.2h-.2c0-.1 0-.1.1-.2zm-2.9-1.1c.1 0 .3.1.3.1.1.3 0 .2-.1.4h-.4c0-.4 0-.5.2-.5zm-.8 2.3c.1 0 .3 0 .3.1.1 0 0 .3.1.4l.2.2v.1c-.1 0-.3 0-.4-.1v-.1c0-.1-.2-.1-.3-.1-.1-.1 0-.5.1-.5zm-1.7.1c0-.2.1 0 .2 0 0 .1.1.1.2.1.2 0 .3.1.3.4 0 .1-.2.1-.3.1 0 0-.1 0-.1-.1-.1-.2-.3-.1-.3-.2v-.3zm-7.4-2c.1-.1.5 0 .4.3-.3.4.2.5 0 .6-.1.5-.7-.5-.4-.9zm2.1-11.8c.2-.1.1 0 .3-.3.1-.1.3.4 0 .5l-.1.1c-.2.1 0 .2-.1.4-.6.4-.1-.5-.1-.7zm-.9 1c.1 0 .6-.1.6.1 0 0-.1.6-.1.7-.1 0-.1.4-.1.5-.4 0-.2-.2-.4-.2-.3-.1-.1-1 0-1.1zm-1.4-.3V41l.1.1v.2s.1.1.2.1c.3.1.2.3 0 .7-.1 0-.1 0-.2.1l-.1.3h-.2v-.2c0-.3-.3-.2-.3-.3 0 0-.1 0-.1-.1 0-.6.3-.6.6-.8zM5 47.7s.1.2.2.2c0 .1.3.1.3.1 0 .4.1.2-.4.3 0 .4-.8-.2-.8-.6.3-.6.4 0 .7 0zm-.9 12.4c-.2.1-.2.1-.3.2-.1.1-.2 0-.3.2-.1.2-.1.1-.2.1-.1-.1-.1-.1-.3-.2 0-.1-.1 0-.1-.3.1 0 .1-.1.1-.1h.1c.1 0 .2-.3.2-.3 0-.1.3 0 .3 0s.3-.1.5 0 0 .3 0 .4zm2.6-.5c-.1.1 0 .4-.1.4 0 .1-.2.1-.3.2l-.3.3c-.1.2-.2.2-.4.3-.2.1-.1.1-.1.2 0 .2-.2.2-.2.2h-.4c-.1 0-.4-.4-.4-.4-.1-.3 0-.4 0-.6h.2s.1 0 .2-.1l.3-.1c.1 0 .8 0 .8-.2.1-.1 0-.1 0-.1l.3-.4c0-.1.1-.1.2 0 .2.1.4.1.2.3zm1.6-1.4h-.4c-.1 0 0-.1-.1-.2-.2-.1.1-.3.1-.4 0-.1.2-.1.3-.1h.1l.1.1c0 .2 0 .5-.1.6zM35 64.6v-.2c-.2 0-.1-.6-.3-.8-.1-.1-.2-1.1 0-1.4.3-.4.3-.1.3-.6-.3 0-.5-.1-.7-.2h-.1-.1c-.2 0-.1-.2-.1-.3-.1-.1-.1 0-.1-.1l.1-.2c.2-.2.1-.8-.1-.7-.4 0-.6-.1-.7.3-.3.1-.3 1.6-.1 1.8.3.3 0 .5.5 1 .1.1.2.1.2.2.4 0 .5.4.5.5h.1c0 .1 0 0 .1.1v.1c.1 0 .2.7.2.8v.1c.4 0 .5.4.5.7 0 .2 0 .3.1.4 0 .1.1.2.1.2.1-.1.2-1 0-1.3-.3-.2-.1 0-.4-.4zM38.3 66.6c-.1-.1-.3-.4-.3-.5l-.6-.1v-.1c-.1 0-.1-.3 0-.5.2-.2.3 0 .3-.3h-.5c-.5 0-.6.3-.5.8l.3.3c0 .2 0 .3.1.5l.2.2c.4-.1.5.5.7.8.1.1.1.1.2.1h-.1l.1-.1c.2-.4.8-.7.1-1.1z"/>
  <path d="M18 72.9c-.1-.4-.3-1.2-.5-1.6l-.8-1.6c-.1-.3-.5-.7-.5-.7-.1 0-.3-.3-.3-.3v-.1c0-.1-.2-.6-.4-.6v-.2c-.1 0 0-.1-.1-.2 0-.3-.4-.6-.4-.9-.1-.4-.2-.4-.3-.6-.1 0-.1-.1-.3-.2-.4.3 0 .6 0 1.1 0 .2.4 1 .5 1.2h.1s.4.8.4.9v.1c.3.1.3 1 .5 1 .2.5.6.9.8 1.4l.1.1c.1.3.4.4.4.8 0 0 0 .1.1.1s.1.2.2.3c0 0 .4.8.5.9.2.1.1 1.3.1 1.3H17.8h.1c0-.2-.3-.4-.6-.6l-.3-.6c-.4-.7-.4-.5-.9-1-.1-.1-.3-.9-.6-1.1l-.1-.2c-.2-.3-.2-.6-.5-.8-.1-.1-.9-1.5-1-1.5-.2-.5-.9-1.1-.9-1.6 0-.1-.1-.3-.1-.3-.1 0-.5-.5-.5-.5s-.1-.5-.2-.5c-.5-.4-1.2-.5-1.5-.4l-.4.2s-.3.6.2.6c.1 0 .8 0 .8.1.3.2.5.5.6.8 0 .1.6 1.3.7 1.3v.1c.1.1.3.7.5.8 0 .2.4.4.4.6l.6 1.2.1.1c-.2.1-.1 0-.1.1.3.2.5.5.6.8.1.3 0 .3.3.6 0 0 .3.5.4.5.2.3.7.5.8.8 0 .1.1.1.2.3 0 .2.5.1.5.2.1 0 .2.1.2.1.1 0 .2.1.3.2.4 0 .3-.1.7-.1 0-.1.1-.2.1-.3v-.1c0-.4.4-.6.1-1.1 0-.3-.2-.3-.3-.9zM17.5 75.1s.1 0 0 0c.1 0 .1 0 0 0 .1 0 .1 0 0 0zM36.3 68.2c0-.1 0-.1-.1-.1V68H36l-.2.1c0 .3-.1-.1 0 .4 0 .2-.1 0 .1.3v.1c.1.3.1.2.2.6l.2.5v.1s.1.2.1.3c.4-.1.2-1 .1-1.3-.1-.4-.2-.4-.2-.9zM17.5 75.1zM28.9 74.4c-.1-.1-.4-.2-.4.5v.1c-.1 0-.2.1-.3.1-.5-.5.3-1.1.1-1.6l-.1-.3-.1-.1s-.4-.3-.4-.2c0 .1 0 0-.1.1-.4.6-.3 1.1-.3 1.8 0 .4.6.6.6.8 0 0 .2.3.3.3.1 0 .5.1.6 0 .1 0 .1 0 .2-.1.1 0 .4 0 .5-.1 0-.1.4-.2.1-.5-.1-.1-.7-.8-.7-.8zM32.1 70.5c-.2-.2-.4 0-.5 0 0 .2 0 .6-.1.8-.1 0 0 .1-.1.1 0 .1-.5.5-.6.5-.2.4-.3.5-.4.5-.1.1 0 .5.3.6.4.1.6-.4.6-.5l.1-.1c.1 0 .2-.3.5-.5.4-.1.4-1.4.2-1.4zM28.7 78.8c-.1 0-.2 0-.2-.1s-.2-.3-.2-.3h-.1l-.3-.6c0-.4-.5-1-.5-1.1-.1-.4-.5-1.2-.6-1.5-.3-.5-.3-.3-.6-.9-.2-.5 0-1-.2-1.4-.2-.5-.4-.6-.4-1.1s-.1-1-.7-1.2c-.2 0-.3 0-.5.1 0 .2 0 .7.1.9 0 .1 0 .1.1.1 0 .1.2.1.2.3 0 0 .1.3.1.6s-.2.8-.2 1.5c0 .4 0 .4.1.8.2.6.4.5.3 1.4 0 .1.2.2.2.4.1.3 0 .3.2.6.1.1-.1.3.2.5.1.1.3.6.3.7.1 0 .2.2.2.3v.1c.1.3.1.2.1.6 0 .3.3.8.8.8.4 0 .7 0 1-.2 1.1.3 1.1-1.2.6-1.3zM33.3 78.5v.1c.1 0 .1 0 0-.1z"/>
  <path d="M34.7 68.6c.2-.3.5-.5.5-.6 0-.2-.1-.6-.1-.6 0-.9-.1-.4-.2-.8-.1 0-.1-.3-.4-.3-.1 0-.2.3-.2.3-.1 0 0 .1-.1.2 0 0 .1 1-.1.6-.3-.4-.3 0-.5 0-.8 0-.3-.4-.8-.7-.3-.2-.3-.5-.3-.9 0-.3-.2-.6-.4-.9H32c0-.4-.4-.5-.5-.6-.6-.3 0-.8-.9-.6-.2 0-.2 1.2-.2 1.4v.1c-.1 0-.3-.1-.3-.3 0-.3-.2-.4-.4-.7-.3-.3-.6-.5-1-.5 0 0-.2-.3-.2-.4 0-.4 0-1.4-.3-1.5-.1-.1-.6-.4-.6.2 0 .1-.1.4 0 .7.4.2.4.5.5.9 0 .4 0 .1.1.5.1.2.5.6.5.6.4.1.4.5.6.8.4.7.1.2.8.5.6.3.5.1.5 1.1v.1c0 .2.3.1.4.1v-.1c.2 0-.1-.3.3-.4.3 0-.1-.5-.1-1 0-.1 0-.8.3-.6l.1.1c.3.6.1.4.2.9 0 .1.2.1.4.3.1.5-.2.5-.1.8.3.2.1.3.6.3.1 0 .1.1.2.1.1.3-.1.1.1.4.3-.1.3.5.1.8-.2.3 0 1.1-.2 1.2-.3.1-.3.5-.1.7 0 0 .1.4.1.6h-.3c-.1.2 0 .3-.2.7-.1.5 0 .4-.2.9v.6l.2.3c.1.3.1.1.1.5v.1l-.1-.1s-.1.6-.1.7c0 0 .1.5.1.8v.1c-.1 0-.3.7-.3 1 0 .3 0 .3.1.5 0 0 .1 0 .1.1.1.1.3.1.3.2.1.1 0 .1.1.3-.1.2.1.5-.2.7l-.1.3c-.1.1-.1.1-.1.2v.2c-.1.2 0 .8.1.9.1.3.5.1.6.1v-.1c-.1-.4-.2-.8.1-1.1.1-.1 0-.1.3-.4 0 0 .1-.1.1-.2 0-.4-.4-.8.2-.9.1 0 .4.3.6.2v-1-.3c.3-.1.2-.3.3-.5-.1 0-.1-.4-.1-.4 0-.1 0-1.2.2-1 .6.6.4-.7 0-.8-.3-.1 0-.3-.1-.5-.1-.3-.3-.5-.2-.8.1-.5-.1-.7 0-.8 0-.3-.1-.1-.1-.3h-.1c-.3-.3-.1 0-.3-.1-.2 0-.3-.5-.4-.5 0-.1-.1 0-.1-.2l.2-.1s.2-.1.2-.2c.4-.5.3.4.5.4.5 0 .2-.4.4-.8h.1c.2-.4-.1-.8.1-1.2-.3-.2-.3-.2-.2-.3zm-1.4 6.2h.2c.1.1.2.7.2.8-.1.3-.3 0-.3 0-.2.1-.1-.6-.1-.8zm1.1-6.6c0 .4-.6 0-.2-.4.1.4.3-.1.2.4zM32.1 79.2c.1-.1-.1.1 0 0zM2.9 3.9l.2-.2c.4 0-.1-.6.1-.7.3 0 .2-.3.2-.4-.2-.1-.4-.2-.5-.1h-.1c-.1 0-.3.4 0 .6v.3c-.2 0-.4 0-.3.5 0-.1.3.3.4 0zM7 19.2c0-.1-.1-.2-.3-.2h-.1l-.1.4c.2 0 .5.3.8.2.1 0-.1-.3-.3-.4zM4.8 15.9c-.1 0-.4-.1-.7-.1v.4s.2.1.3.1c.1.3-.2.7.6.6.1 0 .3-.5-.1-.8l-.1-.2zM17.6 75s.1 0 0 0zM5.9 18.1c0-.2-.4-.4-.5-.4-.1.1-.5 0-.3.6 0 0 .3.1.4.1 0 .1.5.2.6.2 0-.4-.1.1-.2-.5zM4 42.7c0 .3 0 .4.2.6.3-.1.5.4.5-.3 0-.1.1-.2.1-.7 0-.7 0-.2-.2-.7-.1-.3-.3-.8-.2-1 .3 0 .3-.8.1-1 0 0-.1 0-.1-.1h-.1c-.2-.7.1-1.1-.4-1.2v-.1-.2c0-.1-.1-.3-.1-.4-.3-.5-.4.1-.4.5 0 .3 0 .5.1.7.1.3.1.5.2.7.3.1.1.5.3 1 .3.7-.2 1.6 0 2.2z"/>
  <path d="M3.4 2c.1.4.2 0 .2.6 0 .1.1.2.1.5 0 .2-.1.2-.2.3h-.1c-.2.3-.1.8.2.9.1.1.3.2.4.3.3.4.4.1.5.4.1.3.2.2.2 1-.2 0-.2 1-.1 1.1 0 0 .2.2.2.3h.1c.3-.1.1 0 .1 0 .2.1 0 .2.3.2s.6.1 1 0c.2-.1.6-.2.8 0 .2.2.2.6-.2.7-.2 0-.5.1-.2.4.1.1.3 0 .5.4.1.2.3.4.6.5.3 0 .6.5.6.5 0 .1.3.2.4.5 0 .1.3.1.4.2 0 0 .3.1.4.1.3 0 .1 0 .3.1-.2.6 0 .1-.3.5-.2.3.7.8.7.9v.1c.1 0 .1.6-.1.6-.2.4-.3 0 0 .5.1.2-.1.3-.1.3v.6c-.1 0-.5 0-.6.2-.1 0 0 .2 0 .2.1 0 .4-.1.4.1v-.1.1c0 .1 0 .2.1.3h.1c.2.3.5-.2.9.2.3.3.5.2.8.1 0 .1 0 0 .1.1h.1c0-.1.1.1.2-.3 0-.1 0-.5.1-.6 0-.1.1-.1.2-.2.4 0 .2 0 .6.3.1 0 .1.1.1.1.1.1 0 0 .2.1l.3.2c.1 0 .1 0 .1.1l.1.1c.1.1.2.5.5.7.4.4.4.3.4.9-.9 0-.6-.2-.8-.3h-.1s-.5 0-.6-.1c-.1 0-.3 0-.4.1l-.2.1c-.3.1-.2.6-.2.8 0 .1.1.2.1.2 0 .1 0 0 .1.1.1 0 .4 1.3.1 1.5-.4.4-.3-.3-.4-.5v-.1c0-.1-.4-.2-.4-.1 0 0-.2.6 0 .8 0 .1.1.2 0 .3 0 .2-.5.2-.5.7 0 .1 0 .3-.1.3-.1.2-.5.2-.7.3-.1.1-.1-.1-.4.1h-.1v.1c-.2 0 0 .1-.3.1-.1.3-.3.7-.3 1.1 0 .1.2.3.2.6s.2.4.2.8l-.1.1c-.1.1 0 .7-.1 1.1-.8.6-.3.8-.6 1.5-.2.4-.3.1-.6.8-.1.3-.1.3-.3.6-.5.7-.9.7-1.3 1.3-.2.3-.4.5-.5.9-.1.4-.2.1-.3.4-.1.1 0 .2-.3.3-.2.1-.2.3-.2.5h-.1v-.1c-.3 0-.5.2-.8.3 0 0-.1 0-.3.3 0 .1-.1 0-.1.2 0 0-.2.1-.3.1 0 .1 0 0-.1.1 0 .1-.7.5-.7.7 0 .1-.3.3-.4.3l-.1.1c-.1.1-.1.2-.1.3-.1 0-.1.8.1.8v.1c0 .1 0 .4.2.7.1.1.2.6.5.6 0 .1.2.1.2 0 0-.4.2-.4.7-.4.2 0 .3.6.4.3.2 0 0-.8.4-.8 0-.2.8 0 1-.4.1-.2.8-.2 1.1-.4.4-.3.3-1.1 0-1.4-.1-.2-.4-.5-.4-.5 0-.3-.1-.5.3-.4 0 0 .7.8.8.4.3-.2.3-.1.2-.6 0-.2-.2 0-.3-.3-.1-.2 0-.3-.1-.5.3-.2.4.1.4.3.1.1 0 .4.4.4.1 0 .4.7.5.7.1.2.5.6.5-.2 0-.5-.1-.7.3-.9 0 0 .5-.3.6-.4.2-.2.2-.5.2-.8-.2-.1-.5-.2-.5-.5 0-.2-.5-.1-.6 0-.1 0 0 .2-.1.3 0 0-.1 0-.1.1-.1 0-.5.5-.5-.2 0 .1.1.1.2 0 0-.3-.3-.2-.1-.3.4-.2 0-.2.4-.3 0 0 0-.1.1-.1h.3c0-.1.3-.2.3-.2.3 0 .4-.1.5-.1v-.1c.1 0 .2-.7.4-.8.4 0 .2-.1.3-.1 0-.1.1-.3.2-.3.1-.2.5-.4.5-.4.1-.1.2-.2.2-.3 0-1.4-.4-.8-.4-1.4h.9c0-.6-.2-.7-.2-1 .2 0 .4.1.5.2.1 0 .2.2.5.3.1-.1.1-.2.3-.3.3-.1.1-.5.1-.7 0-1-.2-.5-.3-1-.1-.2-.8-.6-.8-.6 0-.3.1-.6.1-.6.2-.6-.1 0 .2-.6.4-.5.3.5.7.5.3 0 .1.1.6-.1h.2c.1.3.1.8.5.8.1 0 .3.3-.2.4-.2 0-.3.3-.1.4 0 0 0-.1.1-.2.3 0 .2 0 .4.1-.1 0 0-.2.3-.3 0-.1.1-.1.1-.1l.3.1c.3 0 .2-.2.9-.2h.1s.4-.3.5-.3c.7-.5.5-.3 1.4-.4.2 0 .9-.1.9.1v.1c-.2.1-1 .3-.5.6.4.3.9-.1 1.1-.1 0 .2.6.1.7.1 0-.1.1-.1.1-.1s.1-.3.2-.3c0 0 0-.1.1-.1 0 0 .4-.3.3.2 0 .3-.2.3-.1.6h.2c.4.2.4-.2 1.1-.2.2 0 .3-.1.3.1H23.6v-.1c.5-.2.4-.2.6-.4.2-.1.9.2 1 0 .5-.1.7-.2 1.2-.1h.4c0-.2.6-.2.8 0l.2.1c.3.7.8-.5.8.1 0 .1 0 .1.1.1l.5.4c.2 0 .5.4.5-.1 0-.2.2.1 0-.5-.1-.5-.5.4-.5-1.1V21c.4 0 1.1 0 1.4-.4.1 0 .1-.1.3-.2V20c.1-.1.1 0 .1 0v-.2c.1-.1 0-.1.1-.1 0 0 .3-.3.4-.5 0-.1.4-.6.5-.6.2-.5.7-.3.6-1-.1-.9-.6-.3-1.1-.1-.3.1-.3.2-.8.4-.2.1-.5.5-.6.7-.4.1-.7.2-.8.6-.1.1-.6.4-.9.4h-.6c-.2-.1 0-.1-.2-.1-.1-.2-2-.1-2.3-.1-.2 0-.5.2-.8 0-.3-.3-1.3-.3-1.7-.3-.2 0-.3-.3-.8-.3h-.6c-.3-.1-.8 0-1 .1-.1 0-2.1-.1-2.5 0-.1-.1-.6-.4-.6-.5-.2-.1-.1-.3-.2-.3L17 18c-.3-.5-.3-.1-.3-.8 0-.1-.4-.4-.4-.5l-.3-.3-.3-.4c-.3-.1-.3-.6-.6-.7-.6-.2-.6-.5-.7-1.1V14c0-.1-.1-.1-.1-.2-.1-.1-.3-.6-.5-.6 0-.1 0-.1-.2-.2-.3-.2-.5-.5-.8-.6-.6-.1-.4-.6-.3-.7-.1 0-.1-.2-.1-.2-.1 0-.2-.4-.5-.6-.3-.2-.6-.7-.7-.7 0-.1-.8-.5-.9-.5.2.1-.3.2-.3-.1 0 0-.1-.1-.1 0-.1-.2-.1-.7-.3-.9-.3-.4.1-.5-.6-.8-.3-.1-.4-.4-.6-.6-.4-.4-.1-.3-.3-.9 0 0-.2-.1-.3-.4v0-.1-.1s-.1-.3-.2-.3c-.4-.2-.5-.4-.6-.9 0-.5-.3-.6-.3-.9 0-.5-.9-.8-1-1.3-.1-.6 0-.2-.3-.7-.1-.2-.1-1-.4-1-.6 0-.8-.3-1.1-.3-.3-.1-.6 0-.9.2-.1.2-.1.1-.1.4l.2.4c.2 0 .1.3.3.6zm1.5 32.6h-.2c-.1-.2-.2-.1-.2-.2 0-.3-.2-1.1.2-.8.1.1 0-.1.1.1.5.5.1.2.1.9zm4-3.8c.1 0 .1-.2.1-.2h.2c.2 0 .3.1.4.1v.3c0 .2-.1.6-.1.6-.1 0-.1-.1-.3-.1l-.1-.1c-.1-.1 0 0-.2-.1 0-.1-.1-.1-.2-.1.1-.3.1-.1.2-.4-.1 0 0 0 0 0zm13.7-10.6c.3-.1 1.2.1 1.3.3l.1.5c0 .4.6.1.7 0 .2-.2.9-.2.9.1h.4c.2.2.2-.1.2.3-.1 0-.1.1-.1.1h-.6l-.2.3c-.6.2-.2.2-.4.4 0 .2-.3.4-.5.4-.3 0-.7-.1-.5-.4.3-.3.3.2.3-.4l-.1-.1s-.7-.4-.8-.1c-.1.2.1.3.1.4.1 0 0 .6 0 .7 0 .3-.5-.1-.5-.1 0-.3-.2-.5-.1-.5 0-.3-.1-.5-.1-.5 0-.1 0 0-.1-.1-.5-.5 0-1 0-1.3zm-7.1-1.8c.4-.1-.1-.5.1-.5.3 0 .3.1.3.3 0 .1.1 0 .1.1.2.4.1.2.5.3l.1.1c0 .1.1.2.2.3v.1c-.1.1-.1 0-.1.4h-.1s-.1-.2-.7-.2c0-.1-.4-.2-.4-.2-.3-.2-.4-.6 0-.7zM3.9 1.3v-.2c.6 0 .2.2.4.2 0 0 0 .1.1.1.4 0 .2.5.4.5.5.1.3.4.3.8h-.2c-.7 0-.5-.5-.7-.5-.5 0-.6-.7-.3-.9z"/>
  <path d="M5.7 8.8c-.3 0 0-.6-.3-.6 0 0-.1 0-.1-.1s0-.1-.1-.1c-.2-.2.1-.2-.2-.2v1c.1.3.6.1.7.4.1.1.2.4.5.3-.1 0 .1-.7-.5-.7zM37.8 58.5h-.1c.1.3-.1.1.1.5.3.5.1.4.2.6 0 0 .4.5.6.2.2 0 .1-.6.1-.8-.5 0-.3-.4-.9-.5zM1.4 73c0-.1-.3-.9-.4-1-.1-.3 0-1.2-.1-1.4v-.1H.8v-.1c0-.5.1-.7-.1-1.1-.1-.3 0-1 0-1.3.1 0 .1 0 .1-.1 0-.3.1-.8.1-.9 0-.7.1-.6.1-1.2.1-.3.2-.7.2-.9.1-.4.1-.2.2-.5.2-.4.1-.4 0-.6-.3.4-.1.1-.2.4-.2.2-.4.7-.5 1 0 .1-.4 1.6-.5 1.6-.1.5-.1.4-.1 1-.1.8-.1.9 0 1.7 0 0 .2.6.2.7.2.4 0 .5.2.9.1.2-.1.2.2.5.1.5.1.5.1 1-.1.2.2.4.3.5.2.4.1 0 .1.4l.1.3c0 .1.1.1.2.2 0 .1.2.1.3.1 0 0-.1-.4-.1-.5-.1-.2-.3-.3-.3-.6zM3.6 64.4c0 .1 0 .1 0 0-.1.1-.1.1-.1.2-.5.3-.4 1.1-.8 1.5-.1.1-.9 1.7-.1 1.7.4 0 .2-.4.4-.8l.1-.6c0-.1.5-.9.6-1.2 0-.1 0 0 0 0s.3-.3.3-.4h.1c.1 0 0-.2 0-.2s-.2-.3-.5-.2zM3.1 74.5c.1-.7-.1-.5-.1-.8 0-.6-.2-1-.2-1.3 0-.4.1-1-.1-1.4-.3-.5-.1-1.4-.1-2-.2-.1-.2-.4-.3-.4-.5-.2-.3.4-.5.7-.1.2.1 1 .1 1.3.2.4.2.4.1 1-.1.3 0 .9.1 1.1.3.4.2.2.2.7 0 0 .3.8.4.9.1 0 0 0 .1.1.1.2.3.3.4.5v-.2c-.1-.1-.1-.1-.1-.2zM1.4 10.9c0 .1 0 .2.1.2 0 .1.5.1.6.1.1-.2-.1-1.2-.2-1.3-.1-.1.1-.8.1-1.2 0-.1 0-.1-.1-.1-.1-.2-.4-.2-.5-.1 0 0-.1 0-.1.1-.2.5-.3.7 0 1.3 0 0 0 .8.1 1zM2.1 6.3c.2 0-.1.4.4.1l.2-.1c.1 0 .3-.2.3-.3.5-.1.4-.3.5.3.2.8-.5.9.4 1.2.1 0 .1.2.3.2 0-.1.1-.3.1-.8 0-.3-.1-.3-.1-1 0-1-.2-.3-.4-.8v-.2c0 .1 0 0-.4 0l-.6-.1c0-.1-.4 0-.4 0-.1.1 0 0 0 .1-.2 0-.2.1-.2.1v.7c-.7.1-.5.6-.1.6zM167 33l-1.1.4-2.1-.8-1.9.3-.1-.1-1.5.1-.6-.5-.4-.2-.5-.5-.5-1.9-3.3.6-1.2.1-1.1-.7h-1.1L147 28l-1.9 3.6-.2-.1-1.2.4h-.3l-1.3-.3-.5.3h-2.2l-.2.2v-.3c.1-.2-.1-.2.2-.3 0-.1-.1-.1-.1-.3h-.1.1c.5-.1.2-.3.2-.4 0-.3-.8-.1-1-.5.3-.6-.1 0 .4-.6.4-.2 0-.3 0-.5 0-.4-.5-.3-.5-.5-.1-.4 0-.5.3-.7.4-.3.1-.2-.1-.5 0-.4 0-.3-.2-.6-.2-.5-.1-.2-.4-.5 0 .2-.1.2-.2.4 0 .1-.3.8-.1.9v.1c.1 0 .4.3.4.6v.1c-.1 0 0 0-.1.1-.4.1-.4 0-.8.1-.2.7.2.5.3.8.1 0 .1.2.1.2-.4 0-.5 0-.6.4-.1 0 0 .1-.1.2l-.2.2h-.1l-.3-.5-4.4-4.6-2.3 2.3-.9-.3-2.5.7c.1-.5-.1-1.1-.4-.9 0 0-.6 0-.7.5-.1.5-.4.3-.5.7-.2.3-.1.1-.1.2h-.1l-.1.2-.3.2c0-.3 0-.6.1-.7.1-.5.1-.3.2-.4.2 0 .1-.7.2-.9.1-.8.2-.4.4-.8 0 0 .1 0 .1-.1v.1c.1-.1-.1-.1-.2-.1l-.1-.1c0 .2-.5.1-.5.5-.1 0-.1.4-.4.4-.1-.1-.3-.1-.4 0 0-.7.3-.5.3-.7 0 0 .1 0 .2-.1.2 0 .4-.3.5-.4 0-.3.2-.3.2-.4 0 0 .1-.4.1-.5h.1c.1-.2.2-.1.2-.2.4-.2.2-1 .1-1-.1-.1-.1-.1-.2-.1-.3 0-.9.1-.7-.5.1-.3.2-.8 0-1 0-.2-.5-.2-.2-1.1 0 0 .1.1.1 0 .1 0 .2-.2.3-.3v-.1c0-.4-.2-.5-.2-.5h-.2c-.4 0-.2.7-.4.7-.1.1-.1.3-.3.3-.5 0-.3 0-.7-.1-.1.1-.1.1-.1 0-.2-.3 0-.4 0-.6.2-.2 0 0 .1-.2.1 0 .7-.6.3-.8.1-.5-.1-.8.3-1.2.2-.2.1-.6.1-.7h-.1.1c-.1-.1-.5-.2-.6-.2-.2-.1-.5-.1-.6-.1-.3-.2-.4-.5-.3-.8 0 0 .2-.2.2-.3.1-.1.1-.8.1-.8 0-.1-.2-.8-.2-.8-.1-.3.1-.1-.2-.5-.3-.1-.2.1-.3.1 0 .6 0 .1.1.4 0 .1-.1.3-.1.3s-.2.1-.2.2-.1.1-.1.3c0 .4.1.1.2.3h.1v.4c-.1 0-.4.7-.4.8-.1.3.5.8.1.8-.1 0-.2.3-.4.3 0 .1-.1.2-.1.3v.3c.1 0 .2.1.3.2v.2c.2-.3 0 .2 0 0 0 0-.1.1-.1.2-.4.5.2.5.2 1H120.7c-.4 0-.4.5-.5.7-.1.2 0 .9-.2 1.4-.1.4 0 .8.2 1 .3.2.2 1-.2.6-.3-.3-.7 0-.9-.1 0 .3.1.3.3.5.2.3.1 1 0 1-.1-.1-.2-.3-.3-.3-.5-.2-.9-.3-1.1-.5 0 0-.1-.1-.2-.1-.5-.1-.7-.2-1.1-.4h.1c-.2-.2-.5-.3-1-.6l-.9-.9-.2-.1c-.2-.1-.3-.4-.4-.5 0 0-.2-.4-.3-.4-.1-.4-.4-.9-.6-1.2-.2-.3-1.1-1.2-1.3-1.2-.2-.2-.9-.3-1-.5-.1 0-.4-.3-.4-.3-.2-.3-.4-.4-.7-.6-.4-.2-.7-.7-.9-.8-.3-.1-.1-.1-.4-.3-.3-.3-.7-.6-1.1-.8-.6-.2-1.1-.9-1.5-1-.1-.1-.1-.1-.2-.1h-.1c0-.1-.1-.2-.2-.2-.1-.1-.3-.1-.4-.2-.3-.3-1.1 0-1.1.2-.1 0-.5.8-.6.9 0 .1 0 .1-.1.1 0 .1 0 .1-.1.1s-.4.3-.4.4c-.2.4-.2.3-.4.5-.2.3-.2.2-.4.3 0 0-.2 0-.3-.1v.1h-.1c.1-.2.1-.1.3-.2h-.6v-.1h-.2c-.3.2-.5 0-.7 0-.4 0-.2-.1-.3-.1-.2 0-.8-.5-1-.6-.2-.1-.5-.4-.6-.4l-.1-.1c-.2-.1-.3-.2-.5-.2l-.2-.1c-.6 0-1-.1-1.5-.1-.8 0-.9 0-1.6-.2-.4-.1-1.3-.5-1.3-.5-.1-.1-.3-.1-.5-.3l-.4-.4c0-.1-.3-.3-.4-.3l-.3.3c0 .1-.1.2-.1.3 0 0-.5.9-.6 1 0 0-.5.7-.8.8-.3.2-1.1.8-1.1 1.2-.1.3-.1.4-.4.6 0 0-.1.1-.1.2l-.5.8c0 .1-.9 1.2-1 1.5-.1.2-1.1 1.4-1.3 1.6 0 .1-.9.9-1 1-.4.3-.4.4-.7.7-.3.3-.8 1.1-1.2 1.5-.3.2-.1 1-1 .6-.3-.1-.6 0-.6.3.1 0 0 0 0 0h-.1c-.2-.4-.2-.4-.3-.4-.1.1-.6.2-.6.3-.1 0-.1.1-.2.1-.4.2-1.2.6-1.3 1.2-.3.6-.1.7-.7 1-.2.1-1 .1-1.2 0-.1 0-.2-.4-.4-.6-.3-.2-.9-1.7-1.2-1.7 0 0-.3-.4-.3-.5-.4-.6-.2-.3-.6-.5h-.1c-.4-.1-.9-.3-1.2-.5-.4-.2-1.2-.9-1.5-1.3-.1-.2-.6-.7-.6-.8-.2-.4-.3-1.1-.8-1.2-.2 0-1-.1-1 .1h-.1l-.3.2c-.2.3-1.1.1-1.1 0h-.3c0-.1-.4-.4-.5-.4-.2-.1-.6 0-.9 0l-.6.4v.1s-.1.1-.2.1c-.3 0-1.3.8-1.5.8-.5 0-1 .9-1.5 1-.7.2-1.2 1-2 1.3 0 0-.1.1-.2.1-.1.1-.9.6-1 .6-.4.2-1.5 1.3-1.7 1.3-.6 0-2.1.6-2.3 1.3l-.2.1c-.4.3-.7.4-1 .8 0 .1-.5.5-.5.5s-.5.2-.5.3c-.3.2-.3.3-.4.4-.5.5-.4.3-.8.5l-.3.1c-.6 0-1.1.5-1.8.5-.3 0-.8-.1-.9-.1-.4 0-1.6.3-1.7.5-.1 0-.4.2-.5.3-.1.1-.3.3-.3.4-.1 0-.2.3-.5.4-.1.2-.2.4-.4.4 0 .2-.1.4-.3.6l-.1.1c-.1.1-.2.1-.3.2h-.1l-.1.1-.2.2c-.1.1-.1.3-.3.4l-.1.1s-.1 0-.1.1-.1.2-.1.2c0 .1-.1.2-.2.3 0 0 0 .1-.1.1-.3-.1-.6-.2-.7-.6-.2-.8-.8-1-.9-1.4-.1 0-.1 0-.1-.1-.2-.8-.4-.2-.5-.5-.3.6.3 1.3.4 1.3.4.1.3.1.2.5-.4.6.5.4.6 1.2l.2.1c.5.3.7 1 .6 1.3-.6.2-.5.8.5.8 0 .8-.6.2-.4 1.2 0 .4-.2 1.3-.2 1.3l-.1.1c.5 0-.2-.5 1.2-.4.8.1.7 1.5 1.2 1.7.1.4-.1.3.1.8v.1c.3.1.1.7.1.9l-.1.1c-.1.2-.1.3-.1.5h-1c0-.6-1.5-1.7-1.6-1-.8.5.8.6.8.8v.1s-.9.4-.3.9c.2.2 1.1.3.7 1.7-.1.4.1 1.4 0 1.6-.8.2-.3.4.2 1.1.5.7 1.1 2.2.8 3.1h-.1c-.1.5-.3.8.1 1.1.1.1-.1.1.2.2 0 .2.2.8.5.8 0 .3.6.9.9.9 0-.1-.1-.9-.1-1-.1-.4-.3.1-.7-.7-.2-.5-.1-.4-.1-.9h.1c.4 0-.2-.3.5 0 0 0 .5-.2-.3-.8-.3-.2.1-.5-.5-1.2.3-.4.3.5.4-.5.1-.7 1.4.2 1-.8-.4-1 .2-.2-.5-1.4-.2-.3-.3-.8-.3-1.2h.2c.3-.2 1.6-.2.8-.8-.5-.8 0-.9-1-1.5-.2-.1 0-.6 0-.8.3 0 .3-1 .3-1.1l-.1-.1c-.2-.3 0-1.1.2-1.3-.1-.5.3 0-.2-.8-.2-.5-.7-.9-.5-1.5H45v-.3.2h-.1v-.1l-.1-.1h-.1v-.1l-.1-.1V38h-.1v-.2l-.1-.1v-.4l-.2-.1V37c-.1 0-.2 0-.3-.1v-.1h-.1s.1 0 .1-.1h1.2c.1 0 .5-.1.5-.2.1 0 0 0 0-.1l.4-.4c.1 0 1.1-.4 1.1-.4.1 0 .9-.5.9-.5s.8-.2 1-.2c.3 0 .4-.1.8-.1 0-.1 0-.1.1-.1 0 0 .9 0 1 .1.3.1 1.3-.2 1.5-.4.5-.2 1-.1 1.6-.5.2-.1.3-.4.5-.4.1-.5 0-.1.5-.5.1 0 1.5-.3 1.7-.3h-.1c.2-.1.3-.8.4-.8 0-.1.2-.4.2-.5.1-.3 1.7-.4 2-.4.3 0 .7.1 1-.1.3 0 .4-.4.5-.6.3-.4.3-.5.6-1 .2-.2.3-.5.6-.8l1-1 .1-.1c0-.1.2-.3.3-.3 0-.2.4-.4.5-.5.1-.1.3-.1.3-.2.1 0 .3-.3.3-.3 0-.2 1.6-.3 1.8-.2h.1c0 .1 0 .1.1.1.6 0 .8.2 1.5.3.3.1.5-.1.9.1l.5.2c0 .1.4.2.5.6.2.3.3 1.8.1 2.1-.1.1 0 .1-.1.1-.4.2-.6.9-.1 1.2h.1c.5.4 1.5.3 2.1.2.3-.1.2-.3.5-.3.7-.1 1.4-.1 2.1.1 0 0 .3.1.4.1.3.1.2-.1.4.4 0 .1.1.4 0 .4v.1c-.1 0-.8.2-1.1.3-.2.1-.2-.1-.4.2v.1c.3.2.5.5.9.3.1 0 .4-.1.5 0h.1l.3.4c.1.1.2.3 0 .4 0 0-.2 0-.3.1 0-.1-.1 0-.1 0-.5 0-1 0-1.5.2h-.1c-.6.1-.3.2-1.1.2-.7 0-1.6-.1-2.4-.1-.6 0-1.1.1-1.6.3-.3.1-.6.2-1.1.3 0 0-.5.2-.8.3-.3.1-.4.2-.9.3-.4.1-.4.3-1 .4-.4.1-.9.3-1.4.3 0 0-.8.2-1 .2-.4 0-.7.3-1.1.4l-.5.4s-.6.4-.8.4c0 0-.3.2-.6.2 0 0-.2.2-.3.2-.1.1-1 .4-1.2.5-.8.4-1.3 1.6-.5 2.4.5.5 3.7 1.3 4.3 1.3 1.5.1 2.7.7 4.4.6.4 0 1.9.5 2.2.8.4.3 1.3.6 1.9 1 .3.2 1.3.3 1.4.7.1.2.8.5 1 .6 0 .1.1 0 .1 0 0 .1 0 .4.1.5l-.3.3c-.4.1-.5.7-.9.7s-1.7.7-2.3.9c-.1.1-.1 0-.1.1-.1 0-.6.1-.6.2-1.1.3-1.3 1-1.1 1.9l.8.4c1 .6 2.6.8 3.7.9.9.1 2 .5 2.4.5.4 0 .6.3.9.3 1 .1 3.1 1.2 3.5 1.2.6 0 1.3.7 1.8 1 .5.3.6.7.6.7s.2.4.3.4c.1.2.2.8.4 1.1.4.7 2 .6 2.8.6 1.4 0 3.1.3 4.3.3s1.7.4 2.3.5c.6.1 2.2.6 2.4.6h.1c2.2.3.9.1 3.2 0h.6c1.6-.1 1.6-.3 2.9-.5.9-.1 6.8-.1 6.9-.1.1-.1.2-.2.2-.4l.1.1c-.1-.1-.1-.3-.1-.4-.1-.1-.1-.1-.2-.1-.1-.4-.8-.7-1.1-.9-.3-.1-1.8-1.1-1.9-1.3-1-.9-1.7-1-2.8-1.6-.5-.3-1.3-.6-1.6-1.2-.1 0-.9-.6-1-.7 0 0-.9-.5-1.1-.5-.6 0-1.2-.5-1.7-.8l-.1-.1c-.5-.5-1.9-1-2-1.3-.3-.1-.5-.1-.7-.2l-.2-.1-.8-.4c-.1 0-1.4-.5-1.7-.5-.9-.1-1.6-.7-2-.7h-.2c-.6-.3-.8-.1-1.6-.1-.9 0-1.3-.1-1.8-.2-.6 0-2.3-.6-2.9-.8-.5-.2-2.2.1-2.2-.5-.3-.1-.6-.5-.8-.6v-.1c-.1-1 .1-1.2.1-1.8.3-.6 1.4-.3 1.4-.9-.2-.1-.1 0-.2-.1-.4-.3-2.2-.5-2.8-.6-1-.1-1-.2-1.7-.3-.5-.1-2.4-.8-2.5-.8-.7 0-.9-.1-1.3-.1-.1 0-2.1-.3-2.3-.3-.8 0-1 0-1.8-.1l-.6-.1c-.8 0-.9 0-1.8-.2-.4-.1-.6-.1-1-.1v-.1c-.1 0-.1 0-.1-.1l.4-.4c.1 0 .2-.1.2-.1.1 0 1.1-.6 1.1-.6.1 0 .1-.1.3-.1l.1-.1c0-.1.8-.4.9-.5.2 0 .9-.3 1-.3.8-.1 1.4-.8 2-.9l.1-.1c.5-.1 2-1 2.2-.9.1-.1 1-.3 1.2-.3.3 0 1.5-.5 1.7-.6.4-.4.9-.6 1.3-.9.2-.1.6-.9.6-.9 0-.1.1-.2.2-.2l.3-.2c.3-.1.1 0 .4-.3.3-.3.5-.6.6-.7.2-.2 1.3-1.6 1.3-1.6.1-.3.9-1.1.9-1.2.1-.2.2-.1.3-.3 0 0 .3-.5.4-.6.3-.4.8-.7 1-1 .1-.1.4-.5.5-.5 0 0 .4-.5.4-.7v-.1s.3-.7.5-.8c0 0 .3-.3.4-.3 0-.1.1-.1.1-.1 0-.1.4-.7.4-.8l.2-.2c.1-.2.3-.4.3-.5l.4-.5v-.1s.3-.3.3-.4c.2-.2.9-1 1.2-1.1.1-.2.2-.3.3-.4.2-.5.3-.7.4-1.2l.1-.2c.1-.3.9-1.4.9-1.4.1-.4.5-1 .9-1.2.4-.2 1.4-1 1.4-1.4-.1-.1 1 .9 1.1.9.1.2.7.5 1.1.3.4-.1.5-.5.9-.6.6-.1.5-.3 1.2-.2.4.1.7.6 1 .6 0 .1.1.1.1.2.2.2 1.1.5 1.3.5 0 0 .2.1.2.2 0 0 0 .3.1.3 0 0 .3.1.4.1.2.1.1.4 0 .5-.2.1-.4.6-.4.6v.4c0 .4-.9.5-1 .8-.2 0-.6.5-.6.7-.1 0-.1.1-.1.1s-.8.3-.9.3c-.4.2-.3.7.1.8.4.1.4.1.8 0 .6-.1.6-.3.8-.3 0-.1.5-.5.5-.6.1 0 .3-.4.4-.5.4-.5.4-1 .7-1.2 0-.1.4-.4.4-.4.1-.1.1-.1.2-.1s.1-.2.8-.3c.1 0 .6-.2.6-.2s0-.1.1-.1c0 0 0-.1.1-.1l.1-.1c.3-.4.7-.5.8-.8l.1-.1c.5-.1.1-.3.8-.1.1.2.1 1 .6.8h.1c0 .1 0 .1.1.1.4.4.4.3.8.6.5.4.5.6.7.8.2.2 0 .2.2.3 0 .1.1.2.1.3.2.1 1.2.9 1.3.8 0 0 1.1.3 1.3.3.1.2.6.6.8.7.3.2.6.6.7.9.1 0 .1.1.1.1.5.2.9.3 1.4.6.3.2.7.6.7.9.3.5.6.5.9.8l.1.1c0 .1.1 0 .1.1.4.3.8.3.9.3l.1.1c.2 0 .7.3.7.6v.1c.1 0 .1.1.1.1 0 .1.3.2.4.3.2 0 1.5.5 1.6.6l.3.2c.2 0 .6.3.6.6.3 0 .1.9 0 1-.1.3.1.6.3.8l.4.3c.1 0 .1.7.1.7-.1.1 0 0-.2.1l-.5-.1s-.3-.3-.3-.4c-.5-.1-.5.1-.5.7 0 .2.2.3 0 .5-.3.5.4.6.3 1.3-.1.3-.6.8-.6.3 0-.1 0-.4-.2-.2-.1.1 0 .8-.4.6-.3-.2-.7-.3-.8.3h-.1c-.1.1-.3.7-.1.7 0 .1.3.3.3.5-.3.5.4.5.2 1.1 0 .4-.2.2-.2.4 0 0-.1.4.1.5 0 0 .2.2.3.1.5.4.4.4.6.9.1.5-.5-.1-.5-.1-.2-.1-.2-.6-.8-.4-.1 0-.4.6-.1.9.1.1.3.1.5.4.1.1.3.8.1.8-.3 0-.7.1-.6-.4V38c-.1 0 0-.1-.1-.1-.1-.1-.3 0-.4-.3 0 0-.2-.1-.4.1-.2.5-.7.2-.7 1.1 0 .3.4.1.4.7 0 .2 0 .6.2.7.1 0 .3.2.3.3l.1.4c.3.2.3.5-.1.6-.4.1-.1-.1-.5-.3-.5-.4-.4.3-.2.5s.3.3.3.5c-.2 0-.1.2-.4.1 0-.1-.2-.2-.2-.2l-.1-.1c-.1 0-.5-.1-.9.1-.3.1-.4 0-.5.1-.2-.1 0 0 0-.1l-.2-.1c-.2 0-.3-.1-.4-.1-.1-.2-.4 0-.4-.7 0-.3.6-.3.8-.3.4 0 .2-.5.1-.6 0-.1-.3-.4-.3-.4-.1-.8.2-.7-.6-.6-.5.1-.8.1-1.2-.2 0-.1-.2-.3.1-.3.3-.1-.1 0 .4-.1.5-.3.3-.1.6-.1.6 0 .6-.1 1.1-.1v-.4h.1s-.3-.1-.4-.1c-.3-.2-.4 0-.7-.1-.3-.2-.7-.2-.7-.3-.2 0-.2-.2-.2-.4.3 0 .5.1.6-.1 0 0 .6.1 1.1-.3.5-.3-.3-.9-.5-.9-.1-.1-.3-.2-.4-.3-.3-.4.6-.3.7-.4.1-.2-.1-.5-.1-.5-.2-.1-.3-.1-.5-.2s-1.2-.4-1.2-.4.1 0 .1-.1c.1-.1.2 0 .2-.1h.2c.5 0 .6-.4.5-.5 0 0-.3 0-.4-.1-.3-.1-.2-.6-.2-.7.4-.4.2-.2.5-.6.1-.2.1-1.3.1-1.3h-.1c0-.1-.1-.2-.3-.3-.5-.2-.3-.5-.5-.5-.1-.1-.6-.1-.8-.1 0-.1 0 0-.1-.1 0-.5.1-.1.2-.4.3-.1.2-.1.6-.1.6 0 .7-.1.8-.1 0-.1-.1-.5-.2-.5 0-.1-.1-.1-.2-.2 0-.1-.1 0-.1-.1-.4-.3-.6-.3-.8-.7-.3-.4-.8-.1-1.1-.4v-.1.9l.2-.1c.4-.1.5-.1.5-.4-.1 0-.1-.1-.1-.3v-.1-.1c.3-.3.3.1.4-.6h-.1l-.1-.4c0-.1-.1-.1-.1-.2-.3-.3-.5.2-.4-.5 0-.3.1-.2.1-.3.1-.1 0-.3 0-.5l-.3-.1v-.2c-.1-.3-.1-.8-.1-.8-.4-.1-.5-.5-.2-.5.6-.1.3-.6.2-.6-.2-.1-.1-.2-.3-.2-.4-.2 0-.6-.2-.9-.3-.3-.5.8-.6.9-.4.2-.1.6 0 .7.1 0 .3.5-.1.6-.1 0 0 0-.3.1 0 0-.1.1-.1 0-.1.1 0 .1-.1.1 0 .1 0 .2-.1.2v.2c.1 0 .7.3.7.6-.3 0-.5.2-.6.5-.6.2-.2.2-.6.4-.1.8.6.3 1.1.6 0 .5-.4.1-.4.7-.4.2-.1.1-.5.1 0 0-.2.2.2.4v.2c0 .1-.2.2-.2.6-.1.7.3.5-.6.6-.1 0-.2.1-.2.2l-.1.1c.1 0 0 0 0 0h-.2c-.1 0-.1.4.2.5.3.1.3.4 0 .5l-.4.4c0 .1 0 .2.1.3 0 0 .3.1.1.2 0 0-.2.5 0 .4-.1.3.1.2.1.3-.3.1-.1-.1-.5.2l-.2.2c0 .2-.4.4.1.4 0 0 .2.1.4 0l.1.1c.1.1.2.1.2.4 0 .1-.3.1-.3.3-.2 0-.1 0-.4.1-.3.1.1.2-.3.2-.1 0-.4.4-.2.5.1.1.7 0 .8 0v.1c.1 0 .1.6 0 .8-.1.1.1 0-.3.3.1.2.2.3.1.5l-.2.2-.3.1c-.4 0-.9.1-.9.5.2 0 .5.4.6.4.9.1.7.7.5.7-.1 0-.2.2-.3.2-.1.1-.2.3-.3.3-.1.6-.3.3.4.6.5.2-.2.6-.4.3-.2-.2-.6-.5-.8-.1-.1.2-.6.1-.6.5 0 .1.1.2.1.3h.2c.1 0 .3.4.1.5l-.1.1c-.1.2-.2.2 0 .4.1.1.2 0 .2.1.2 0 0 .4-.4.4h-.1c.1.1.2.2.2.3v.1c-.2 0-.8.3-.3.7.1.1.2.3.2.3 0 .2-.5.2-.5.3-.1 0-.3.4.1.5 0 0 .6.1.6 0h.1c.1-.2.4-.4.4-.4 0-.1.7-.4 1-.2.2.2.5.6.1.8-.2.1-.1.1-.3.2h-.1c0 .1-.3.2-.3.3-.6 0-.5.4-.7 0 0 0-.3-.1-.5.1-.1.2 0 .5.1.4 0 .7-.2.2-.2.8 0 .3-.8-.1-.9 0-.2 0-.3.4-.3.5 0 0 .1.1 0 0 0 .1 0 .7.2.6.1.3.5.2.8.2.4 0 1.3 0 1.2.5-.1.4-.9-.1-1.2 0-.3.2.1.8.1.8.1 0 .4.1.5.1.1.3-.4.6-.5.8 0 0 0 .1-.2.1-.3.2-.4.2-.6.2-.3.1-.5 0-.7.4l-.1.1c-.2.4-.2.4-.1.8.1.6 0 .5.4.7.3.2 1.1.4 1.4.5.1 0 .7.3.8.4.3.1.8-.1 1.1-.1v.1c-.1 0-.3.4-.4.5-.1.1 0 .1-.1.1-.1.1-.1 0-.1.1-.2.2-.6.3-.8.4-.4.2-.1.3-.1.5.1.1.2.2.3.2.5.1 1-.3 1.4 0 .3.2.6 0 .5-.3 0-.5.9-.3.9-.2.3.1.1.4.3.4 0 .1.2.3.3.4 0 .1 0 0 .1.1.2.1.4 0 .6-.1.4-.1.3-.2.5-.4.3-.3.1-.2.2-.6h.1c.4 0 .6.2.4.6-.2.5.7.3 1.1.5.5.2.1.3.9.3s.2 0 .5.3c0 .2.3 0 .6.1 0 .1.3 0 .4 0 0 .1.2.4.4.4s1.7.2 1.8 0c0 0 .3-.4.3-.5 0 0 .3-.1.5-.1.1 0 .3-.1.3-.3.4 0 .2.5.5.5v.1c.2 0 .4-.2.4-.4.6-.1.2-.1.8.3h.1s1 .4 1.1.3l.2-.1s.5.2.5-.3c0 0 .2-.2.2-.3.2 0 .5.3.5.3 0 .3.6.6 1 .6s.6-.9.3-1c-.3-.1-.1-.6.3-.4.3.1.2-.1.5.3 0 0 .4.3.5.4.1.1.4-.1.7.2v.5c.2.2.8 0 .9-.3.4-.3.6.6 1.1.4h.1l.1-.1c.5-.4.6-.4 1.3-.4h.2s.5.6.6.2c0 0 .1-.1.1-.2l-.1-.2c-.4-.1-.2-.1-.2-.5.1 0 0-.1.1-.1.6 0 .5.2.6.2.5 0 .7.2.8.2.4.1.3.1.8.1 1.1 0 .5.4 1 .3.4-.1.1-.5.4-.5.3 0 .4-.5.6 0h.5c0-.4 0-.2.1-.5.1 0 0-.1.1-.1.2-.1.2.1.3.1.8.3.3-.3.9-.1 0 .1.1.1.1.1.1.2 0 .3.2.4.4 0 .4 0 .5-.3 0-.2.7-.1.7-.1.2.1.6.7.6.3.2-.7-.4-.8.6-.8.1 0 .5.6.5.8.1.2.8.1.8.1.1-.1-.1-.1.3-.3V54c-.1-.6 0-.3.1-.7.6 0 .3.2.5.2 0 0 0 .2-.1.2-.3.4.1.7.2.7.9.1.4-.4.8-.4.2 0 .5-.1.5-.3 0-.3.4-.1.4 0 .4.9.7.4 1 .4.4 0 .2-.3.4-.4.1-.1 1.2-.2 1.4-.1l.1-.1c.1-.4-.1-.3-.1-.5-.1-.1-.8 0-1 0-.5.1-.2.1-.6.1-.1-.1-.1-.5.1-.6v-.1c.1-.1.4 0 .4.2.1.4.8.1.8-.1.1-.1.1-.3.1-.5s-.5-.4-.6-.4c0 0-.7-.7-.8-.7-.3-.2-.8-.7-.3-.9 0-.1 0-.1.1-.1.6-.2.7.7 1.3.7.9 0 .2-.5.4-.7.2 0 .1-1-.3-1-.3 0-.3 0-.4-.1 0-.1-.2-.1-.2-.3 0-.1 0 0-.1-.1-.3 0-.1-.4-.1-.5 0-.1.2-.4.2-.4.1 0 .2 0 .3.1.4.4 1 0 .5-.5 0 0 0-.5.1-.5v.1c0-.2 0-.7-.3-.6 0-.1-.1-.1-.1-.1-.2-.1-.6-.2-.8-.3 0-.1-.5-.3-.5-.3-.3-.1-.2-.4-.2-.5.2-.1.7.1.7.1.1.1.8.1 1 0 .2-.4-.4-.7-.7-.7l-.3-.1c-.3-.2-.8 0-1.1-.2-.1-.1-.1-.3 0-.4 0 0 .1-.1.2-.1s.4-.1.4-.1h.1c.3-.1.2-.4.2-.4 0-.1-.1-.4-.2-.4-.3-.5-.5-.3-.5-.3l-.1-.1c-.2 0-.1 0-.5-.1-.6-.4-.3-.4 0-.5.3-.3 1.8.2 1.8-.1 0-.5-.5-.5-.5-.5-.2-.1-.8-.1-.9-.3 0 0-.2 0-.2-.1v-.1c.1 0 .3-.1.3-.3.1-.3.1-.1.3-.4 0 .2.5 0 .7.1-.1 0-.1-.2-.1-.3.1 0 .1 0 .1-.1v-.1c-.1-.6-.3-.1-.3-.4 0 0-.1-.1-.1 0l.5-.4 1.3-.1.3-.2.5.1.2-.1 1.2.7 2.3-1.2.9-.2.9-.8h3l.7.3.1.6 2.4-.4.7.8 1.7 1.1h.1l.8 1.2 2.8-.9.8-.1.6-.2L166 41l2.4-1h1.6v-7.1l-3 .1zm-29.5-1.8l-.1-.3c.1 0 .1.2.1.3zm-2 9.6c-.2 0 0 0 0 0-.1 0 0 0 0 0-.1.1-.1 0-.2 0 .1.1 0 .2-.2.1-.2.4-.3-.4-.3.6h-.5c.1.3-.2.3-.3.2 0 .1.1.1.1.2 0 0-.5.1-.6.1h-.1l-.1.1c0 .5.5.2.5.6.1.8 0 .6-.5.8-.3.2.2.8.3.8 0 .2 0 .3-.1.4-.3.6-.7-.3-.6.7 0 .4.7.2 1 .1.5-.2.4-.9.9-.5.4.4.2.5.1.5v.6c0 .5-.7.1-.8.1h-.4c-.2.3 0 .9-.3.9-.1 0-.3.2-.4.1-.5 0-.4.2-.5.1-.1.1-.1.6.2.7 0 .1 0 .1.1.1l.1.1.3.1c.2 0 1 0 .7.4v.2c-.2 0-.1-.2-.6-.1v.1c0 .1-.1.7-.1.7 0 .2.5-.1.4.4 0 .4-1.4-.1-1.4.6 0 .6 0 .5-.1 1-.2 0-.5.1-.6-.1-.1 0-.1 0-.1-.1l-.2-.3c-.3 0-.6.4-1.1.1-.6-.4-.1-1-.1-1.1.5-.2.3 0 .7 0 .8 0 .8-.2 1-.2.3 0 .3-.3.5-.3 0-.1.3-.3.4-.3 0-.1.4-.4.5-.4v-.1h-.1c-.1-.4-.2-.3-.2-.4 0-.3-.3-.3-.3-.5-.2-.1-.3-.1-.5-.1-.5 0-.5.1-.9.1-.3 0-1.3 0-1.5.4-.1 0-.1.1-.2.1-.2 0-.4.2-.4.2-.9.1-.5.6-1.3.6-.3 0-.4-.2-.4-.1l-.1-.1c-.3-.3.6-.7.7-.7.1-.2.8 0 1.2-.2.5-.2.6-.3.9-.4l.1-.1c0-.1.2-.1.2-.2 0-.2 0-.4.1-.4l.1-.1c.2-.5.4-.2.5-.4.2 0 .5-.4.5-.7.1.3.1-.3.4-.5.6-.4.4-.9.1-1.4-.2 0-.4 0-.5.1-.8.1-.6.6-.9 1-.3.4 0 .6-.7.5v-.1c0-.3-.6-.2-.6-.2-.1-.1-.2-.8-.1-.8v-.1c.2-.3.1-.4.1-.7-.1-.1-.3 0-.4.1-.4.1-.4.4-.6.4-.2 0 0 .7-.6.7-.2-.3-.2.1-.2-.6 0-.2.1-.7.1-.7.4-.3.3-.4.5-.6.1-.1.3-.1.4-.1.4 0 .3-.1.4-.2l.1-.1c0-.1.3-.2.4-.2v-.2c0-.7.1-.6.1-.9 0-.3.2-.4.3-.5l.4-.3c0-.3.1-.2.3-.3.4-.2 0-.8-.1-.8-.2.1-.1.3-.3.3h-.1v-.2s-.1 0-.1-.1c-.2-.1 0-.2-.2-.2l-.1-.1v-.1c0-.4.5-.4.5-.6 0-.9-.2-.7-.3-1-.3 0-.5-.1-.9 0-.2.1-.4.1-.4.3-.1.4 0 .3-.3.6-.2.1-.1.2-.2.2-.4 0-.4-.1-.4-.4.2-.2-.1-.4-.2-.4-.1-.2-.2-.4 0-.6 0-.1.4-.3.3-.6-.1-.1-.1-.2-.2-.2l1.2.3.8-1.9.3.1.9-.3h.3l.9 2.1.4.1.3.8 2.8.8c.1.2.2.3-.3.3-.2 0-.7.4-.7.4-.4.4.1.2.3.7v.1c.1 0 0 0 .1.1.1 0 .3.1.3.1.2.4.6.5.4.9z"/>
  <g>
    <text transform="translate(960 540)" font-family="MyriadPro-Regular" font-size="12">
      https://yadi.sk/d/dtoRe-Pt2bsDPg
    </text>
  </g>
</svg>
